{"glyphs":{"0":{"ha":694,"x_min":76,"x_max":618,"o":"m 153 71 q 136 89 153 71 q 97 158 118 108 q 76 264 76 208 q 98 370 76 320 q 156 456 119 421 q 349 532 235 532 q 548 452 475 532 q 618 261 618 374 q 537 65 618 142 q 340 -11 457 -11 q 237 11 287 -11 q 153 71 188 34 m 194 408 q 180 394 194 408 q 148 342 165 380 q 131 254 131 304 q 159 158 131 203 q 339 64 217 64 q 525 153 469 64 q 558 270 558 206 q 528 377 558 334 q 448 444 497 420 q 350 468 399 468 q 262 451 301 468 q 194 408 223 435 z "},"1":{"ha":694,"x_min":204,"x_max":498,"o":"m 349 -4 l 221 -7 q 207 -2 209 -7 q 204 16 204 3 q 208 34 204 28 q 225 39 212 39 l 288 39 q 297 52 297 39 q 299 174 299 92 l 299 297 q 297 455 299 419 q 296 496 296 491 q 293 500 296 500 q 223 500 258 500 q 208 523 208 500 q 223 546 208 546 l 354 543 l 483 546 q 498 536 497 546 q 498 524 498 532 q 498 513 498 516 q 496 506 498 510 q 479 500 493 500 l 415 500 l 412 500 q 410 496 410 500 q 408 449 410 491 q 406 248 406 407 q 406 66 406 89 q 409 41 407 43 q 419 39 410 39 l 475 39 q 494 16 494 39 q 475 -7 494 -7 l 349 -4 z "},"2":{"ha":694,"x_min":79,"x_max":621,"o":"m 110 -4 q 83 15 83 -4 q 99 40 83 26 q 136 69 115 53 q 180 100 158 85 q 229 134 202 115 q 279 172 255 153 q 325 215 302 191 q 363 262 347 238 q 399 376 399 316 q 368 468 399 435 q 286 502 337 502 q 117 424 211 502 q 104 415 107 415 q 90 428 101 415 q 79 448 79 440 q 102 476 79 457 q 159 516 125 495 q 321 568 245 568 q 450 517 398 568 q 502 389 502 465 q 235 95 502 257 q 223 87 223 89 q 247 85 223 85 l 537 85 q 565 132 541 85 q 590 179 589 179 q 608 175 596 179 q 621 168 621 172 q 582 7 621 157 q 563 -4 578 -4 l 110 -4 z "},"3":{"ha":694,"x_min":107,"x_max":590,"o":"m 378 191 l 382 190 q 590 -38 590 173 q 566 -144 590 -94 q 502 -228 542 -194 q 310 -300 417 -300 q 202 -286 254 -300 q 107 -228 107 -260 q 124 -205 107 -215 q 161 -196 142 -196 q 210 -208 189 -196 q 243 -230 231 -221 q 264 -243 256 -238 q 326 -257 287 -257 q 405 -229 365 -257 q 469 -153 445 -201 q 494 -54 494 -106 q 445 82 494 41 q 289 124 396 124 l 215 119 q 194 140 199 119 q 191 150 192 145 q 189 160 189 155 q 189 167 189 164 q 191 172 190 170 q 194 176 193 174 q 198 179 195 178 q 209 185 204 183 q 217 188 213 186 q 247 196 220 189 q 312 221 274 204 q 376 260 349 238 q 428 368 428 304 q 396 470 428 431 q 314 508 364 508 q 166 445 231 508 q 155 437 159 437 q 140 449 152 437 q 128 466 128 460 q 145 489 128 472 q 189 524 162 505 q 337 569 257 569 q 469 522 417 569 q 521 394 521 474 q 392 221 521 277 q 343 197 343 201 q 378 191 343 191 z "},"4":{"ha":694,"x_min":52,"x_max":624,"o":"m 439 -301 q 419 -279 419 -301 l 419 -21 q 417 -7 419 -10 q 401 -4 414 -4 l 81 -4 q 52 10 52 -4 q 65 50 52 25 q 99 104 78 75 q 170 194 135 154 l 354 417 q 366 431 354 417 q 390 457 378 444 q 418 488 401 471 q 448 519 434 506 q 490 551 480 551 q 512 511 512 551 l 512 100 q 515 82 512 84 q 529 79 517 79 l 610 79 q 623 75 622 79 q 624 65 624 71 l 624 10 q 622 -2 624 -1 q 607 -4 620 -4 l 531 -4 q 516 -9 517 -4 q 521 -144 515 -14 q 528 -279 528 -274 q 502 -296 528 -294 l 439 -301 m 156 115 q 146 104 155 114 q 137 87 137 93 q 164 79 137 80 l 397 79 q 417 82 414 79 q 419 103 419 85 l 419 403 q 416 425 419 424 q 406 417 412 426 q 397 407 399 409 l 156 115 z "},"5":{"ha":694,"x_min":135,"x_max":588,"o":"m 214 547 l 218 547 q 276 544 220 547 q 494 535 450 535 q 540 537 537 535 q 546 549 543 540 q 560 575 555 575 l 565 575 q 588 563 588 575 q 582 467 583 489 q 529 439 581 439 q 436 441 478 439 q 340 447 393 443 q 262 452 287 451 q 234 450 237 453 q 216 377 230 448 q 201 299 201 305 q 202 292 201 293 q 203 290 202 291 q 205 290 204 290 q 208 289 206 290 q 240 286 211 289 q 314 273 269 283 q 401 243 359 263 q 471 195 443 223 q 532 26 532 133 q 446 -170 532 -82 q 225 -297 364 -253 q 163 -311 179 -311 q 145 -305 148 -311 q 142 -284 142 -299 q 144 -264 142 -269 q 162 -257 147 -259 q 200 -247 177 -254 q 249 -228 222 -240 q 300 -201 276 -216 q 348 -164 325 -185 q 388 -119 371 -143 q 425 -10 425 -65 q 411 78 425 45 q 373 133 397 111 q 315 171 349 156 q 160 199 251 199 q 135 219 135 199 q 163 360 135 230 q 196 515 192 491 q 201 540 200 538 q 203 543 202 542 q 205 545 204 544 q 208 547 207 546 q 214 547 209 547 z "},"6":{"ha":694,"x_min":62,"x_max":617,"o":"m 140 73 q 83 178 103 114 q 62 312 62 241 q 76 442 62 383 q 114 551 91 502 q 170 645 138 600 q 237 727 202 691 q 308 793 272 762 q 377 846 344 824 q 439 883 411 868 q 506 914 493 914 q 527 902 519 914 q 535 882 535 890 q 507 862 535 873 q 443 826 479 850 q 379 777 407 802 q 325 721 351 751 q 281 664 299 691 q 247 609 263 637 q 207 528 220 561 q 194 491 194 495 q 199 486 194 486 q 242 494 203 486 q 344 502 282 502 q 454 484 406 502 q 539 436 503 467 q 617 262 617 369 q 534 61 617 135 q 339 -11 455 -11 q 140 73 216 -11 m 180 429 q 170 384 177 416 q 164 298 164 351 q 171 212 164 245 q 193 147 178 178 q 231 92 209 116 q 358 40 280 40 q 471 101 426 40 q 514 222 514 160 q 501 324 514 283 q 462 397 488 366 q 301 463 408 463 q 221 456 249 463 q 192 449 194 450 q 188 447 190 447 q 185 444 186 446 q 183 440 183 441 q 181 435 182 439 q 180 429 180 431 z "},"7":{"ha":694,"x_min":113,"x_max":660,"o":"m 113 385 q 119 453 113 387 q 129 547 126 519 q 135 580 131 575 q 155 585 139 585 q 174 580 170 585 q 178 563 178 576 l 178 555 q 401 550 178 550 l 632 550 q 660 533 660 550 q 624 463 660 530 q 476 176 588 396 q 219 -306 229 -306 q 185 -292 206 -306 q 165 -262 165 -278 q 355 72 165 -254 q 556 419 544 398 q 571 444 568 440 q 574 450 573 448 q 577 458 577 455 q 570 461 577 461 l 282 461 q 164 447 166 461 l 156 380 q 133 370 154 370 q 113 385 113 370 z "},"8":{"ha":694,"x_min":95,"x_max":602,"o":"m 170 50 q 115 122 135 79 q 95 205 95 165 q 101 273 95 245 q 117 321 108 300 q 142 360 126 341 q 170 390 158 379 q 201 414 183 402 q 257 448 246 445 q 268 451 268 451 q 266 454 268 452 q 107 688 107 556 q 177 851 107 784 q 347 918 247 918 q 505 860 440 918 q 571 706 571 801 q 460 502 571 584 q 431 481 444 490 q 419 471 419 473 q 425 467 419 470 q 447 454 430 463 q 473 438 464 444 q 502 418 483 432 q 532 392 520 404 q 558 360 543 380 q 581 320 572 340 q 602 214 602 271 q 531 50 602 113 q 345 -13 460 -13 q 170 50 242 -13 m 176 228 q 224 88 176 141 q 350 35 272 35 q 431 60 395 35 q 503 213 503 112 q 465 328 503 283 q 340 418 428 371 q 307 434 312 435 q 273 416 295 433 q 240 390 250 399 q 218 364 231 380 q 197 329 206 348 q 176 228 176 284 m 290 543 q 357 499 335 509 q 382 487 379 489 q 386 486 384 486 q 412 508 388 486 q 469 588 437 531 q 500 694 500 645 q 457 831 500 782 q 345 879 414 879 q 265 855 299 879 q 196 712 196 807 q 290 543 196 616 z "},"9":{"ha":694,"x_min":79,"x_max":633,"o":"m 190 72 q 163 87 190 72 q 107 158 136 103 q 79 273 79 213 q 93 378 79 334 q 131 454 106 422 q 190 510 156 487 q 351 557 258 557 q 551 473 472 557 q 633 225 633 385 q 605 66 633 141 q 532 -61 577 -9 q 431 -157 487 -114 q 320 -228 375 -201 q 216 -273 266 -255 q 99 -307 127 -307 q 88 -291 93 -307 q 83 -267 83 -276 q 101 -258 83 -264 q 150 -240 119 -252 q 218 -213 180 -229 q 298 -170 256 -196 q 378 -109 339 -143 q 506 79 466 -34 q 508 94 510 93 q 483 80 505 94 q 415 54 461 67 q 307 40 369 40 q 190 72 244 40 m 189 379 q 178 304 178 342 q 185 237 178 266 q 207 181 192 207 q 242 134 222 154 q 354 92 287 92 q 464 111 420 92 q 525 161 508 131 q 533 229 533 179 q 527 317 533 279 q 507 389 521 354 q 472 450 493 424 q 356 507 428 507 q 189 379 226 507 z "}," ":{"ha":278,"x_min":0,"x_max":0,"o":""},"!":{"ha":362,"x_min":107,"x_max":256,"o":"m 186 -15 q 175 -15 186 -15 q 135 9 164 -15 q 107 51 107 33 q 118 88 107 68 q 144 124 129 109 q 173 139 160 139 q 205 130 186 139 q 240 104 224 121 q 256 63 256 87 q 232 12 256 39 q 186 -15 209 -15 m 157 253 l 131 900 q 146 930 131 922 q 190 939 162 939 q 228 932 217 939 q 239 913 239 926 q 234 818 239 901 q 203 253 215 539 q 180 235 203 235 q 157 253 157 235 z "},"\"":{"ha":362,"x_min":38,"x_max":325,"o":"m 218 710 q 224 814 218 726 q 232 919 230 902 q 280 960 237 960 q 313 949 302 960 q 325 926 325 938 q 320 893 325 913 q 291 795 315 873 q 266 714 267 716 q 264 706 266 712 q 261 698 262 700 q 259 693 260 696 q 254 689 257 690 q 239 686 246 686 q 218 710 218 686 m 38 710 q 44 814 38 726 q 52 919 50 902 q 100 960 57 960 q 133 949 121 960 q 144 926 144 938 q 140 893 144 913 q 111 795 135 873 q 86 714 86 716 q 83 706 85 712 q 81 698 81 700 q 78 693 80 696 q 74 689 76 690 q 58 686 66 686 q 38 710 38 686 z "},"#":{"ha":614,"x_min":38,"x_max":576,"o":"m 38 475 q 52 494 38 494 l 183 494 q 197 496 195 494 q 208 562 199 498 q 223 673 217 625 q 237 738 231 733 q 258 743 243 743 q 277 743 273 743 q 286 741 280 742 q 296 729 296 737 q 289 677 296 720 q 273 578 282 635 q 263 510 264 522 q 262 497 261 499 q 271 494 263 494 q 362 494 330 494 q 396 495 395 494 q 398 501 397 496 q 415 614 398 505 q 433 728 432 723 q 436 735 435 734 q 454 743 440 743 q 472 743 467 743 q 483 741 477 742 q 494 729 494 738 q 488 674 494 720 q 473 575 481 629 q 463 509 465 520 q 462 496 461 498 q 469 494 463 494 l 551 494 q 571 489 566 494 q 576 471 576 484 q 573 452 576 457 q 554 445 568 445 l 464 445 q 452 443 454 445 q 449 432 450 441 l 425 275 q 425 264 423 267 q 435 262 426 262 l 557 262 q 573 257 569 262 q 576 236 576 251 q 572 216 576 220 q 553 211 567 211 l 426 211 q 418 210 419 211 q 415 201 416 208 l 388 3 q 376 -15 385 -12 q 351 -18 367 -18 q 329 -15 335 -18 q 323 -2 323 -13 q 339 108 323 9 q 353 209 354 208 q 345 211 352 211 l 228 211 q 218 210 220 211 q 202 103 216 208 q 185 -6 188 -1 q 181 -12 183 -10 q 155 -18 176 -18 q 128 -13 135 -18 q 122 0 122 -8 q 128 48 122 8 q 142 136 134 87 q 151 196 149 184 q 150 210 152 208 q 139 211 149 211 l 58 211 q 41 217 45 211 q 38 235 38 223 l 38 240 q 57 262 38 262 l 153 262 q 162 264 160 262 q 163 265 163 265 q 164 267 164 266 q 164 269 164 269 q 165 273 164 270 q 174 346 165 275 q 184 429 183 418 q 185 442 186 440 q 176 445 183 445 l 52 445 q 38 467 38 445 l 38 475 m 242 381 q 239 365 242 381 q 231 316 237 348 q 225 276 226 283 q 225 267 224 268 q 236 265 226 265 l 350 265 q 361 267 359 265 q 375 346 363 268 q 388 433 386 423 q 388 445 390 442 q 378 447 387 447 l 265 447 q 253 445 256 447 q 249 429 251 444 q 242 381 247 414 z "},"$":{"ha":694,"x_min":76,"x_max":618,"o":"m 368 507 l 370 487 q 371 485 370 486 q 374 483 373 484 q 377 481 374 483 q 392 474 380 480 q 419 462 405 469 q 455 444 433 455 q 492 423 477 432 q 525 401 506 414 q 556 375 544 387 q 581 346 568 362 q 601 313 594 330 q 618 235 618 274 q 556 69 618 133 q 383 -5 495 5 q 371 -9 373 -6 q 368 -18 368 -11 l 368 -194 q 365 -208 368 -205 q 348 -210 362 -210 q 330 -207 333 -210 q 328 -193 328 -205 l 328 -18 q 326 -8 328 -11 q 314 -5 323 -6 q 197 19 253 -1 q 109 70 141 40 q 76 128 76 99 q 95 149 76 141 q 126 157 114 157 q 146 151 139 157 q 164 128 153 144 q 192 92 176 112 q 240 54 209 72 q 296 34 271 36 q 323 33 320 32 q 328 43 328 34 l 328 375 q 325 395 328 390 q 304 408 323 399 q 264 426 285 416 q 219 451 244 437 q 175 481 194 466 q 139 515 157 495 q 109 556 120 535 q 82 653 82 603 q 101 742 82 703 q 151 808 119 780 q 315 875 218 865 q 328 880 328 875 l 328 886 l 328 942 q 331 950 328 948 q 342 951 334 951 l 354 951 q 368 942 368 951 l 368 885 q 375 877 368 877 q 530 821 470 870 q 585 739 585 777 q 574 717 585 727 q 538 697 552 697 q 519 702 524 697 q 510 713 513 706 q 505 731 507 721 q 498 751 502 740 q 490 774 495 763 q 476 796 485 785 q 455 815 467 807 q 372 841 424 838 q 368 837 368 841 l 368 507 m 204 782 q 196 773 204 782 q 177 735 188 763 q 167 676 167 706 q 176 623 167 646 q 198 584 184 601 q 232 553 211 568 q 293 516 264 529 q 325 504 322 504 q 328 512 328 505 l 328 830 q 327 839 328 837 q 314 840 326 840 q 282 833 302 839 q 241 813 262 827 q 204 782 220 800 m 368 52 q 370 36 368 39 q 382 35 373 33 q 488 98 446 48 q 531 204 531 148 q 426 353 531 296 q 374 379 379 379 q 368 370 368 379 l 368 52 z "},"%":{"ha":912,"x_min":65,"x_max":847,"o":"m 494 678 l 460 680 q 456 680 458 680 q 453 679 453 680 q 451 678 452 679 q 450 676 450 678 q 450 674 450 674 q 450 669 450 673 q 450 664 450 666 l 450 645 q 447 591 450 621 q 423 512 445 561 q 369 426 401 464 q 294 366 336 389 q 207 343 251 343 q 130 365 163 343 q 65 503 65 408 q 89 604 65 555 q 135 682 112 653 q 184 735 158 712 q 315 786 243 786 q 410 748 372 786 q 487 710 449 710 q 621 749 555 710 q 701 813 663 775 q 751 864 746 858 q 772 882 767 882 q 787 875 776 882 q 799 862 799 867 q 760 799 799 857 q 188 -52 219 -3 q 155 -61 182 -61 q 128 -46 128 -61 q 241 122 128 -40 q 642 714 650 706 q 632 711 640 715 q 494 678 562 678 m 401 640 q 333 733 401 733 q 270 709 304 733 q 208 647 236 685 q 161 561 180 610 q 142 476 142 512 q 149 420 142 441 q 213 372 165 372 q 317 424 268 372 q 401 640 401 511 m 528 5 q 511 16 528 5 q 479 63 495 27 q 463 140 463 99 q 476 222 463 181 q 514 300 489 263 q 570 366 538 336 q 708 429 638 429 q 813 387 778 429 q 847 273 847 345 q 813 134 847 202 q 722 25 778 66 q 613 -17 665 -17 q 528 5 561 -17 m 729 375 q 605 288 669 375 q 539 108 539 199 q 556 41 539 67 q 608 14 573 14 q 676 35 642 14 q 737 91 710 56 q 799 273 799 171 q 729 375 799 375 z "},"&":{"ha":912,"x_min":52,"x_max":882,"o":"m 761 503 l 864 507 q 879 501 875 507 q 882 480 882 496 q 878 460 882 464 q 858 457 873 457 l 811 457 q 791 441 802 457 q 762 399 780 425 q 728 350 744 373 q 694 300 711 326 q 654 238 654 243 q 681 197 653 233 q 737 114 710 161 q 767 61 763 66 q 782 50 771 56 q 831 42 798 42 q 865 39 863 42 q 867 19 867 36 q 863 -1 867 3 q 824 -4 860 -4 q 736 -11 789 -5 q 676 -18 683 -18 q 655 -1 661 -18 q 590 133 637 67 q 580 144 583 144 q 568 135 576 144 q 304 -18 429 -18 q 120 48 189 -18 q 52 215 52 113 q 142 405 52 312 q 212 466 181 445 q 242 489 242 488 q 239 494 242 491 q 232 501 237 496 q 222 511 227 506 q 143 675 143 601 q 212 833 143 769 q 374 896 280 896 q 528 845 472 896 q 567 753 567 809 q 392 528 567 646 q 376 514 377 518 q 383 505 376 510 q 405 486 390 499 q 447 449 421 473 q 506 392 474 424 q 585 309 550 347 q 622 272 620 272 q 632 286 625 272 q 657 330 639 299 q 686 380 675 361 q 717 454 717 435 q 694 457 717 457 l 607 457 q 591 461 594 457 q 589 481 589 465 q 593 502 589 497 q 607 507 597 507 l 761 503 m 169 359 q 164 351 169 359 q 152 320 159 342 q 146 259 146 298 q 175 175 146 221 q 251 103 204 129 q 349 76 298 76 q 546 168 454 76 q 553 179 553 177 q 552 182 553 180 q 548 188 551 184 q 526 220 545 192 q 435 319 506 248 q 332 418 365 391 q 297 447 299 445 q 292 450 294 449 q 289 453 291 452 q 285 456 287 455 q 283 457 284 456 q 277 458 279 458 q 252 443 274 458 q 219 418 231 428 q 193 391 207 408 q 169 359 178 375 m 311 574 q 339 550 333 550 q 355 557 345 550 q 375 571 366 565 q 399 593 384 578 q 429 629 414 608 q 464 725 464 674 q 434 811 464 777 q 361 846 404 846 q 292 827 319 846 q 242 724 242 793 q 311 574 242 656 z "},"'":{"ha":182,"x_min":38,"x_max":144,"o":"m 38 710 q 44 814 38 726 q 52 919 50 902 q 100 960 57 960 q 133 949 121 960 q 144 926 144 938 q 140 893 144 913 q 111 795 135 873 q 86 714 86 716 q 83 706 85 712 q 81 698 81 700 q 78 693 80 696 q 74 689 76 690 q 58 686 66 686 q 38 710 38 686 z "},"(":{"ha":387,"x_min":52,"x_max":336,"o":"m 331 -175 q 304 -199 331 -199 q 196 -65 282 -199 q 64 262 98 88 q 52 392 52 330 q 60 511 52 454 q 83 614 69 568 q 117 704 98 661 q 156 782 136 748 q 199 845 177 816 q 239 896 220 875 q 274 931 258 917 q 312 961 304 961 q 327 954 319 961 q 336 942 336 948 q 329 929 336 937 q 311 907 322 921 q 285 874 300 893 q 254 828 270 854 q 221 771 237 802 q 190 700 205 740 q 164 617 175 660 q 139 433 139 523 q 147 276 139 342 q 169 159 156 210 q 200 61 182 107 q 235 -19 217 15 q 270 -81 253 -52 q 300 -127 287 -110 q 331 -175 331 -168 z "},")":{"ha":387,"x_min":52,"x_max":336,"o":"m 57 938 q 83 961 57 961 q 191 828 106 961 q 323 500 290 674 q 336 370 336 432 q 327 251 336 308 q 304 148 319 194 q 271 58 290 101 q 231 -19 252 15 q 189 -83 210 -54 q 148 -133 168 -113 q 114 -169 129 -154 q 76 -199 83 -199 q 60 -192 68 -199 q 52 -180 52 -185 q 58 -166 52 -175 q 76 -144 65 -158 q 103 -111 88 -131 q 134 -65 117 -92 q 166 -8 150 -39 q 198 63 183 23 q 224 145 212 102 q 249 335 249 239 q 238 504 249 430 q 211 634 228 579 q 173 738 194 689 q 132 819 153 786 q 95 878 112 853 q 67 918 78 903 q 57 938 57 933 z "},"*":{"ha":543,"x_min":38,"x_max":506,"o":"m 83 579 q 73 579 83 579 q 51 590 64 579 q 38 619 38 602 q 72 668 38 654 q 142 694 88 675 q 213 720 197 713 q 233 730 229 726 q 235 736 237 733 q 226 745 233 740 q 213 754 218 750 q 158 789 208 758 q 91 839 107 821 q 75 876 75 857 q 86 907 75 895 q 114 920 97 920 q 159 903 144 920 q 190 862 174 886 q 223 808 205 839 q 246 770 242 777 q 252 761 250 764 q 255 755 255 757 q 258 753 256 754 q 259 751 259 752 q 260 752 259 751 q 262 754 262 754 q 264 759 262 755 q 269 771 266 763 q 283 812 272 778 q 322 910 312 895 q 367 942 343 942 q 402 928 390 942 q 414 897 414 914 q 401 861 414 880 q 345 804 388 842 q 296 760 302 767 q 287 751 290 754 q 284 747 285 748 q 281 744 282 746 q 279 741 279 742 q 278 739 279 740 q 279 737 278 737 q 281 735 280 736 q 286 734 283 734 q 372 730 299 731 q 463 722 445 728 q 506 675 506 708 q 491 643 506 654 q 460 631 477 631 q 417 642 443 631 q 352 674 390 654 q 305 698 314 694 q 290 705 295 703 q 284 708 286 707 q 280 709 282 709 q 277 709 278 710 q 277 706 277 708 q 290 652 276 697 q 319 543 319 563 q 315 511 319 523 q 277 479 305 479 q 237 497 250 479 q 223 532 223 515 q 228 573 223 548 q 238 628 232 597 q 247 674 245 659 q 250 699 250 689 q 246 708 250 708 q 231 697 241 708 q 178 643 220 687 q 119 589 136 599 q 83 579 101 579 z "},"+":{"ha":732,"x_min":39,"x_max":693,"o":"m 67 257 q 44 265 48 257 q 39 288 39 274 q 40 307 39 302 q 43 317 40 312 q 68 327 48 327 l 304 327 q 326 331 321 327 q 331 349 331 336 l 331 593 q 339 614 331 609 q 360 618 347 618 q 378 617 373 618 q 390 614 384 616 q 401 586 401 608 l 401 360 q 408 330 401 334 q 421 327 414 327 l 667 327 q 688 319 684 327 q 693 292 693 311 q 687 265 693 273 q 660 257 682 257 l 421 257 q 401 248 402 257 q 401 241 401 245 l 401 -7 q 394 -30 401 -26 q 365 -35 383 -35 q 339 -30 347 -35 q 331 -5 331 -25 l 331 236 q 326 254 331 251 q 312 257 322 257 l 67 257 z "},",":{"ha":282,"x_min":52,"x_max":231,"o":"m 74 -221 q 68 -221 74 -221 q 57 -211 62 -221 q 52 -196 52 -202 q 62 -180 52 -190 q 86 -156 72 -170 q 114 -125 100 -142 q 149 -47 149 -85 q 116 12 149 -14 q 90 33 103 23 q 57 67 57 55 q 73 93 57 79 q 105 117 89 108 q 131 126 122 126 q 165 112 141 126 q 210 75 190 97 q 231 27 231 53 q 216 -37 231 1 q 179 -107 201 -76 q 134 -165 157 -139 q 74 -221 85 -221 z "},"-":{"ha":358,"x_min":29,"x_max":321,"o":"m 307 282 q 172 276 291 281 q 41 271 53 271 q 29 280 29 271 q 38 313 29 289 q 56 339 47 338 q 186 344 65 340 q 314 349 307 349 q 321 334 321 349 q 317 301 321 320 q 307 282 313 283 z "},".":{"ha":307,"x_min":79,"x_max":228,"o":"m 158 -15 q 147 -15 158 -15 q 107 9 136 -15 q 79 55 79 34 q 102 108 79 76 q 142 139 125 139 q 178 130 158 139 q 212 104 197 121 q 228 71 228 87 q 221 38 228 54 q 203 10 213 22 q 158 -15 180 -15 z "},"/":{"ha":564,"x_min":7,"x_max":555,"o":"m 7 -311 q 36 -225 7 -299 l 476 956 q 499 981 484 980 q 531 982 506 982 q 555 967 555 982 q 535 900 555 950 l 99 -282 q 83 -319 88 -312 q 42 -328 77 -328 q 7 -311 7 -328 z "},":":{"ha":307,"x_min":79,"x_max":228,"o":"m 158 367 q 147 367 158 367 q 107 391 136 367 q 79 437 79 415 q 102 489 79 458 q 142 521 125 521 q 178 512 158 521 q 212 486 197 503 q 228 453 228 469 q 221 420 228 436 q 203 392 213 404 q 158 367 180 367 m 158 -15 q 147 -15 158 -15 q 107 9 136 -15 q 79 55 79 34 q 102 108 79 76 q 142 139 125 139 q 178 130 158 139 q 212 104 197 121 q 228 71 228 87 q 221 38 228 54 q 203 10 213 22 q 158 -15 180 -15 z "},";":{"ha":310,"x_min":65,"x_max":244,"o":"m 167 367 q 109 391 138 367 q 81 437 81 415 q 104 490 81 458 q 143 521 127 521 q 179 512 160 521 q 214 486 198 503 q 229 450 229 469 q 217 410 229 430 q 190 378 205 389 q 167 367 176 367 m 88 -221 q 82 -221 88 -221 q 71 -211 76 -221 q 65 -196 65 -202 q 75 -180 65 -190 q 100 -156 85 -170 q 128 -125 114 -142 q 162 -47 162 -85 q 130 12 162 -14 q 103 33 117 23 q 71 67 71 55 q 87 93 71 79 q 119 117 103 108 q 145 126 136 126 q 179 112 155 126 q 224 75 203 97 q 244 27 244 53 q 230 -37 244 1 q 193 -107 215 -76 q 148 -165 171 -139 q 88 -221 99 -221 z "},"<":{"ha":732,"x_min":53,"x_max":681,"o":"m 650 533 q 681 494 681 533 q 655 468 681 477 l 218 314 q 162 289 171 297 q 188 278 166 285 q 218 268 211 271 l 663 113 q 681 93 681 107 q 671 65 681 78 q 650 53 662 53 q 616 60 637 53 q 431 127 595 67 q 75 257 266 188 q 57 269 61 262 q 53 289 53 277 q 54 306 53 301 q 76 325 57 317 q 490 476 356 427 q 650 533 644 533 z "},"=":{"ha":732,"x_min":39,"x_max":693,"o":"m 43 157 q 42 161 43 157 q 40 170 40 165 q 39 185 39 175 q 40 199 39 194 q 43 210 40 204 q 68 219 48 219 l 667 219 q 688 211 684 219 q 693 184 693 203 q 687 157 693 165 q 660 149 682 149 l 67 149 q 43 157 46 149 m 39 389 q 39 402 39 393 q 40 415 39 411 q 43 425 40 420 q 68 435 48 435 l 667 435 q 688 427 684 435 q 693 400 693 419 q 687 373 693 381 q 660 365 682 365 l 67 365 q 39 389 40 365 z "},">":{"ha":732,"x_min":53,"x_max":681,"o":"m 70 113 l 515 268 q 571 289 568 286 q 515 314 564 296 l 76 468 q 53 494 53 476 q 82 533 53 533 q 230 481 88 533 q 655 325 372 428 q 676 312 671 319 q 681 291 681 306 q 676 270 681 277 q 657 257 671 262 q 301 127 466 188 q 86 53 96 53 q 67 60 76 53 q 53 90 53 72 q 70 113 53 108 z "},"?":{"ha":505,"x_min":79,"x_max":468,"o":"m 79 903 q 96 930 79 930 q 117 905 109 930 q 122 896 120 896 q 255 865 206 882 q 468 582 468 793 q 412 386 468 447 q 275 336 365 336 q 251 333 256 336 q 238 254 242 329 q 230 177 233 179 q 210 175 226 175 q 190 178 194 175 q 186 202 186 182 q 188 407 186 380 q 198 438 190 433 q 228 443 207 443 l 311 443 q 427 540 420 443 q 428 579 428 549 q 409 650 428 609 q 353 725 390 691 q 106 817 273 796 q 85 822 88 819 q 79 840 79 830 l 79 903 m 206 -15 q 196 -15 206 -15 q 158 9 186 -15 q 129 51 129 34 q 140 88 129 68 q 166 124 151 109 q 195 139 182 139 q 227 130 208 139 q 262 104 247 121 q 278 68 278 87 q 266 28 278 49 q 239 -4 254 8 q 206 -15 225 -15 z "},"@":{"ha":1104,"x_min":65,"x_max":1039,"o":"m 521 158 q 364 74 436 74 q 316 92 336 74 q 279 193 279 125 q 379 408 279 278 q 558 541 458 509 q 617 553 594 553 q 649 551 639 553 q 666 547 660 549 q 675 545 673 545 q 689 562 676 546 q 710 583 702 578 q 732 588 718 588 q 771 565 771 588 q 767 545 771 555 q 667 317 721 446 q 614 160 614 189 q 617 129 614 133 q 637 121 625 121 q 765 155 695 121 q 887 241 835 189 q 989 468 989 343 q 855 727 989 650 q 654 773 774 773 q 391 705 514 773 q 196 522 270 639 q 121 251 121 400 q 152 100 121 169 q 234 -16 182 31 q 494 -113 343 -113 q 832 -10 685 -113 q 906 49 876 21 q 945 78 936 78 q 961 67 953 78 q 968 50 968 56 q 960 35 968 43 q 750 -110 873 -60 q 490 -161 628 -161 q 283 -113 380 -161 q 127 29 187 -65 q 65 260 65 126 q 249 660 65 491 q 506 802 360 762 q 645 821 578 821 q 767 810 712 821 q 873 773 822 799 q 960 708 923 747 q 1039 478 1039 623 q 918 204 1039 318 q 751 104 852 142 q 568 71 660 71 q 515 105 515 71 q 521 158 515 128 m 421 352 q 412 335 421 352 q 392 279 403 318 q 380 210 380 240 q 396 162 380 180 q 435 144 411 144 q 490 176 460 144 q 544 254 519 208 q 590 350 569 300 q 623 437 611 399 q 635 486 635 474 q 622 507 635 498 q 594 515 610 515 q 556 503 578 515 q 510 468 533 490 q 463 416 486 447 q 421 352 440 385 z "},"A":{"ha":969,"x_min":38,"x_max":946,"o":"m 162 -4 l 57 -8 q 40 -4 43 -8 q 38 18 38 1 q 42 38 38 35 q 62 42 45 42 l 104 42 q 288 460 117 42 q 304 498 303 495 l 451 840 q 475 877 457 854 q 504 923 494 900 q 532 958 520 958 q 549 946 546 958 l 715 478 q 882 42 872 42 l 930 42 q 943 37 940 42 q 946 18 946 33 q 943 -3 946 3 q 930 -8 940 -8 l 801 -4 l 642 -8 q 626 -3 629 -8 q 624 19 624 2 q 627 38 624 35 q 647 42 631 42 l 724 42 q 725 52 725 42 q 690 169 725 61 q 639 324 655 277 q 620 375 623 371 q 607 378 617 378 l 327 378 q 307 374 312 378 q 297 356 303 370 q 185 43 186 75 l 186 42 l 293 42 q 307 37 304 42 q 310 22 310 33 q 309 8 310 12 q 309 1 309 5 q 306 -5 308 -3 q 293 -8 302 -8 l 162 -4 m 592 419 q 604 424 604 419 q 600 439 604 428 l 485 777 q 477 793 480 793 q 468 777 474 793 l 332 443 q 325 423 325 426 q 343 419 325 419 l 592 419 z "},"B":{"ha":822,"x_min":52,"x_max":764,"o":"m 237 -4 l 89 -8 q 71 -3 75 -8 q 67 18 67 2 q 72 38 67 35 q 96 42 78 42 l 168 42 q 172 96 172 42 l 172 545 q 169 770 172 664 q 161 877 165 877 l 76 873 q 57 879 63 873 q 52 901 52 884 q 56 922 52 918 q 76 926 61 926 l 240 924 l 411 928 q 680 836 600 928 q 724 700 724 785 q 517 480 724 557 q 506 475 506 476 q 520 472 506 474 q 551 466 535 470 q 594 455 567 463 q 642 436 621 447 q 687 407 664 425 q 727 365 711 388 q 764 235 764 312 q 371 -7 764 -7 l 237 -4 m 306 449 q 294 437 294 449 q 304 42 294 42 l 388 42 q 633 244 633 42 q 606 367 633 320 q 526 431 578 413 q 353 449 474 449 l 306 449 m 392 488 l 437 486 q 538 532 487 486 q 598 678 598 586 q 567 792 598 744 q 357 890 504 890 q 300 885 312 890 q 294 564 294 881 l 294 497 q 297 489 294 491 q 313 488 299 488 l 392 488 z "},"C":{"ha":1015,"x_min":58,"x_max":929,"o":"m 893 308 l 908 307 q 929 292 929 305 q 907 100 929 271 q 874 67 905 88 q 794 25 842 46 q 550 -26 675 -26 q 309 26 420 -26 q 129 188 197 78 q 58 465 58 300 q 260 863 58 725 q 558 949 386 949 q 835 857 708 949 q 852 845 848 848 q 859 841 855 842 q 864 841 862 839 q 865 849 865 843 l 865 886 q 870 904 865 899 q 891 908 874 908 q 915 904 907 908 q 922 886 922 900 l 917 611 q 911 595 917 598 q 889 592 906 592 q 865 595 871 592 q 860 610 860 599 l 865 738 q 821 789 865 753 q 740 846 777 824 q 549 899 651 899 q 271 724 371 899 q 208 463 208 614 q 238 298 208 376 q 319 162 268 219 q 441 70 370 104 q 572 36 511 36 q 676 44 633 36 q 750 64 719 52 q 806 89 781 76 q 856 126 854 115 l 873 288 q 893 308 877 308 z "},"D":{"ha":1053,"x_min":44,"x_max":995,"o":"m 240 -4 l 64 -10 q 48 -5 51 -10 q 44 15 44 0 q 51 35 44 30 q 72 39 57 39 l 161 39 q 172 344 166 39 q 178 768 178 650 q 175 886 178 886 l 79 883 q 64 887 68 883 q 60 904 60 890 q 63 924 60 918 q 79 930 66 930 l 178 929 q 337 937 235 929 q 495 946 439 946 q 632 925 551 946 q 779 863 713 904 q 893 764 845 822 q 995 465 995 644 q 880 146 995 274 q 606 0 777 31 q 497 -10 553 -10 l 240 -4 m 310 893 q 300 465 300 889 q 301 39 300 40 q 393 35 312 35 q 549 54 473 35 q 674 101 626 73 q 756 174 722 130 q 808 255 791 218 q 834 342 825 292 q 846 470 846 408 q 832 582 846 532 q 795 679 819 632 q 734 766 771 725 q 652 837 697 806 q 432 901 556 901 q 310 893 345 901 z "},"E":{"ha":840,"x_min":52,"x_max":796,"o":"m 243 -4 l 74 -8 q 55 -3 59 -8 q 52 18 52 2 q 57 38 52 34 q 79 42 62 42 l 164 42 q 170 142 170 42 l 170 275 l 164 683 q 159 829 164 779 q 151 879 154 879 l 86 879 q 67 883 72 879 q 62 908 62 887 q 81 928 62 928 l 142 926 q 232 924 203 924 l 582 928 q 659 930 652 928 q 666 939 666 932 q 667 945 667 941 q 669 952 668 949 q 671 958 669 954 q 690 963 675 963 q 711 959 705 963 q 717 943 717 956 l 711 760 q 706 747 711 750 q 685 744 700 744 q 660 765 660 744 l 664 872 q 531 879 664 876 q 293 882 399 882 q 285 766 285 882 q 286 574 285 650 q 289 496 288 498 q 300 493 291 493 l 532 493 q 604 511 604 493 l 604 583 q 630 597 604 597 q 655 585 655 597 l 653 474 l 655 356 q 630 343 655 343 q 604 357 604 343 l 604 426 q 532 447 604 447 q 355 447 414 447 q 294 447 296 447 q 291 446 292 447 q 290 444 291 446 q 288 441 289 443 q 288 437 288 439 q 292 243 288 434 q 303 52 296 52 l 728 56 q 736 60 735 56 q 740 83 738 64 q 744 207 742 102 q 770 219 744 219 q 796 205 796 219 l 792 11 q 764 -8 792 -8 l 243 -4 z "},"F":{"ha":764,"x_min":52,"x_max":720,"o":"m 158 275 l 153 683 q 148 829 153 779 q 140 879 143 879 l 79 879 q 54 887 57 879 q 52 904 52 896 q 70 928 52 928 l 131 926 q 221 924 192 924 l 581 928 q 658 929 647 928 q 670 943 669 930 q 676 959 671 956 q 694 963 681 963 q 713 959 707 963 q 720 943 720 955 l 714 760 q 708 747 714 750 q 688 744 703 744 q 663 765 663 744 l 667 873 q 282 882 607 882 q 274 728 274 882 q 275 535 274 575 q 278 494 276 495 q 294 493 279 493 l 535 493 q 607 511 607 493 l 607 585 q 635 597 607 597 q 656 594 654 597 q 659 586 659 590 l 655 474 l 659 340 q 633 329 659 329 q 607 342 607 329 l 607 426 q 583 445 607 443 q 535 447 560 447 l 294 447 q 278 445 280 447 q 277 399 276 443 q 279 251 278 356 q 285 42 281 42 l 397 42 q 413 37 409 42 q 417 18 417 32 q 413 -3 417 3 q 397 -8 409 -8 l 231 -4 l 85 -8 q 67 -3 71 -8 q 64 18 64 2 q 69 38 64 35 q 93 42 75 42 l 151 42 q 158 142 158 42 l 158 275 z "},"G":{"ha":1061,"x_min":58,"x_max":1010,"o":"m 938 225 l 936 101 q 854 42 936 80 q 550 -29 699 -29 q 266 45 386 -29 q 85 281 135 127 q 58 460 58 364 q 84 634 58 556 q 156 768 110 711 q 266 865 202 825 q 567 944 392 944 q 849 861 729 944 q 865 863 865 848 l 865 897 q 870 915 865 910 q 891 920 874 920 q 914 915 907 920 q 921 897 921 911 l 917 640 q 911 623 917 627 q 888 620 906 620 q 865 623 871 620 q 860 637 860 627 l 865 751 q 805 816 865 768 q 561 899 701 899 q 422 865 488 899 q 310 775 357 832 q 236 636 263 717 q 208 474 208 555 q 226 327 208 393 q 278 206 244 261 q 359 109 313 151 q 589 21 457 21 q 777 64 706 21 q 811 95 810 84 q 815 216 815 130 q 806 301 815 301 l 685 301 q 669 326 669 301 q 683 351 669 351 l 869 347 l 995 351 q 1010 326 1010 351 q 995 301 1010 301 l 951 301 q 940 285 943 301 q 938 225 938 268 z "},"H":{"ha":1098,"x_min":52,"x_max":1047,"o":"m 237 -4 l 71 -8 q 54 -4 57 -8 q 52 18 52 1 q 55 38 52 35 q 76 42 59 42 l 157 42 q 165 396 165 42 l 165 537 q 158 883 165 883 l 97 883 q 76 888 82 883 q 70 908 70 892 q 76 929 70 925 q 97 933 82 933 l 227 929 l 376 933 q 394 928 390 933 q 397 906 397 923 q 393 887 397 890 q 371 883 388 883 l 294 883 q 288 701 288 883 l 289 518 q 291 500 289 503 q 306 497 293 497 l 812 497 q 827 499 825 497 q 829 514 829 502 l 829 683 q 826 818 829 753 q 818 883 822 883 l 739 883 q 720 888 725 883 q 715 909 715 892 q 719 929 715 925 q 738 933 723 933 l 886 929 l 1021 933 q 1038 928 1035 933 q 1042 906 1042 923 q 1037 887 1042 890 q 1015 883 1033 883 l 954 883 q 950 463 950 883 q 956 42 950 42 l 1029 42 q 1044 37 1041 42 q 1047 18 1047 33 q 1044 -3 1047 3 q 1029 -8 1041 -8 l 897 -4 l 740 -8 q 723 -3 726 -8 q 720 18 720 2 q 724 38 720 35 q 746 42 729 42 l 822 42 q 829 267 829 42 l 829 439 q 828 453 829 451 q 821 455 826 455 l 301 455 q 290 453 292 455 q 289 436 289 451 q 301 42 289 42 l 393 42 q 407 37 405 42 q 410 22 410 33 q 409 8 410 12 q 409 1 409 5 q 406 -5 408 -3 q 393 -8 402 -8 l 237 -4 z "},"I":{"ha":462,"x_min":38,"x_max":425,"o":"m 239 -4 l 61 -8 q 42 -3 46 -8 q 38 19 38 3 q 43 38 38 35 q 67 42 49 42 l 158 42 q 171 547 171 42 l 171 683 q 166 832 171 781 q 160 883 162 883 l 68 883 q 48 888 54 883 q 43 908 43 892 q 48 929 43 925 q 68 933 53 933 l 242 929 q 406 933 242 929 q 421 928 418 933 q 425 906 425 922 q 421 887 425 890 q 400 883 417 883 l 310 883 q 297 668 297 883 l 297 480 q 310 42 297 42 l 406 42 q 421 37 417 42 q 425 18 425 32 q 421 -3 425 3 q 406 -8 417 -8 l 239 -4 z "},"J":{"ha":462,"x_min":-46,"x_max":411,"o":"m 246 929 l 390 933 q 408 928 404 933 q 411 906 411 923 q 407 887 411 890 q 385 883 402 883 l 314 883 q 307 514 307 883 l 307 180 q 276 -56 307 37 q 186 -208 247 -143 q 112 -275 136 -262 q 36 -299 68 -299 q -21 -289 4 -299 q -46 -261 -46 -278 q -32 -224 -46 -243 q -1 -195 -19 -206 q 51 -168 38 -168 q 87 -183 64 -168 q 123 -197 111 -197 q 144 -192 135 -197 q 158 -175 152 -187 q 167 -148 163 -162 q 172 -110 171 -134 q 175 -7 175 -72 l 175 683 q 162 883 175 883 l 71 883 q 50 888 56 883 q 43 908 43 892 q 49 929 43 925 q 71 933 55 933 l 246 929 z "},"K":{"ha":903,"x_min":52,"x_max":907,"o":"m 235 -4 l 72 -8 q 55 -3 58 -8 q 52 18 52 2 q 57 38 52 35 q 81 42 63 42 l 154 42 q 164 274 164 42 l 164 676 q 156 877 164 877 l 92 877 q 67 885 70 877 q 64 905 64 893 q 70 922 64 918 q 92 926 76 926 l 237 922 l 388 926 q 405 921 401 926 q 408 899 408 916 q 404 880 408 883 q 382 877 399 877 l 306 877 q 294 801 299 877 q 289 661 289 725 l 289 488 q 291 468 289 472 q 303 464 293 464 l 333 464 q 557 732 356 464 q 649 855 641 845 q 643 877 666 877 l 588 877 q 563 885 566 877 q 560 905 560 893 q 566 922 560 918 q 588 926 572 926 l 710 922 l 825 926 q 842 921 839 926 q 844 900 844 916 q 840 880 844 883 q 820 877 837 877 l 753 877 q 603 703 747 877 q 450 520 458 530 q 442 509 442 511 q 447 503 442 508 q 454 494 451 498 l 828 64 q 868 42 848 42 l 890 42 q 905 37 902 42 q 907 22 907 33 q 907 8 907 12 q 906 1 907 5 q 903 -5 905 -3 q 890 -8 899 -8 l 749 -4 l 606 -8 q 589 -4 592 -8 q 586 18 586 1 q 591 38 586 34 q 611 42 596 42 l 657 42 q 670 49 674 42 q 661 60 667 54 l 360 417 q 351 425 354 424 q 332 426 347 426 l 306 426 q 291 424 293 426 q 289 411 289 422 q 301 42 289 42 l 401 42 q 417 37 413 42 q 421 17 421 32 q 418 -3 421 3 q 403 -8 415 -8 l 235 -4 z "},"L":{"ha":822,"x_min":52,"x_max":812,"o":"m 243 -4 l 74 -8 q 55 -3 59 -8 q 52 18 52 2 q 57 38 52 34 q 79 42 62 42 l 162 42 q 174 443 174 42 l 174 764 q 167 883 174 883 l 85 883 q 66 888 70 883 q 61 909 61 893 q 66 929 61 925 q 89 933 72 933 l 246 929 q 413 933 246 929 q 434 929 430 933 q 437 909 437 925 q 433 889 437 894 q 411 883 428 883 l 314 883 q 303 589 303 883 l 303 204 q 311 47 303 47 q 576 51 444 47 q 724 56 714 55 q 738 60 735 57 q 744 83 742 64 l 761 203 q 777 216 763 218 q 797 213 790 215 q 812 199 812 210 q 799 110 812 193 q 784 13 785 27 q 775 -5 782 -1 q 749 -8 769 -8 l 243 -4 z "},"M":{"ha":1243,"x_min":44,"x_max":1205,"o":"m 182 -4 l 67 -8 q 48 -3 53 -8 q 44 19 44 3 q 50 38 44 35 q 74 42 56 42 l 131 42 q 137 101 134 42 q 142 219 139 160 q 155 542 145 278 q 165 842 165 806 q 161 881 165 879 q 139 883 158 883 l 70 883 q 58 888 60 883 q 56 907 56 892 q 58 928 56 923 q 70 933 60 933 l 223 929 l 311 933 q 327 930 322 933 q 337 912 332 926 l 629 185 q 638 168 635 171 q 643 168 641 165 q 651 186 646 173 l 924 895 q 938 923 932 918 q 960 929 944 929 l 1026 929 l 1168 933 q 1185 928 1182 933 q 1189 906 1189 923 q 1184 887 1189 890 q 1162 883 1180 883 l 1097 883 q 1090 777 1090 871 l 1090 651 q 1097 250 1090 457 q 1111 42 1103 42 l 1183 42 q 1201 37 1196 42 q 1205 18 1205 33 q 1202 -3 1205 3 q 1186 -8 1198 -8 l 1038 -4 l 889 -8 q 871 -3 874 -8 q 867 18 867 2 q 872 38 867 35 q 896 42 878 42 l 958 42 q 968 269 968 42 q 961 807 968 497 q 957 836 960 835 q 949 822 955 836 q 943 807 944 809 l 686 150 q 646 77 670 112 q 611 21 622 41 q 583 -14 594 -14 q 565 7 574 -14 q 562 14 563 11 q 555 28 557 23 l 232 826 q 218 854 221 854 q 213 825 215 854 q 201 282 201 522 q 208 42 201 42 l 304 42 q 320 37 316 42 q 323 18 323 32 q 320 -3 323 3 q 304 -8 316 -8 l 182 -4 z "},"N":{"ha":1131,"x_min":52,"x_max":1079,"o":"m 189 -4 l 72 -8 q 55 -3 58 -8 q 52 18 52 2 q 56 38 52 35 q 78 42 60 42 l 142 42 q 152 102 151 42 q 156 243 154 163 q 165 883 165 543 l 75 883 q 59 888 63 883 q 56 907 56 893 q 59 928 56 922 q 75 933 63 933 q 231 929 75 933 l 307 933 q 316 933 313 933 q 320 931 318 932 q 323 930 321 931 q 326 928 325 928 q 328 925 327 927 q 331 922 330 923 q 334 918 332 921 q 337 914 336 915 l 901 221 q 921 204 918 200 q 925 229 925 208 l 925 288 l 922 810 q 921 883 922 883 l 792 883 q 778 888 780 883 q 775 903 775 892 q 775 917 775 913 q 776 924 775 920 q 779 930 777 928 q 792 933 783 933 l 942 929 l 1060 933 q 1076 928 1074 933 q 1079 907 1079 923 q 1074 887 1079 890 q 1052 883 1069 883 l 989 883 q 983 797 983 883 q 978 515 983 711 q 970 163 974 319 q 965 5 965 8 q 947 -29 965 -29 q 930 -18 938 -29 q 920 -5 921 -7 q 229 833 236 825 q 219 840 222 842 q 215 655 215 838 l 214 179 q 219 42 214 42 l 339 42 q 353 37 350 42 q 356 20 356 33 q 355 2 356 7 q 339 -8 353 -8 l 189 -4 z "},"O":{"ha":1044,"x_min":58,"x_max":986,"o":"m 127 189 q 111 214 127 189 q 76 304 95 239 q 58 442 58 369 q 76 584 58 516 q 124 706 93 652 q 200 805 156 761 q 296 880 244 850 q 535 942 406 942 q 865 798 736 942 q 986 450 986 660 q 951 259 986 346 q 854 110 916 171 q 704 15 792 49 q 537 -19 616 -19 q 403 -6 458 -19 q 297 33 348 8 q 202 99 246 59 q 127 189 159 139 m 197 473 q 211 337 197 405 q 253 213 225 269 q 318 115 280 157 q 515 28 398 28 q 767 165 672 28 q 850 463 850 286 q 814 668 850 570 q 705 829 779 766 q 521 895 629 895 q 255 717 352 895 q 197 473 197 611 z "},"P":{"ha":783,"x_min":52,"x_max":760,"o":"m 237 -4 l 86 -8 q 69 -3 72 -8 q 65 18 65 2 q 71 38 65 35 q 95 42 77 42 l 161 42 q 174 659 174 42 l 174 730 q 168 877 174 877 l 76 873 q 56 879 61 873 q 52 901 52 884 q 56 922 52 918 q 76 926 61 926 l 240 924 l 422 930 q 696 834 605 930 q 760 654 760 765 q 627 437 760 499 q 424 399 546 399 l 303 403 q 294 401 296 403 q 293 392 293 399 l 293 300 q 299 42 293 42 l 397 42 q 413 37 409 42 q 417 18 417 32 q 413 -3 417 3 q 397 -8 409 -8 l 237 -4 m 294 451 q 343 437 294 437 q 434 445 392 437 q 513 470 475 453 q 576 515 550 488 q 632 675 632 573 q 594 788 632 740 q 343 886 516 886 q 300 885 313 886 q 294 814 294 883 l 294 451 z "},"Q":{"ha":1087,"x_min":58,"x_max":1060,"o":"m 244 -86 l 275 -87 q 347 -80 316 -87 q 525 -8 409 -64 q 535 -2 535 -4 q 500 4 535 0 q 417 22 466 9 q 321 56 368 35 q 235 104 274 77 q 163 169 196 131 q 107 251 130 206 q 58 472 58 345 q 205 821 58 688 q 419 928 292 899 q 564 942 480 942 q 737 906 647 942 q 891 809 827 871 q 992 660 955 748 q 1029 481 1029 573 q 1004 314 1029 389 q 933 180 979 239 q 688 15 839 59 q 543 -42 632 -1 q 452 -84 454 -83 q 448 -85 449 -85 q 445 -87 447 -86 q 443 -88 444 -88 q 442 -90 443 -89 q 442 -91 441 -90 q 445 -92 443 -91 q 449 -92 446 -92 q 455 -93 452 -93 q 485 -94 458 -93 q 524 -97 511 -96 q 561 -100 537 -98 q 640 -111 607 -104 q 728 -134 673 -119 q 883 -168 846 -168 q 949 -161 920 -168 q 993 -147 977 -155 q 1021 -132 1008 -139 q 1037 -125 1033 -125 q 1050 -136 1041 -125 q 1060 -153 1060 -147 q 1047 -173 1060 -160 q 1011 -202 1034 -187 q 960 -232 988 -218 q 840 -264 897 -264 q 721 -252 784 -264 q 604 -223 659 -240 q 500 -189 549 -206 q 358 -149 382 -149 q 299 -161 334 -149 q 254 -174 264 -174 q 225 -150 244 -174 q 205 -111 205 -126 q 215 -91 205 -97 q 244 -86 225 -86 m 188 479 q 219 315 188 401 q 362 120 269 180 q 568 35 452 61 q 601 29 593 29 q 623 34 610 29 q 655 48 636 38 q 694 73 673 58 q 737 108 715 87 q 780 154 759 129 q 821 212 802 179 q 854 282 840 245 q 885 438 885 362 q 874 567 885 514 q 843 667 863 619 q 791 757 822 715 q 722 829 760 799 q 531 895 640 895 q 252 727 357 895 q 188 479 188 624 z "},"R":{"ha":890,"x_min":52,"x_max":895,"o":"m 172 401 q 158 877 172 877 l 78 873 q 57 880 63 873 q 52 902 52 886 q 58 922 52 918 q 79 926 64 926 l 240 924 l 442 932 q 739 768 692 932 q 749 699 749 733 q 741 639 749 665 q 722 594 733 614 q 693 555 710 573 q 659 522 675 536 q 623 496 642 508 q 572 467 593 476 q 550 456 551 457 q 566 449 550 455 q 601 436 582 444 q 644 415 620 429 q 688 384 668 401 q 727 343 707 368 q 760 288 747 317 q 794 128 791 220 q 801 46 797 50 q 810 42 806 42 l 873 42 q 890 35 885 42 q 895 7 895 28 q 872 -8 895 -8 l 682 -4 q 667 11 667 -4 l 667 92 q 644 294 667 232 q 574 390 619 360 q 431 429 519 427 l 303 431 q 292 419 292 431 q 297 193 292 345 q 307 42 302 42 l 388 42 q 403 37 399 42 q 407 18 407 32 q 403 -3 407 3 q 388 -8 399 -8 l 237 -4 l 101 -8 q 82 -3 87 -8 q 78 19 78 3 q 83 38 78 35 q 107 42 89 42 l 167 42 q 172 217 172 42 l 172 401 m 299 885 q 292 814 292 885 l 292 476 q 310 469 292 469 l 488 467 q 503 468 499 467 q 622 672 622 524 q 514 850 622 788 q 385 887 450 887 q 299 885 319 887 z "},"S":{"ha":733,"x_min":72,"x_max":689,"o":"m 582 676 l 586 765 q 553 815 586 786 q 494 860 520 843 q 367 897 435 897 q 247 847 299 897 q 196 721 196 798 q 261 596 196 645 q 405 527 303 565 q 547 469 506 490 q 666 356 633 423 q 689 253 689 309 q 671 152 689 196 q 623 75 653 107 q 552 20 592 43 q 374 -25 472 -25 q 150 10 251 -25 q 94 44 95 29 q 90 110 94 59 q 81 240 81 228 q 81 254 81 252 q 83 260 81 257 q 101 267 86 267 l 108 267 q 128 262 122 267 q 135 243 134 257 l 143 113 q 188 76 144 96 q 289 42 232 56 q 390 29 346 29 q 475 50 434 29 q 542 110 517 72 q 567 186 567 148 q 554 253 567 225 q 523 298 541 280 q 473 335 505 317 q 373 382 429 360 q 302 410 318 404 q 260 429 287 417 q 217 451 232 442 q 179 475 201 460 q 143 504 156 490 q 114 537 130 518 q 91 577 99 557 q 72 672 72 627 q 84 752 72 716 q 117 817 96 788 q 166 870 137 846 q 228 911 195 895 q 360 944 298 944 q 466 933 421 944 q 544 898 511 921 q 585 875 577 875 q 590 896 588 875 q 595 920 591 916 q 617 924 599 924 q 641 920 636 924 q 646 900 646 916 l 637 679 q 633 660 637 665 q 612 655 629 655 q 588 660 594 655 q 582 676 582 665 z "},"T":{"ha":958,"x_min":25,"x_max":935,"o":"m 76 757 q 72 741 75 744 q 46 738 68 738 q 25 753 25 738 q 29 784 25 754 q 46 916 43 884 q 53 954 48 949 q 77 958 57 958 q 96 946 96 958 l 96 932 q 242 925 96 925 l 738 925 q 885 937 885 925 q 890 954 886 949 q 906 958 895 958 q 920 958 916 958 q 928 956 924 958 q 935 939 935 953 l 929 751 q 924 740 929 742 q 904 738 919 738 q 883 742 889 738 q 878 757 878 746 l 882 868 q 729 878 882 878 l 569 878 q 560 776 561 878 q 558 663 559 675 l 550 128 q 553 42 550 42 l 651 42 q 667 37 663 42 q 671 18 671 32 q 667 -3 671 3 q 651 -8 663 -8 l 485 -4 l 314 -8 q 297 -3 300 -8 q 293 18 293 2 q 298 38 293 35 q 319 42 302 42 l 406 42 q 419 311 414 42 q 424 729 424 581 q 415 878 424 878 l 218 878 q 87 864 90 878 l 76 757 z "},"U":{"ha":1048,"x_min":52,"x_max":997,"o":"m 135 799 q 129 877 135 877 l 76 877 q 57 881 62 877 q 52 901 52 885 q 56 922 52 918 q 76 926 61 926 l 208 922 l 370 926 q 387 921 384 926 q 390 899 390 916 q 386 880 390 883 q 364 877 381 877 l 274 877 q 261 645 267 877 q 256 317 256 413 q 321 117 256 183 q 522 52 386 52 q 767 125 658 52 q 789 144 783 136 q 798 187 796 153 q 800 343 800 221 l 800 767 q 792 877 800 877 l 722 877 q 697 885 700 877 q 694 905 694 893 q 701 922 694 918 q 722 926 707 926 l 865 922 l 974 926 q 993 921 988 926 q 997 899 997 915 q 992 880 997 883 q 968 877 986 877 l 936 877 q 925 689 928 877 q 921 431 923 502 q 917 262 919 360 q 913 105 914 164 q 911 35 911 47 q 878 -14 911 -14 q 832 37 857 -14 q 793 87 808 87 q 726 58 779 87 q 595 4 674 28 q 449 -19 516 -19 q 336 -9 382 -19 q 257 17 289 1 q 201 59 224 33 q 165 112 178 85 q 145 175 152 138 q 133 315 133 234 l 135 799 z "},"V":{"ha":951,"x_min":10,"x_max":942,"o":"m 810 922 l 918 926 q 937 921 932 926 q 942 899 942 915 q 936 880 942 883 q 919 877 930 877 q 903 876 907 877 q 895 876 899 876 q 889 875 891 876 q 884 874 886 874 q 880 871 882 873 q 877 869 878 869 q 875 865 877 868 q 872 860 873 861 q 867 847 871 858 l 546 93 q 524 55 536 69 q 505 31 512 40 q 490 5 499 21 q 476 -19 481 -11 q 451 -39 465 -39 q 430 -17 438 -39 q 404 56 421 4 q 377 130 387 108 q 296 336 367 152 q 79 877 86 877 l 36 877 q 12 885 15 877 q 10 905 10 892 q 15 922 10 918 q 36 926 21 926 l 167 922 l 347 926 q 366 921 362 926 q 371 899 371 915 q 365 880 371 883 q 342 877 360 877 l 244 877 l 244 873 q 272 771 244 848 q 448 286 392 431 q 509 142 503 142 q 533 189 515 142 q 588 328 552 237 q 652 493 624 420 q 711 648 681 567 q 775 848 775 819 q 767 877 775 877 l 668 877 q 642 885 645 877 q 639 905 639 893 q 644 922 639 918 q 664 926 649 926 l 810 922 z "},"W":{"ha":1400,"x_min":10,"x_max":1390,"o":"m 1272 922 l 1367 926 q 1385 921 1381 926 q 1390 901 1390 916 q 1384 881 1390 886 q 1358 877 1379 877 q 1330 872 1336 877 q 1320 859 1323 868 q 1316 849 1316 850 q 1316 848 1316 849 q 1315 847 1316 848 l 1008 93 q 985 52 997 66 q 968 31 973 39 q 955 11 963 23 q 943 -10 947 -2 q 932 -25 938 -18 q 880 -1 902 -65 q 857 73 871 21 q 838 139 842 125 q 826 180 833 152 q 805 256 818 208 q 776 360 792 304 q 717 572 735 509 q 696 635 700 635 q 683 610 693 635 l 486 93 q 463 52 475 66 q 446 31 451 39 q 433 11 440 23 q 421 -10 425 -2 q 410 -25 416 -18 q 357 -1 380 -65 q 335 73 349 21 q 316 138 320 125 q 288 229 311 152 q 233 411 265 306 q 170 623 202 516 q 87 877 92 877 l 38 877 q 13 885 16 877 q 10 905 10 893 q 16 922 10 918 q 38 926 22 926 l 171 922 l 315 926 q 334 921 330 926 q 339 899 339 915 q 333 880 339 883 q 310 877 328 877 l 240 877 q 231 868 232 877 q 336 510 236 818 q 436 198 435 202 q 439 189 437 194 q 442 181 441 184 q 444 175 443 178 q 446 170 446 172 q 448 167 447 168 q 450 164 449 165 q 451 164 450 164 q 454 165 452 164 q 456 170 455 166 q 459 177 457 173 q 463 187 460 180 q 468 199 466 193 l 667 706 q 671 725 671 717 q 670 738 671 733 q 666 753 669 743 q 657 787 663 763 q 638 844 650 811 q 624 877 627 877 l 545 877 q 520 885 523 877 q 517 905 517 893 q 523 922 517 918 q 545 926 529 926 l 699 922 l 865 926 q 884 921 880 926 q 889 899 889 915 q 883 880 889 884 q 861 877 877 877 l 773 877 q 772 854 772 874 q 792 756 772 834 q 832 606 812 677 q 872 467 852 535 q 907 345 892 399 q 937 245 923 291 q 974 142 967 142 q 992 179 978 142 q 1048 326 1006 216 q 1112 496 1089 436 q 1166 645 1134 556 q 1228 848 1228 819 q 1219 877 1228 877 l 1129 877 q 1104 885 1107 877 q 1101 905 1101 893 q 1107 922 1101 918 q 1129 926 1114 926 l 1272 922 z "},"X":{"ha":886,"x_min":10,"x_max":877,"o":"m 151 -4 l 36 -8 q 16 -4 21 -8 q 10 17 10 1 q 16 37 10 33 q 36 42 22 42 l 87 42 q 124 86 95 42 q 167 149 154 131 q 197 194 180 168 q 246 261 215 220 q 325 362 277 302 q 382 436 373 422 q 392 454 392 450 q 369 494 392 457 q 240 704 347 531 q 126 877 132 877 l 72 877 q 47 885 50 877 q 44 905 44 893 q 50 922 44 918 q 71 926 56 926 l 236 922 l 374 926 q 391 921 388 926 q 394 900 394 916 q 389 880 394 883 q 365 877 383 877 l 308 877 q 297 874 296 877 q 299 867 297 871 q 301 861 301 863 q 398 672 331 788 q 467 550 464 555 q 475 540 473 540 q 594 718 479 540 q 682 875 682 848 l 682 877 l 604 877 q 581 880 586 877 q 575 899 575 883 q 579 921 575 915 q 598 926 584 926 l 707 922 l 812 926 q 833 922 827 926 q 839 901 839 917 q 833 881 839 885 q 812 877 827 877 l 781 877 q 757 852 778 877 q 703 778 737 827 q 593 627 669 729 q 508 513 516 525 q 506 493 500 501 q 800 42 791 42 l 847 42 q 872 38 867 42 q 877 17 877 34 q 872 -5 877 -1 q 850 -8 867 -8 l 706 -4 l 545 -8 q 525 -3 530 -8 q 521 19 521 3 q 526 38 521 35 q 550 42 532 42 l 620 42 q 626 60 635 42 q 598 110 616 77 q 554 187 580 142 q 510 262 527 232 q 461 343 492 292 q 426 402 430 395 q 414 406 419 414 q 220 122 265 196 q 175 45 174 47 q 185 42 177 42 l 261 42 q 285 38 279 42 q 290 19 290 35 q 286 -3 290 3 q 267 -8 281 -8 l 151 -4 z "},"Y":{"ha":829,"x_min":10,"x_max":820,"o":"m 347 42 q 361 376 361 42 q 361 383 361 380 q 360 389 360 387 q 358 394 359 391 q 356 398 357 397 q 327 454 354 402 q 191 694 299 505 q 75 883 83 883 l 35 883 q 15 888 20 883 q 10 908 10 892 q 15 929 10 925 q 35 933 20 933 l 182 929 l 346 933 q 361 928 357 933 q 365 906 365 922 q 361 887 365 890 q 340 883 357 883 l 258 883 q 244 881 245 883 q 251 858 242 879 q 299 762 260 837 q 386 599 337 688 q 440 498 434 510 q 448 482 446 487 q 453 474 451 476 q 456 471 454 472 q 498 545 460 471 q 558 660 537 619 q 596 735 579 701 q 628 800 613 768 q 660 875 660 867 q 657 883 660 883 l 585 883 q 561 887 567 883 q 555 906 555 890 q 560 928 555 922 q 579 933 565 933 l 688 929 l 793 933 q 814 929 808 933 q 820 908 820 924 q 814 888 820 892 q 793 883 808 883 l 746 883 q 628 683 742 883 q 501 462 514 482 q 488 435 488 442 q 500 42 488 42 l 596 42 q 612 37 608 42 q 615 18 615 32 q 612 -3 615 3 q 596 -8 608 -8 l 429 -4 l 271 -8 q 253 -3 257 -8 q 250 18 250 2 q 254 38 250 35 q 276 42 259 42 l 347 42 z "},"Z":{"ha":834,"x_min":52,"x_max":797,"o":"m 769 -8 l 67 -4 q 55 1 58 -4 q 52 18 52 6 q 137 160 52 30 q 364 506 222 290 q 551 791 507 721 q 596 865 596 861 q 581 869 596 869 l 147 869 q 140 858 142 869 q 134 819 138 847 q 122 751 123 754 q 121 745 122 748 q 120 740 121 741 q 113 726 117 727 q 107 725 109 725 q 67 739 67 725 l 97 940 q 123 953 97 953 q 147 942 149 953 l 146 930 q 223 922 146 922 l 758 922 q 776 917 772 922 q 781 901 781 912 q 746 837 781 890 q 651 695 711 783 q 526 509 592 608 q 254 82 360 264 q 256 56 236 56 l 728 56 q 734 58 734 56 q 735 67 735 64 l 740 208 q 769 221 740 221 q 797 207 797 221 l 793 11 q 769 -8 793 -8 z "},"[":{"ha":411,"x_min":107,"x_max":360,"o":"m 107 -179 l 107 942 q 111 958 107 954 q 128 963 115 963 l 340 963 q 356 959 352 963 q 360 946 360 956 l 360 926 q 356 908 360 912 q 340 904 353 904 l 192 904 q 179 903 181 904 q 178 892 178 901 l 178 -129 q 179 -140 178 -139 q 192 -142 181 -142 l 340 -142 q 356 -145 353 -142 q 360 -164 360 -149 l 360 -180 q 356 -196 360 -191 q 340 -200 353 -200 l 129 -200 q 111 -197 115 -200 q 107 -179 107 -194 z "},"\\":{"ha":564,"x_min":8,"x_max":557,"o":"m 557 -311 q 524 -328 557 -328 q 484 -322 491 -328 q 473 -302 478 -317 q 467 -287 467 -288 q 465 -282 466 -283 l 29 900 q 8 966 8 950 q 33 982 8 982 q 65 981 58 982 q 77 977 72 981 q 87 956 83 972 l 528 -225 q 557 -311 557 -299 z "},"]":{"ha":411,"x_min":52,"x_max":304,"o":"m 52 -164 q 55 -145 52 -149 q 71 -142 58 -142 l 219 -142 q 232 -140 230 -142 q 233 -129 233 -139 l 233 892 q 232 903 233 901 q 219 904 230 904 l 71 904 q 55 908 58 904 q 52 926 52 912 l 52 943 q 55 958 52 954 q 71 963 58 963 l 282 963 q 300 959 296 963 q 304 943 304 956 l 304 -178 q 299 -198 304 -197 q 286 -200 293 -200 l 71 -200 q 55 -197 59 -200 q 52 -183 52 -193 l 52 -164 z "},"^":{"ha":558,"x_min":65,"x_max":498,"o":"m 143 428 q 100 424 117 424 q 65 429 82 424 l 271 879 l 272 881 q 282 882 276 882 q 292 881 288 882 l 293 879 l 498 429 q 463 424 481 424 q 419 428 444 424 l 418 428 l 279 743 l 146 428 l 143 428 z "},"_":{"ha":569,"x_min":31,"x_max":539,"o":"m 31 -57 q 36 -36 31 -42 q 54 -31 41 -31 l 519 -31 q 535 -36 532 -31 q 539 -50 539 -41 l 539 -70 q 519 -101 539 -101 l 50 -101 q 34 -95 37 -101 q 31 -74 31 -90 l 31 -57 z "},"`":{"ha":555,"x_min":132,"x_max":303,"o":"m 143 778 q 132 811 132 793 q 147 841 132 828 q 190 854 161 854 q 232 817 218 854 l 300 636 q 303 625 303 630 q 293 620 303 620 l 271 620 q 257 629 264 620 l 143 778 z "},"a":{"ha":582,"x_min":44,"x_max":560,"o":"m 465 372 l 457 89 q 476 53 457 62 q 484 52 480 52 q 513 69 489 52 q 540 86 537 86 q 551 75 543 86 q 560 61 560 65 q 551 50 560 57 q 520 27 541 43 q 472 -8 499 12 q 432 -28 445 -28 q 411 -24 420 -28 q 398 -16 403 -21 q 388 -4 393 -12 q 381 9 384 4 q 377 24 379 15 q 372 39 374 33 q 357 40 369 48 q 187 -24 254 -24 q 82 10 120 -24 q 44 99 44 43 q 96 205 44 161 q 201 267 147 248 q 360 308 286 295 q 367 330 367 310 q 366 363 367 350 q 365 398 366 377 q 360 430 363 418 q 351 458 357 443 q 337 483 346 474 q 317 500 329 492 q 261 517 295 517 q 203 507 227 517 q 173 480 180 497 q 167 428 167 462 q 153 385 167 394 q 111 361 140 376 q 76 346 82 346 q 64 376 64 346 q 77 436 64 406 q 113 488 91 467 q 164 526 136 510 q 270 558 220 558 q 353 550 321 558 q 407 525 386 541 q 441 486 428 509 q 465 372 465 442 m 150 138 q 160 95 150 115 q 189 60 169 74 q 235 46 210 46 q 292 54 261 46 q 367 85 367 72 l 367 267 q 363 278 367 278 q 348 275 360 278 q 150 138 150 237 z "},"b":{"ha":673,"x_min":1,"x_max":636,"o":"m 99 883 l 14 875 q 2 879 3 875 q 1 902 1 882 q 10 921 1 921 l 213 943 q 223 932 223 943 l 219 542 q 221 502 219 502 q 232 505 223 502 q 254 515 240 509 q 286 527 269 521 q 365 540 326 540 q 506 503 444 540 q 602 403 568 466 q 636 274 636 339 q 620 163 636 209 q 575 84 604 117 q 509 26 547 50 q 335 -22 433 -22 q 256 -9 297 -22 q 199 4 215 4 q 161 -8 183 4 q 128 -21 138 -21 q 114 1 114 -21 q 114 10 114 3 q 116 33 115 17 q 117 75 117 49 q 119 292 119 132 q 114 668 119 453 q 99 883 108 883 m 219 458 l 217 89 q 232 47 217 57 q 258 32 248 37 q 282 26 268 28 q 336 24 306 24 q 399 36 367 24 q 454 72 431 49 q 494 124 478 94 q 528 245 528 184 q 510 350 528 307 q 463 424 492 393 q 310 492 399 492 q 251 479 282 492 q 219 458 219 467 z "},"c":{"ha":572,"x_min":44,"x_max":535,"o":"m 335 558 q 424 540 380 558 q 495 489 467 522 q 524 421 524 457 q 504 387 524 402 q 463 371 484 371 q 438 385 443 371 q 429 412 433 398 q 422 436 424 427 q 414 456 419 444 q 405 475 410 468 q 393 490 400 482 q 376 503 385 498 q 324 512 355 512 q 263 499 293 512 q 212 462 234 485 q 175 409 191 439 q 143 298 143 350 q 151 212 143 245 q 176 150 159 179 q 218 99 194 121 q 353 52 271 52 q 510 89 430 52 q 524 93 519 93 q 535 78 535 93 q 505 47 535 68 q 450 13 475 26 q 311 -18 388 -18 q 116 54 188 -18 q 44 258 44 125 q 132 474 44 390 q 335 558 220 558 z "},"d":{"ha":693,"x_min":38,"x_max":663,"o":"m 468 -19 l 469 31 q 454 32 469 41 q 286 -22 367 -22 q 65 109 126 -22 q 38 239 38 167 q 60 362 38 310 q 119 451 82 414 q 323 531 201 531 q 458 499 389 531 q 468 496 466 496 q 471 549 471 496 q 466 745 471 602 q 455 889 461 889 l 362 877 q 355 890 353 877 q 358 907 357 904 q 359 912 358 911 q 359 916 359 913 q 360 919 360 918 q 361 921 361 920 q 363 922 362 922 q 387 925 366 923 q 454 934 408 928 q 528 945 500 941 q 565 949 557 949 q 574 933 574 949 q 572 837 574 918 q 565 388 565 581 q 567 123 565 196 q 575 37 569 51 q 598 24 581 24 q 610 25 600 24 l 631 28 q 649 31 643 30 q 663 23 663 34 q 662 8 663 13 q 661 -2 662 4 q 650 -14 659 -13 q 479 -36 486 -36 q 470 -33 472 -36 q 468 -19 468 -29 m 181 396 q 173 381 181 396 q 156 332 164 367 q 147 255 147 298 q 159 172 147 212 q 195 102 171 132 q 354 38 246 38 q 428 52 385 38 q 471 79 471 65 l 471 426 q 444 458 471 439 q 348 494 391 494 q 275 482 306 494 q 221 447 244 469 q 181 396 198 425 z "},"e":{"ha":589,"x_min":39,"x_max":553,"o":"m 457 308 l 147 315 q 143 261 143 305 q 160 174 143 218 q 205 103 177 131 q 342 44 264 44 q 514 125 436 44 q 526 135 523 135 q 540 124 528 135 q 553 111 553 113 q 542 94 553 108 q 508 60 531 80 q 458 20 486 39 q 317 -25 389 -25 q 194 -4 245 -25 q 108 54 142 17 q 57 143 75 92 q 39 257 39 195 q 60 374 39 319 q 118 468 81 428 q 325 554 198 554 q 484 486 428 554 q 536 329 536 421 q 457 308 536 308 m 401 353 q 432 358 432 353 q 370 497 432 458 q 308 515 340 515 q 247 500 276 515 q 197 460 218 484 q 150 354 154 408 q 162 347 150 347 l 401 353 z "},"f":{"ha":425,"x_min":44,"x_max":457,"o":"m 182 -4 l 67 -7 q 49 -1 53 -7 q 44 17 44 4 q 65 39 44 39 l 117 39 q 122 122 122 39 l 121 239 l 121 322 q 118 476 121 476 l 72 476 q 56 481 60 476 q 53 498 53 485 q 56 516 53 512 q 68 521 59 521 l 110 521 q 118 523 117 521 q 119 533 119 524 l 117 668 q 251 930 117 878 q 328 946 289 946 q 393 934 366 946 q 439 900 420 923 q 457 851 457 877 q 431 802 457 825 q 385 779 404 779 q 364 796 366 779 q 360 826 364 797 q 345 881 356 855 q 303 907 334 906 q 263 890 275 907 q 246 860 252 873 q 236 828 240 846 q 230 793 233 809 q 227 755 228 776 q 225 697 225 719 q 222 540 225 674 q 228 524 222 526 q 254 521 233 521 l 408 521 q 422 513 422 521 q 419 492 422 505 q 410 478 415 478 l 254 478 q 233 476 238 478 q 228 465 228 473 l 228 235 q 240 39 228 39 l 335 39 q 349 35 346 39 q 351 16 351 31 q 348 -2 351 2 q 332 -7 346 -7 l 182 -4 z "},"g":{"ha":590,"x_min":17,"x_max":588,"o":"m 75 -349 q 33 -302 49 -330 q 17 -244 17 -274 q 28 -191 17 -215 q 57 -151 39 -168 q 98 -120 74 -135 q 173 -85 141 -94 q 205 -76 204 -77 q 202 -75 205 -75 l 185 -75 l 135 -75 q 75 -46 89 -75 q 62 25 62 -15 q 90 71 62 65 q 235 110 235 109 q 222 114 235 112 q 43 342 43 165 q 64 427 43 387 q 120 494 85 467 q 292 553 195 553 q 383 535 350 553 q 430 507 415 517 q 454 489 445 496 q 464 482 463 482 q 482 488 465 482 q 565 508 533 506 q 577 493 572 508 q 582 466 582 478 q 574 453 582 453 q 529 445 560 451 q 497 437 497 439 q 501 422 497 435 q 514 338 514 382 q 503 259 514 294 q 470 199 492 224 q 244 87 415 135 q 177 68 221 80 q 111 50 134 56 q 108 43 108 50 q 112 26 108 35 q 125 4 121 4 q 216 0 165 2 q 303 -4 268 -2 q 365 -10 337 -6 q 422 -19 392 -13 q 476 -33 453 -25 q 521 -55 499 -42 q 557 -84 543 -68 q 588 -182 588 -120 q 548 -297 588 -243 q 278 -407 466 -407 q 75 -349 156 -407 m 105 -173 q 96 -186 105 -173 q 87 -231 87 -199 q 105 -288 87 -262 q 151 -330 123 -314 q 276 -362 209 -362 q 452 -312 388 -362 q 500 -205 500 -273 q 478 -157 500 -179 q 419 -124 455 -136 q 262 -99 346 -99 q 166 -123 208 -99 q 105 -173 123 -147 m 214 488 q 197 477 214 488 q 161 429 181 467 q 140 350 140 391 q 153 274 140 309 q 183 214 165 239 q 222 172 201 190 q 285 136 263 136 q 330 151 307 136 q 373 191 353 165 q 419 334 419 249 q 383 464 419 419 q 285 510 347 510 q 214 488 247 510 z "},"h":{"ha":699,"x_min":10,"x_max":668,"o":"m 100 879 l 18 869 q 10 888 10 869 q 11 911 10 907 q 45 920 13 916 q 146 933 76 925 q 223 942 216 942 q 233 938 231 942 q 235 927 235 934 q 232 852 235 920 q 223 559 223 637 q 224 480 223 480 q 248 491 225 479 q 325 521 271 504 q 416 539 378 539 q 480 530 453 539 q 525 508 506 522 q 556 472 543 494 q 577 427 570 450 q 590 372 585 404 q 597 250 597 322 l 597 132 q 602 39 597 39 l 649 39 q 665 34 661 39 q 668 17 668 29 q 649 -7 668 -7 l 546 -4 l 424 -7 q 407 -2 410 -7 q 404 16 404 3 q 407 34 404 28 q 421 39 410 39 l 488 39 q 494 182 494 39 q 490 351 494 325 q 475 401 485 378 q 450 439 465 423 q 360 474 418 474 q 243 445 301 474 q 223 428 223 435 q 225 107 225 175 q 231 39 225 39 l 294 39 q 310 34 307 39 q 313 20 313 29 q 312 7 313 11 q 310 1 312 4 q 294 -7 307 -7 l 175 -4 l 53 -7 q 34 6 35 -7 q 33 17 33 9 q 54 39 33 39 l 114 39 q 119 237 119 39 q 113 761 119 648 q 106 877 107 874 q 100 879 104 879 z "},"i":{"ha":346,"x_min":28,"x_max":315,"o":"m 107 489 l 40 486 q 28 492 28 486 q 33 511 28 497 q 43 527 38 525 q 61 529 47 529 l 218 536 q 230 534 228 536 q 232 524 232 531 l 232 288 q 239 39 232 39 l 299 39 q 313 34 310 39 q 315 17 315 30 q 312 -1 315 4 q 299 -7 309 -7 l 179 -4 l 52 -7 q 37 -2 40 -7 q 35 16 35 3 q 38 34 35 28 q 56 39 42 39 l 125 39 q 129 187 129 39 q 126 407 129 336 q 122 481 123 477 q 119 487 121 485 q 112 489 116 489 l 107 489 m 168 707 q 153 707 168 707 q 121 723 139 707 q 103 766 103 739 q 118 812 103 793 q 181 849 146 849 q 253 789 253 849 q 225 730 253 753 q 168 707 197 707 z "},"j":{"ha":406,"x_min":3,"x_max":285,"o":"m 278 493 l 285 38 q 248 -235 285 -150 q 211 -299 233 -271 q 127 -357 189 -328 q 42 -386 65 -386 q 3 -354 3 -386 q 24 -304 3 -331 q 61 -276 46 -276 l 140 -282 q 177 -270 165 -282 q 189 -243 189 -258 q 186 -162 189 -228 q 176 227 176 28 q 175 449 176 426 q 172 475 173 472 q 165 479 170 479 l 68 475 q 62 475 65 475 q 58 483 58 475 q 63 506 58 491 q 74 521 67 521 l 264 529 q 277 512 277 529 q 278 502 278 508 l 278 493 m 172 745 q 157 745 172 745 q 125 760 143 745 q 107 803 107 776 q 122 850 107 830 q 185 886 150 886 q 257 826 257 886 q 229 768 257 791 q 172 745 201 745 z "},"k":{"ha":624,"x_min":8,"x_max":614,"o":"m 103 892 l 24 887 q 11 890 13 887 q 8 901 8 892 l 8 917 q 12 931 8 926 q 25 936 15 935 q 216 950 206 950 q 227 940 227 950 l 227 928 l 211 308 q 214 297 211 299 q 229 294 217 294 l 260 294 q 283 304 275 294 q 327 362 290 313 q 387 449 364 412 q 410 492 410 487 q 396 496 410 496 l 362 496 q 345 509 346 496 q 345 518 345 511 q 364 542 345 542 l 450 539 l 536 542 q 553 524 553 542 q 549 501 553 506 q 535 496 546 496 l 490 496 q 366 357 480 496 q 336 322 339 325 q 332 316 334 319 q 331 313 331 314 q 331 310 331 312 q 333 307 332 308 q 336 304 334 307 q 340 299 339 301 l 550 56 q 564 41 560 44 q 578 39 569 39 l 594 39 q 611 35 608 39 q 614 20 614 31 q 613 6 614 9 q 611 -1 613 3 q 594 -7 609 -7 l 498 -4 l 400 -7 q 385 -2 388 -7 q 382 16 382 3 q 385 34 382 28 q 400 39 389 39 l 418 39 q 427 45 430 39 q 422 53 426 47 l 270 242 q 253 261 257 257 q 239 264 248 264 l 222 264 q 213 261 215 264 q 211 246 211 258 l 211 129 q 214 39 211 39 l 258 39 q 274 34 271 39 q 276 13 276 28 q 258 -7 276 -7 l 160 -4 l 43 -7 q 28 -2 30 -7 q 25 14 25 5 q 25 26 25 23 q 27 33 26 29 q 42 39 30 39 l 103 39 q 113 42 111 39 q 114 60 114 44 l 114 328 q 103 892 114 892 z "},"l":{"ha":357,"x_min":22,"x_max":321,"o":"m 29 887 q 22 897 22 887 q 25 915 22 906 q 28 926 27 924 q 29 929 28 927 q 31 931 30 930 q 33 932 31 931 q 35 932 35 932 q 124 940 39 933 q 217 946 210 946 q 229 921 229 946 l 237 89 q 244 39 237 39 l 304 39 q 318 34 316 39 q 321 19 321 30 q 320 6 321 9 q 319 -1 320 2 q 304 -7 316 -7 l 189 -4 l 56 -7 q 41 -2 44 -7 q 38 16 38 4 q 41 34 38 28 q 54 39 44 39 l 125 39 q 132 154 132 39 q 128 531 132 270 q 120 834 124 792 q 115 879 116 876 q 114 885 115 883 q 112 889 114 887 q 111 891 111 890 q 107 893 110 893 l 101 893 l 29 887 z "},"m":{"ha":1026,"x_min":29,"x_max":996,"o":"m 120 481 q 119 482 120 482 l 114 482 q 38 478 47 478 q 29 486 29 478 q 34 505 29 488 q 41 524 39 522 q 125 530 45 526 q 212 533 204 533 q 223 530 220 533 q 225 514 225 526 l 225 472 q 226 462 225 463 q 232 465 227 461 q 431 543 343 543 q 550 479 520 543 q 554 472 553 472 q 566 479 555 472 q 597 496 578 486 q 639 516 616 506 q 739 540 693 540 q 815 530 785 540 q 866 502 846 520 q 899 458 886 485 q 921 333 921 410 l 918 97 q 921 39 918 39 l 976 39 q 992 34 989 39 q 996 16 996 28 q 992 -1 996 4 q 976 -7 988 -7 l 867 -4 l 744 -7 q 730 -2 733 -7 q 726 17 726 4 q 747 39 726 39 l 804 39 q 815 300 815 39 q 739 467 815 442 q 693 474 720 474 q 634 464 666 474 q 583 446 602 455 q 565 435 565 437 q 568 423 565 433 q 574 328 574 395 l 574 172 q 576 39 574 39 l 626 39 q 642 34 638 39 q 645 17 645 29 q 626 -7 645 -7 l 519 -4 l 415 -7 q 397 -2 401 -7 q 393 16 393 3 q 396 34 393 28 q 411 39 399 39 l 464 39 q 474 170 474 39 l 472 300 q 468 390 472 372 q 459 423 463 409 q 447 444 454 436 q 430 460 440 453 q 371 474 412 474 q 240 433 291 474 q 227 411 227 422 l 227 79 q 231 42 227 44 q 249 39 238 39 l 282 39 q 298 34 294 39 q 301 16 301 28 q 298 -1 301 4 q 282 -7 294 -7 l 172 -4 l 52 -7 q 38 -2 42 -7 q 35 21 35 2 q 50 39 35 39 l 108 39 q 122 75 118 39 q 125 227 125 110 l 125 378 l 121 479 l 120 481 z "},"n":{"ha":714,"x_min":28,"x_max":683,"o":"m 120 482 l 35 476 q 28 483 28 476 q 34 504 28 489 q 42 521 39 519 q 56 523 45 523 q 129 528 67 524 q 203 533 191 532 q 218 534 216 534 q 222 533 220 533 q 225 532 224 533 q 228 531 227 531 q 229 529 229 531 q 230 527 230 528 q 231 525 231 527 l 231 467 q 232 458 231 458 q 236 459 234 458 q 238 461 237 460 q 247 467 242 465 q 267 481 252 470 q 292 497 283 491 q 318 512 301 503 q 350 525 335 520 q 423 537 387 537 q 487 530 459 537 q 534 512 514 524 q 568 482 553 500 q 591 443 582 463 q 605 396 600 423 q 614 288 614 350 l 607 52 q 608 41 607 42 q 618 39 610 39 l 660 39 q 678 34 673 39 q 683 17 683 30 q 680 -1 683 5 q 663 -7 676 -7 l 558 -4 l 437 -7 q 420 -3 423 -7 q 417 15 417 1 q 439 39 417 39 l 498 39 q 507 183 507 39 q 504 351 507 326 q 491 399 500 376 q 468 438 483 422 q 378 471 437 471 q 270 439 332 471 q 237 419 241 425 q 233 404 233 413 l 232 61 q 234 42 232 45 q 246 39 236 39 l 299 39 q 315 34 312 39 q 318 20 318 29 q 318 7 318 11 q 316 1 317 4 q 300 -7 313 -7 l 183 -4 l 57 -7 q 42 -2 44 -7 q 39 17 39 5 q 42 34 39 28 q 57 39 45 39 l 119 39 q 131 231 131 39 q 129 447 131 424 q 127 474 127 471 q 125 479 126 477 q 120 482 124 482 z "},"o":{"ha":619,"x_min":38,"x_max":582,"o":"m 38 257 q 59 371 38 316 q 117 466 80 426 q 327 554 197 554 q 512 472 441 554 q 582 274 582 391 q 509 60 582 142 q 304 -25 434 -25 q 114 57 191 -25 q 38 257 38 139 m 144 235 q 203 66 144 132 q 304 19 243 19 q 474 283 474 19 q 402 473 474 405 q 310 510 364 510 q 144 235 144 510 z "},"p":{"ha":711,"x_min":29,"x_max":667,"o":"m 42 478 q 29 482 29 478 q 34 505 29 487 q 42 524 38 524 l 231 532 q 245 527 241 532 q 250 508 250 523 l 250 480 q 268 480 250 467 q 269 481 269 480 q 286 493 270 482 q 343 520 302 504 q 434 536 384 536 q 531 515 484 536 q 607 458 577 495 q 667 270 667 384 q 589 73 667 156 q 372 -17 504 -17 q 272 1 324 -17 l 254 7 q 251 -11 251 7 l 256 -260 q 262 -349 258 -349 l 360 -349 q 376 -353 373 -349 q 379 -371 379 -358 q 360 -394 379 -394 l 210 -392 l 71 -394 q 56 -389 59 -394 q 53 -371 53 -384 q 56 -354 53 -359 q 71 -349 59 -349 l 146 -349 q 150 -131 150 -349 l 150 67 q 150 168 150 121 q 149 247 149 214 q 148 310 149 279 q 147 356 147 340 q 145 393 146 372 q 144 420 144 415 q 136 480 140 479 q 132 481 133 480 q 127 481 131 481 q 122 480 124 480 l 42 478 m 251 68 q 271 45 251 57 q 361 18 317 18 q 436 33 405 18 q 490 71 468 47 q 528 127 512 96 q 558 274 558 189 q 508 419 558 359 q 382 479 458 479 q 265 443 307 479 q 251 425 251 431 l 251 68 z "},"q":{"ha":681,"x_min":44,"x_max":650,"o":"m 579 521 q 572 107 572 314 l 572 -122 q 578 -345 572 -345 l 628 -345 q 646 -349 641 -345 q 650 -369 650 -353 q 647 -389 650 -385 q 632 -393 645 -393 l 590 -393 q 429 -401 496 -393 q 357 -408 361 -408 q 347 -385 347 -408 q 362 -360 347 -361 q 390 -358 376 -359 q 412 -356 404 -356 q 428 -354 419 -355 q 441 -352 437 -353 q 450 -350 445 -352 q 456 -345 455 -348 q 460 -339 458 -343 q 463 -319 463 -334 l 465 0 q 455 7 465 12 q 445 4 450 6 q 306 -22 355 -22 q 222 -13 256 -22 q 156 16 189 -4 q 99 68 124 37 q 44 250 44 136 q 82 396 44 331 q 187 497 120 460 q 337 533 254 533 q 424 521 390 533 q 497 497 488 497 q 514 505 507 497 q 528 522 522 512 q 561 546 544 546 q 579 521 579 546 m 178 390 q 171 375 178 390 q 158 329 164 361 q 151 265 151 298 q 159 198 151 232 q 184 135 168 165 q 224 81 201 104 q 347 31 274 31 q 425 38 384 31 q 467 57 467 46 l 467 404 q 430 465 467 443 q 342 488 393 488 q 262 475 292 488 q 212 440 233 462 q 178 390 192 418 z "},"r":{"ha":457,"x_min":29,"x_max":447,"o":"m 39 480 q 29 484 29 480 q 30 492 29 487 q 33 503 31 497 q 35 514 34 509 q 60 522 37 522 q 199 526 176 526 q 224 525 222 526 q 227 514 227 523 l 225 433 l 225 424 l 225 418 q 231 431 225 420 q 291 519 254 486 q 362 551 329 551 q 421 528 394 551 q 447 489 447 505 q 428 449 447 473 q 394 425 409 425 q 368 432 380 425 q 347 447 356 439 q 308 469 322 469 q 233 190 233 469 q 246 39 233 39 l 337 39 q 352 34 349 39 q 356 19 356 28 q 355 7 356 11 q 353 1 355 4 q 337 -7 350 -7 l 186 -4 l 62 -7 q 48 -2 51 -7 q 44 13 44 4 q 45 26 44 23 q 46 33 45 29 q 61 39 49 39 l 122 39 q 133 261 133 39 q 122 483 133 483 l 39 480 z "},"s":{"ha":468,"x_min":44,"x_max":424,"o":"m 71 25 q 44 67 44 46 q 63 108 44 88 q 88 128 81 128 q 99 122 95 128 q 108 105 102 116 q 130 75 114 94 q 175 37 145 56 q 244 19 204 19 q 308 41 283 19 q 333 105 333 63 q 251 208 333 168 q 192 234 235 216 q 123 270 150 253 q 48 389 48 317 q 79 473 48 435 q 156 530 109 510 q 243 550 202 550 q 309 543 283 550 q 351 526 335 537 q 380 502 368 515 q 401 450 401 477 q 379 430 401 439 q 344 422 356 422 q 327 427 332 422 q 318 440 322 432 q 311 458 315 448 q 301 477 307 467 q 288 494 296 487 q 245 512 270 512 q 208 509 221 512 q 181 500 194 507 q 159 482 169 493 q 138 419 138 459 q 167 359 138 381 q 206 334 189 342 q 233 320 223 325 q 244 315 242 316 q 340 266 294 294 q 424 147 424 214 q 395 58 424 97 q 223 -21 338 -21 q 71 25 130 -21 z "},"t":{"ha":401,"x_min":43,"x_max":385,"o":"m 104 383 q 89 464 104 464 l 54 464 q 43 478 43 464 q 50 492 43 485 l 176 668 q 194 681 184 681 q 210 664 210 681 l 201 531 q 203 522 201 523 q 213 521 204 521 l 356 521 q 365 512 365 521 q 361 493 365 511 q 352 470 357 476 q 339 465 348 465 l 207 465 q 201 406 201 465 l 201 139 q 212 77 201 88 q 260 57 232 57 q 313 62 288 57 q 356 73 338 68 q 379 79 373 79 q 385 66 385 79 q 384 51 385 53 q 368 37 382 48 q 296 5 353 26 q 208 -17 239 -17 q 155 -7 177 -17 q 123 17 134 2 q 101 82 101 45 l 104 383 z "},"u":{"ha":708,"x_min":15,"x_max":679,"o":"m 95 490 l 26 489 q 15 496 15 489 q 32 531 15 529 q 35 531 34 531 q 105 535 41 532 q 189 537 168 537 q 211 535 210 537 q 213 525 213 532 l 213 147 q 362 58 213 58 q 443 64 401 58 q 485 76 485 70 l 485 240 q 474 494 485 494 l 404 492 q 393 496 393 492 q 399 530 393 526 q 414 533 405 533 l 575 540 q 589 533 589 540 l 589 528 q 588 135 588 196 q 589 58 588 74 q 596 37 591 42 q 610 32 600 32 l 671 40 q 679 23 679 40 q 677 3 679 6 q 585 -14 674 -1 q 494 -26 496 -26 q 489 9 491 -26 q 487 44 488 44 q 472 38 486 44 q 436 22 458 31 q 385 3 413 13 q 204 -12 278 -33 q 107 170 107 16 l 107 388 q 95 490 107 490 z "},"v":{"ha":640,"x_min":31,"x_max":610,"o":"m 81 489 l 74 489 l 48 489 q 34 494 37 489 q 31 511 31 499 q 48 535 31 535 l 146 532 l 271 535 q 286 524 284 535 q 286 510 286 520 q 272 489 286 489 l 223 489 q 203 482 203 489 q 256 321 206 466 q 325 139 307 177 q 345 100 342 100 q 354 115 349 100 q 485 471 485 427 q 475 489 485 489 l 435 489 q 417 502 418 489 q 417 511 417 505 q 417 521 417 518 q 419 528 417 524 q 436 535 422 535 l 519 532 l 594 535 q 607 529 604 535 q 610 506 610 524 q 593 489 610 489 l 567 489 q 558 486 560 489 q 554 480 556 483 q 544 462 552 477 q 472 293 536 448 q 387 94 408 138 q 358 38 367 50 q 335 10 349 26 q 307 -28 321 -6 q 290 -39 298 -39 q 276 -32 282 -39 q 265 -13 270 -25 q 256 11 260 0 q 249 36 253 21 q 237 73 244 51 q 144 335 197 197 q 89 476 91 473 q 88 481 88 480 q 86 484 87 482 q 85 486 85 486 q 83 488 84 487 q 81 489 82 489 z "},"w":{"ha":968,"x_min":31,"x_max":939,"o":"m 922 535 q 939 517 939 535 q 935 494 939 499 q 921 489 932 489 l 912 489 q 889 471 899 489 q 853 379 880 453 q 741 93 764 140 q 700 22 719 46 q 671 -20 681 -2 q 647 -39 660 -39 q 603 49 625 -39 q 568 167 602 54 q 520 324 535 280 q 503 372 505 368 q 498 379 500 379 q 489 364 495 379 q 464 296 484 349 q 433 214 445 243 q 366 56 382 79 q 344 26 350 33 q 314 -13 326 7 q 297 -36 303 -33 q 286 -39 291 -39 q 278 -35 282 -39 q 269 -25 273 -32 q 262 -10 265 -18 q 255 8 258 -3 q 249 25 251 18 q 243 42 246 32 q 237 64 240 53 q 209 143 233 76 q 151 309 186 210 q 104 446 116 408 q 87 486 91 483 q 72 489 82 489 l 50 489 q 34 494 37 489 q 31 509 31 498 q 31 523 31 519 q 50 535 33 535 l 146 532 l 267 535 q 286 522 284 535 q 286 509 286 518 q 283 494 286 499 q 268 489 280 489 l 231 489 q 211 479 211 489 q 263 311 211 462 q 326 133 314 160 q 342 105 338 105 q 349 115 346 105 q 353 125 353 124 q 375 182 354 130 q 409 267 396 234 q 460 398 445 357 q 475 446 475 440 q 475 454 475 452 q 474 458 475 456 q 473 461 473 460 q 466 474 470 466 q 425 489 459 489 l 408 489 q 392 494 396 489 q 389 509 389 499 q 390 523 389 519 q 408 535 392 535 l 512 532 l 612 535 q 632 522 630 535 q 632 511 632 518 q 611 489 632 489 l 582 489 q 569 481 569 489 l 569 478 q 616 319 573 460 q 674 137 659 177 q 693 97 689 97 q 714 136 697 97 q 776 313 730 175 q 821 470 821 451 q 810 489 821 489 l 763 489 q 748 494 751 489 q 744 511 744 499 q 748 529 744 523 q 764 535 752 535 l 847 532 l 922 535 z "},"x":{"ha":650,"x_min":31,"x_max":620,"o":"m 131 -4 l 44 -7 q 33 -2 35 -7 q 31 17 31 2 q 35 35 31 31 q 54 39 39 39 q 79 45 70 39 q 114 78 87 50 l 280 249 q 289 259 288 256 q 285 270 290 262 l 136 469 q 121 486 125 483 q 108 489 117 489 l 78 489 q 61 494 64 489 q 58 509 58 498 q 59 523 58 519 q 78 535 61 535 l 190 532 l 276 535 q 290 529 287 535 q 293 514 293 524 q 293 502 293 505 q 291 495 292 498 q 269 489 289 489 q 250 483 250 489 q 261 463 250 476 l 349 335 q 364 326 358 320 q 368 330 365 327 q 377 339 371 334 q 429 399 383 345 q 494 483 494 476 q 465 489 494 489 l 443 489 q 428 494 431 489 q 425 508 425 499 q 425 521 425 517 q 427 528 426 524 q 445 535 431 535 l 524 532 l 603 535 q 617 530 614 535 q 620 512 620 525 q 616 494 620 499 q 602 489 613 489 q 583 485 592 489 q 569 478 574 481 q 555 464 565 475 q 530 440 544 453 q 488 399 515 427 q 429 341 460 372 q 391 302 399 310 q 383 291 383 294 q 443 205 383 289 q 534 82 504 121 q 568 41 565 43 q 581 39 572 39 l 597 39 q 616 26 615 39 q 617 17 617 23 q 616 7 617 11 q 614 1 616 4 q 598 -7 611 -7 l 498 -4 l 401 -7 q 382 6 384 -7 q 382 19 382 9 q 400 39 382 39 l 418 39 q 437 45 437 39 q 434 58 437 52 q 423 74 430 64 q 396 115 416 83 q 349 183 376 148 q 321 222 322 219 q 318 225 319 224 q 316 227 317 226 q 312 229 314 229 q 303 221 309 229 q 265 177 296 213 q 163 44 160 56 q 179 39 164 39 l 221 39 q 240 26 239 39 q 240 17 240 23 q 240 7 240 11 q 238 1 240 4 q 221 -7 234 -7 l 131 -4 z "},"y":{"ha":648,"x_min":31,"x_max":618,"o":"m 87 -414 q 58 -382 58 -414 q 86 -321 58 -359 q 116 -298 98 -303 q 147 -287 133 -292 q 172 -279 162 -282 q 195 -269 182 -275 q 219 -258 209 -263 q 249 -227 241 -244 q 310 -64 310 -77 q 270 46 310 -51 q 170 287 231 142 q 98 458 109 431 q 85 487 87 484 q 76 489 83 489 l 48 489 q 31 502 32 489 q 31 511 31 505 q 48 535 31 535 l 156 532 l 278 535 q 296 529 291 535 q 300 511 300 524 q 279 489 300 489 l 253 489 q 221 479 221 489 q 264 344 221 464 q 328 176 308 224 q 351 121 347 129 q 356 108 354 113 q 360 99 358 103 q 367 90 365 90 q 386 135 370 90 q 498 480 498 464 q 474 489 498 489 l 425 489 q 407 502 409 489 q 407 511 407 505 q 407 521 407 517 q 410 528 408 524 q 426 535 413 535 l 519 532 l 600 535 q 614 529 611 535 q 618 514 618 524 q 618 502 618 505 q 616 495 617 498 q 602 489 614 489 l 581 489 q 564 478 568 489 q 471 236 549 438 q 385 17 392 35 q 370 -24 377 -1 q 333 -131 345 -98 q 317 -179 322 -164 q 310 -198 311 -195 q 304 -213 309 -201 q 298 -229 300 -225 q 291 -242 296 -232 q 283 -258 287 -253 q 274 -272 280 -263 q 263 -290 269 -282 q 242 -317 252 -304 q 227 -336 232 -330 q 221 -343 222 -342 q 217 -349 220 -345 q 212 -354 213 -353 q 207 -359 210 -355 q 201 -363 203 -362 q 194 -368 198 -365 q 143 -393 187 -372 q 87 -414 99 -414 z "},"z":{"ha":573,"x_min":44,"x_max":522,"o":"m 478 142 q 483 160 480 157 q 504 162 487 162 q 522 153 522 162 q 518 66 522 128 q 510 0 514 5 q 489 -4 505 -4 l 79 -4 q 48 2 52 -4 q 44 16 44 7 q 60 44 44 24 l 356 480 q 363 501 368 497 q 351 504 359 504 l 142 497 q 115 494 118 496 q 107 474 111 491 l 93 414 q 83 396 89 397 q 74 396 78 395 q 66 396 70 396 q 61 397 63 397 q 57 397 60 397 q 53 398 54 398 q 50 400 52 399 q 47 404 47 401 q 49 426 47 407 q 56 502 53 467 q 63 541 59 537 q 82 545 66 545 l 472 545 q 510 531 510 545 q 503 515 510 523 q 496 504 497 506 l 203 74 q 195 47 189 53 q 208 42 201 42 l 450 47 q 456 48 454 47 q 461 48 459 48 q 464 50 463 48 q 466 52 466 52 q 468 55 467 53 q 469 58 468 58 q 469 67 469 62 l 478 142 z "},"{":{"ha":426,"x_min":52,"x_max":375,"o":"m 73 359 q 68 360 73 359 q 57 366 63 361 q 52 380 52 371 q 56 394 52 389 q 68 400 61 399 q 85 404 76 401 q 105 412 95 408 q 125 428 115 416 q 142 457 134 440 q 158 578 158 496 l 158 689 q 164 834 158 810 q 176 878 170 857 q 193 909 183 899 q 218 931 203 919 q 252 948 232 943 q 333 961 299 961 q 370 957 366 961 q 375 938 375 952 q 369 921 375 925 q 346 917 363 917 q 312 914 328 917 q 281 903 296 911 q 258 882 267 896 q 239 793 239 853 l 239 586 q 235 484 239 504 q 227 451 231 465 q 217 429 223 438 q 202 412 211 420 q 166 390 187 397 q 145 380 144 382 q 158 374 145 378 q 182 364 171 370 q 202 349 193 358 q 217 332 211 341 q 227 310 223 323 q 234 285 231 297 q 237 253 236 273 q 239 175 239 223 l 239 -32 q 253 -113 239 -92 q 281 -142 267 -135 q 335 -156 306 -156 q 369 -160 364 -156 q 375 -177 375 -163 q 370 -195 375 -191 q 339 -200 366 -200 q 282 -194 313 -200 q 231 -179 252 -188 q 196 -150 210 -171 q 174 -113 182 -130 q 163 -62 167 -97 q 158 72 158 -14 l 158 183 q 94 354 158 337 q 73 359 82 357 z "},"|":{"ha":343,"x_min":135,"x_max":208,"o":"m 135 -260 l 135 1036 q 142 1057 135 1053 q 164 1062 149 1062 l 174 1062 q 202 1058 195 1062 q 208 1035 208 1054 l 208 -260 q 202 -291 208 -287 q 188 -294 195 -294 l 158 -294 q 138 -288 142 -294 q 135 -260 135 -282 z "},"}":{"ha":426,"x_min":52,"x_max":375,"o":"m 94 -200 q 77 -200 94 -200 q 56 -195 60 -200 q 52 -177 52 -191 q 57 -160 52 -163 q 83 -156 63 -156 q 123 -151 104 -156 q 157 -134 142 -146 q 188 -32 188 -109 l 188 175 q 191 277 188 257 q 200 310 195 297 q 210 332 204 323 q 224 349 216 341 q 262 372 239 364 q 284 380 284 380 q 270 387 284 382 q 245 397 256 391 q 225 412 233 403 q 210 429 216 420 q 200 451 204 438 q 193 477 195 465 q 189 508 191 489 q 188 586 188 538 l 188 793 q 177 866 188 846 q 158 894 167 885 q 136 908 149 903 q 87 917 112 917 q 57 921 63 917 q 52 938 52 925 q 56 957 52 952 q 81 961 60 961 q 125 959 101 961 q 167 950 148 957 q 200 937 185 944 q 225 918 214 931 q 243 895 235 905 q 255 864 250 884 q 262 830 260 844 q 267 788 265 815 q 268 689 268 745 l 268 578 q 280 468 268 496 q 302 428 292 440 q 322 412 312 416 q 341 404 332 408 q 358 400 351 401 q 375 380 375 397 q 354 359 375 364 q 311 342 323 353 q 290 314 299 331 q 268 183 268 276 l 268 72 q 262 -71 268 -46 q 250 -117 257 -96 q 233 -148 243 -138 q 209 -170 223 -158 q 175 -187 194 -182 q 94 -200 127 -200 z "},"~":{"ha":1101,"x_min":58,"x_max":1036,"o":"m 60 156 q 59 156 60 156 q 59 159 59 157 q 58 165 58 160 q 63 187 58 171 q 74 221 68 204 q 92 261 80 238 q 117 305 103 284 q 151 346 131 325 q 195 382 172 367 q 302 415 248 415 q 400 404 357 415 q 479 376 442 393 q 553 337 516 358 q 625 294 590 315 q 693 255 660 273 q 829 215 768 215 q 943 292 891 215 q 984 374 973 335 q 1001 414 995 412 q 1013 414 1007 416 q 1023 411 1019 412 q 1027 410 1026 411 q 1031 409 1028 410 q 1034 407 1033 408 q 1036 398 1036 403 q 1032 376 1036 393 q 1016 330 1027 359 q 982 266 1004 300 q 933 208 960 233 q 781 149 870 149 q 614 186 698 149 q 494 248 559 211 q 395 302 429 286 q 256 340 319 340 q 104 168 148 340 q 103 164 104 167 q 102 160 102 161 q 92 146 98 146 q 80 147 86 146 q 71 149 74 149 q 68 150 69 150 q 65 151 67 151 q 63 152 64 152 q 61 154 62 153 q 60 156 60 155 z "},"":{"ha":278,"x_min":0,"x_max":0,"o":""},"":{"ha":362,"x_min":107,"x_max":256,"o":"m 157 794 q 148 798 157 794 q 122 819 138 803 q 107 860 107 836 q 130 912 107 885 q 176 939 154 939 q 227 915 199 939 q 256 873 256 890 q 245 835 256 856 q 218 800 234 815 q 190 785 203 785 q 157 794 176 785 m 205 671 l 232 24 q 216 -7 232 2 q 173 -15 201 -15 q 134 -9 145 -15 q 124 11 124 -2 q 129 106 124 23 q 160 671 148 405 q 183 689 160 689 q 205 671 205 689 z "},"":{"ha":565,"x_min":38,"x_max":528,"o":"m 243 -178 l 256 -25 q 255 -15 256 -16 q 242 -13 254 -15 q 92 74 146 5 q 38 246 38 142 q 149 495 38 406 q 294 555 213 546 q 301 557 300 556 q 303 558 302 558 q 304 561 303 559 q 304 563 304 562 q 306 571 306 566 l 311 647 q 318 689 314 689 l 329 689 q 353 682 353 689 l 343 571 l 343 561 q 344 559 343 560 q 345 558 345 559 q 348 558 346 558 q 352 557 350 557 q 376 554 353 557 q 434 531 398 550 q 494 483 470 512 q 517 427 517 453 q 497 386 517 400 q 456 371 477 371 q 429 389 435 371 q 420 416 426 398 q 412 443 415 433 q 403 465 409 452 q 390 486 396 478 q 358 507 373 504 q 340 509 342 511 q 337 500 338 508 l 301 67 l 301 60 q 337 52 301 52 q 399 56 373 52 q 445 66 426 60 q 479 78 464 72 q 504 89 494 84 q 514 93 513 93 q 528 78 528 93 q 498 47 528 68 q 443 13 468 26 q 304 -18 381 -18 q 299 -18 301 -18 q 296 -18 298 -18 q 294 -20 294 -19 q 286 -86 291 -24 q 275 -185 279 -185 l 264 -185 q 243 -178 243 -185 m 299 500 q 294 510 299 510 l 289 510 q 207 463 243 500 q 136 280 136 391 q 167 155 136 213 q 254 71 197 98 q 261 69 259 69 q 264 72 264 69 l 299 500 z "},"":{"ha":708,"x_min":52,"x_max":678,"o":"m 446 382 q 463 361 463 382 q 446 340 463 340 l 270 340 q 260 337 263 340 q 256 288 258 334 q 238 170 253 242 q 215 76 223 99 q 208 53 207 53 q 213 54 210 53 q 310 78 262 78 q 442 66 358 78 q 557 54 526 54 q 622 101 622 54 q 601 132 622 117 q 561 173 561 162 q 578 202 561 184 q 613 221 594 221 q 655 197 633 221 q 678 136 678 173 q 654 63 678 99 q 594 6 630 26 q 515 -15 557 -15 q 338 -6 474 -15 q 192 4 201 4 q 177 -13 183 4 q 168 -40 171 -30 q 162 -55 164 -50 q 156 -70 160 -60 q 149 -84 152 -79 q 139 -96 145 -89 q 127 -106 133 -103 q 95 -115 112 -115 q 65 -106 78 -115 q 52 -82 52 -96 q 57 -58 52 -67 q 74 -40 63 -48 q 96 -24 85 -31 q 122 -8 106 -17 q 149 9 138 2 q 165 32 165 21 q 171 193 171 138 q 168 291 171 248 q 163 337 166 334 q 154 340 161 340 l 78 340 q 61 361 61 340 q 76 382 61 382 l 146 382 q 161 383 158 382 q 164 388 164 384 q 161 437 164 392 q 154 694 154 571 q 227 865 154 800 q 390 928 296 928 q 503 899 455 928 q 554 815 554 869 q 537 772 554 790 q 494 754 520 754 q 468 770 468 754 q 466 800 468 785 q 457 831 464 815 q 442 860 451 847 q 380 887 421 887 q 270 797 293 887 q 257 639 257 744 l 257 403 q 260 385 257 389 q 278 382 263 382 l 446 382 z "},"":{"ha":686,"x_min":31,"x_max":649,"o":"m 486 81 q 338 32 419 32 q 193 79 257 32 l 108 -5 q 71 -26 90 -26 q 41 -15 52 -26 q 31 6 31 -4 q 32 21 31 16 q 37 30 33 25 q 42 37 40 35 q 49 45 43 39 q 56 52 55 51 l 138 135 q 90 284 90 202 q 136 429 90 366 l 56 512 q 31 551 31 532 q 42 580 31 569 q 65 590 53 590 q 85 586 77 590 q 110 567 95 581 l 193 483 q 340 531 258 531 q 486 483 422 531 l 572 569 q 607 590 588 590 q 637 579 626 590 q 649 558 649 568 q 647 543 649 548 q 643 534 646 538 q 637 527 639 529 q 630 519 636 525 q 624 512 624 513 l 540 428 q 590 280 590 357 q 540 136 590 203 l 624 52 q 649 13 649 32 q 637 -16 649 -5 q 615 -28 625 -28 q 601 -26 605 -28 q 594 -24 597 -25 q 587 -19 591 -23 q 581 -14 582 -16 q 486 81 569 -3 m 253 433 q 234 421 253 433 q 192 368 214 409 q 170 280 170 327 q 193 194 170 233 q 255 132 216 155 q 339 110 294 110 q 423 133 384 110 q 486 196 463 156 q 510 276 510 235 q 496 348 510 316 q 459 404 482 380 q 339 457 408 457 q 253 433 293 457 z "},"":{"ha":829,"x_min":10,"x_max":820,"o":"m 429 -4 l 271 -8 q 253 -3 257 -8 q 250 18 250 2 q 254 38 250 35 q 276 42 259 42 l 347 42 q 361 306 361 42 l 121 306 q 113 326 113 306 q 121 347 113 347 l 361 347 l 361 376 q 361 383 361 380 q 360 389 360 387 q 358 394 359 391 q 356 398 357 397 q 351 407 354 402 l 314 475 l 121 475 q 113 496 113 475 q 121 517 113 517 l 290 517 q 75 883 85 883 l 35 883 q 15 888 20 883 q 10 908 10 892 q 15 929 10 925 q 35 933 20 933 l 182 929 l 346 933 q 361 928 357 933 q 365 906 365 922 q 361 887 365 890 q 340 883 357 883 l 258 883 q 244 881 245 883 q 251 858 242 879 q 299 762 260 837 q 386 599 337 688 q 440 498 434 510 q 448 482 446 487 q 453 474 451 476 q 456 471 454 472 q 498 545 460 471 q 558 660 537 619 q 596 735 579 701 q 628 800 613 768 q 660 875 660 867 q 657 883 660 883 l 585 883 q 561 887 567 883 q 555 906 555 890 q 560 928 555 922 q 579 933 565 933 l 688 929 l 793 933 q 814 929 808 933 q 820 908 820 924 q 814 888 820 892 q 793 883 808 883 l 746 883 q 650 721 742 883 q 533 517 558 559 l 733 517 q 742 496 742 517 q 733 475 742 475 l 508 475 l 492 447 q 488 435 488 442 l 488 347 l 733 347 q 742 326 742 347 q 733 306 742 306 l 488 306 q 500 42 490 42 l 596 42 q 612 37 608 42 q 615 18 615 32 q 612 -3 615 3 q 596 -8 608 -8 l 429 -4 z "},"":{"ha":343,"x_min":135,"x_max":208,"o":"m 135 -260 l 135 262 q 154 286 135 286 l 189 286 q 208 262 208 286 l 208 -260 q 202 -291 208 -287 q 188 -294 195 -294 l 158 -294 q 138 -288 142 -294 q 135 -260 135 -282 m 135 526 l 135 1036 q 142 1057 135 1053 q 164 1062 149 1062 l 174 1062 q 202 1058 195 1062 q 208 1035 208 1054 l 208 526 q 203 502 208 508 q 185 496 198 496 l 160 496 q 140 501 145 496 q 135 526 135 507 z "},"":{"ha":529,"x_min":52,"x_max":478,"o":"m 233 -318 q 86 -253 86 -318 q 99 -227 86 -237 q 126 -217 112 -217 q 150 -219 140 -217 q 173 -227 159 -222 q 212 -242 186 -233 q 285 -251 238 -251 q 385 -183 385 -251 q 319 -54 385 -144 q 254 32 289 -14 q 183 129 218 78 q 118 230 147 180 q 52 431 52 342 q 70 509 52 478 q 103 555 89 539 q 149 597 124 579 q 145 618 157 603 q 121 655 133 634 q 83 782 83 718 q 132 896 83 847 q 261 944 180 944 q 412 905 374 944 q 424 878 424 893 q 368 835 424 835 q 312 846 334 835 q 275 865 289 858 q 207 881 242 881 q 140 825 140 881 q 208 690 140 781 q 273 604 237 650 q 345 506 309 557 q 411 402 381 454 q 478 183 478 285 q 423 78 478 122 q 402 62 415 72 q 374 37 374 42 q 382 18 374 33 q 440 -142 440 -88 q 385 -269 440 -221 q 233 -318 329 -318 m 160 571 q 114 492 114 535 q 343 75 114 392 q 355 64 352 64 q 371 75 358 64 q 414 139 414 116 q 406 192 414 163 q 384 249 397 220 q 351 312 371 277 q 314 375 332 347 q 273 437 296 402 q 235 491 250 471 q 202 537 221 511 q 179 568 183 563 q 174 575 175 574 q 171 577 173 576 q 166 576 168 578 q 160 571 164 575 z "},"":{"ha":555,"x_min":92,"x_max":464,"o":"z "},"":{"ha":1171,"x_min":71,"x_max":1096,"o":"m 89 123 q 80 157 89 123 q 71 262 71 191 q 89 402 71 334 q 139 527 107 469 q 218 632 172 584 q 321 713 265 680 q 445 765 377 746 q 583 783 512 783 q 722 765 655 783 q 845 713 789 747 q 948 633 902 680 q 1027 528 995 585 q 1096 262 1096 407 q 948 -107 1096 44 q 722 -240 854 -204 q 583 -258 655 -258 q 445 -240 512 -258 q 321 -188 377 -221 q 218 -107 265 -155 q 139 -2 172 -59 q 89 123 107 56 m 142 387 q 134 356 142 387 q 126 262 126 326 q 142 138 126 199 q 187 26 158 78 q 258 -68 216 -25 q 350 -142 300 -112 q 460 -189 400 -172 q 583 -205 519 -205 q 707 -189 647 -205 q 817 -142 767 -172 q 909 -68 867 -112 q 979 26 950 -25 q 1024 138 1008 78 q 1040 262 1040 199 q 1024 387 1040 326 q 979 499 1008 447 q 909 593 950 550 q 817 667 867 636 q 707 714 767 697 q 583 730 647 730 q 460 714 519 730 q 350 667 400 697 q 258 593 300 636 q 187 499 216 550 q 142 387 158 447 m 781 370 l 785 450 q 756 483 785 461 q 704 520 727 506 q 584 553 647 553 q 471 517 521 553 q 394 418 422 481 q 367 279 367 355 q 399 142 367 203 q 488 44 432 80 q 595 8 544 8 q 680 16 647 8 q 734 33 713 23 q 770 53 755 43 q 794 71 785 63 q 807 78 803 78 q 818 64 810 78 q 826 47 826 51 q 817 33 826 42 q 786 10 807 23 q 738 -14 765 -3 q 603 -42 672 -42 q 488 -29 534 -42 q 402 9 442 -17 q 332 72 362 35 q 268 279 268 153 q 361 505 268 419 q 590 589 453 589 q 676 577 645 589 q 717 561 707 566 q 738 550 727 556 q 755 539 749 543 q 768 530 760 535 q 780 521 776 524 q 785 525 785 517 l 785 551 q 801 564 785 564 q 822 564 818 564 q 830 551 830 562 l 828 375 q 804 358 828 358 q 781 370 781 358 z "},"":{"ha":489,"x_min":44,"x_max":478,"o":"z "},"":{"ha":567,"x_min":65,"x_max":489,"o":"m 290 245 q 286 250 290 245 q 277 260 281 254 q 274 269 274 265 q 283 283 274 273 q 316 315 292 293 q 356 351 339 336 q 401 395 373 367 q 465 455 462 455 q 478 446 467 455 q 489 433 489 437 q 445 352 489 429 q 401 268 401 275 q 445 185 401 261 q 489 103 489 109 q 478 89 489 98 q 465 81 468 81 q 446 96 462 81 q 401 141 430 112 q 358 183 372 170 q 329 209 343 196 q 307 230 314 223 q 290 245 299 236 m 82 245 q 77 250 82 245 q 69 260 73 254 q 65 269 65 265 q 75 283 65 273 q 108 315 84 293 q 148 351 131 336 q 193 395 164 367 q 257 455 254 455 q 270 446 259 455 q 280 433 280 437 q 237 352 280 429 q 193 268 193 275 q 237 185 193 261 q 280 103 280 109 q 270 89 280 98 q 257 81 259 81 q 238 96 254 81 q 193 141 222 112 q 150 183 164 170 q 121 209 135 196 q 99 230 106 223 q 82 245 91 236 z "},"":{"ha":732,"x_min":39,"x_max":694,"o":"m 624 237 q 592 257 624 257 l 70 257 q 44 266 50 257 q 39 299 39 276 q 70 327 39 327 l 663 327 q 688 320 682 327 q 694 296 694 314 l 694 76 q 668 52 694 52 q 627 66 633 52 q 624 83 624 72 l 624 237 z "},"":{"ha":358,"x_min":29,"x_max":321,"o":"m 307 282 q 172 276 291 281 q 41 271 53 271 q 29 280 29 271 q 38 313 29 289 q 56 339 47 338 q 186 344 65 340 q 314 349 307 349 q 321 334 321 349 q 317 301 321 320 q 307 282 313 283 z "},"":{"ha":744,"x_min":31,"x_max":714,"o":"m 57 517 q 44 549 57 517 q 31 653 31 581 q 57 789 31 725 q 128 899 83 853 q 237 973 174 946 q 372 1000 301 1000 q 507 973 444 1000 q 616 900 571 946 q 687 789 661 854 q 714 653 714 725 q 687 517 714 581 q 616 406 661 452 q 507 333 571 360 q 372 306 444 306 q 237 333 301 306 q 128 406 174 360 q 57 517 83 452 m 113 807 q 93 772 113 807 q 74 653 74 736 q 113 499 74 569 q 220 387 152 428 q 362 346 289 346 q 490 370 435 346 q 585 436 546 394 q 648 533 625 477 q 671 653 671 590 q 648 772 671 715 q 585 870 625 829 q 490 935 546 911 q 362 960 435 960 q 220 918 289 960 q 113 807 152 877 m 218 451 q 204 466 204 451 q 208 482 204 480 q 221 485 212 485 l 246 485 q 249 561 249 513 l 249 645 q 243 856 249 826 l 210 854 q 197 857 201 854 q 193 870 193 861 q 196 884 193 880 q 210 889 199 889 l 283 887 l 376 892 q 512 825 483 892 q 521 777 521 804 q 439 669 521 712 q 543 519 538 634 q 545 493 544 502 q 546 485 546 485 l 576 485 q 586 480 584 485 q 588 464 588 476 q 572 451 588 451 l 486 453 q 472 467 472 453 l 472 504 q 466 580 472 561 q 454 610 460 598 q 439 628 448 621 q 393 648 418 645 q 315 651 367 651 l 313 651 q 318 485 313 529 l 354 485 q 365 468 365 485 q 354 451 365 451 l 282 453 l 218 451 m 343 861 l 314 860 q 313 832 313 853 l 313 681 l 315 681 l 401 679 q 453 768 453 705 q 420 836 453 810 q 343 861 388 861 z "},"":{"ha":555,"x_min":132,"x_max":424,"o":"m 132 720 l 132 751 q 134 765 132 763 q 143 767 137 767 l 411 767 q 421 764 418 767 q 424 753 424 761 l 424 718 q 422 705 424 708 q 411 703 420 703 l 143 703 q 134 706 136 703 q 132 720 132 709 z "},"":{"ha":355,"x_min":52,"x_max":304,"o":"m 89 654 q 70 672 89 654 q 52 743 52 691 q 89 832 52 795 q 178 869 125 869 q 267 832 230 869 q 304 743 304 795 q 267 654 304 691 q 178 617 230 617 q 89 654 125 617 m 125 796 q 114 785 125 796 q 103 743 103 774 q 125 690 103 712 q 178 668 146 668 q 231 690 209 668 q 253 743 253 712 q 231 796 253 774 q 178 818 209 818 q 125 796 146 818 z "},"":{"ha":732,"x_min":39,"x_max":693,"o":"m 67 97 q 39 122 39 97 q 52 164 39 158 q 68 167 58 167 l 664 167 q 687 160 681 167 q 693 134 693 152 q 687 107 693 116 q 660 97 681 97 l 67 97 m 400 211 q 375 188 400 188 q 340 192 350 188 q 331 211 331 196 l 331 397 q 328 411 331 409 q 313 414 326 414 l 67 414 q 44 422 47 414 q 39 450 39 433 q 68 485 39 485 l 319 485 q 329 487 327 485 q 331 494 331 489 l 331 688 q 356 712 331 712 q 391 707 382 712 q 400 685 400 701 l 400 496 q 413 485 400 485 l 667 485 q 693 460 693 485 q 688 424 693 429 q 660 414 677 414 l 413 414 q 402 410 405 414 q 400 394 400 406 l 400 211 z "},"":{"ha":500,"x_min":52,"x_max":446,"o":"z "},"":{"ha":500,"x_min":86,"x_max":442,"o":"z "},"":{"ha":555,"x_min":253,"x_max":424,"o":"m 262 620 q 253 625 253 620 q 255 636 253 631 l 323 817 q 365 854 337 854 q 409 841 394 854 q 424 811 424 828 q 412 778 424 794 l 298 629 q 284 620 291 620 l 262 620 z "},"":{"ha":707,"x_min":31,"x_max":663,"o":"m 492 -28 q 440 65 440 -28 q 451 177 440 99 q 463 256 463 254 q 462 259 463 259 q 444 229 462 259 q 403 165 426 199 l 369 115 q 313 40 329 57 q 283 11 297 24 q 254 -8 268 -1 q 145 1 176 -49 q 128 40 133 21 q 120 59 122 59 q 113 37 118 59 q 101 -36 108 15 q 95 -107 95 -86 q 103 -152 95 -129 q 120 -193 111 -175 q 128 -216 128 -211 q 126 -226 128 -220 q 119 -240 123 -232 q 84 -258 107 -258 q 46 -240 61 -258 q 31 -183 31 -222 q 39 -92 31 -144 q 59 1 48 -40 q 117 229 103 166 q 142 340 131 291 q 163 425 154 389 q 178 480 173 461 q 190 510 184 499 q 208 526 198 526 q 267 498 267 526 q 253 441 267 488 q 196 178 210 286 q 192 118 192 124 q 228 57 192 57 q 379 202 287 57 q 506 458 445 307 q 530 518 525 509 q 548 528 535 528 q 581 521 561 528 q 602 503 602 515 q 567 316 602 499 q 532 109 532 133 q 542 75 532 84 q 565 65 551 65 q 592 80 578 65 q 613 112 605 95 q 648 158 633 158 q 663 137 663 158 q 649 87 663 115 q 613 34 635 60 q 558 -10 591 8 q 492 -28 526 -28 z "},"":{"ha":683,"x_min":52,"x_max":632,"o":"m 52 575 q 63 670 52 628 q 95 745 75 713 q 142 803 115 777 q 199 847 169 829 q 261 876 229 864 q 379 899 321 899 q 396 894 392 899 q 400 879 400 890 l 400 225 q 389 210 400 210 q 215 268 309 210 q 101 386 147 311 q 52 575 52 467 m 400 -325 q 385 -310 385 -325 l 385 -285 q 400 -270 385 -270 l 483 -270 q 493 -269 491 -270 q 494 -262 494 -268 l 494 895 q 498 909 494 906 q 511 912 501 912 l 617 912 q 629 908 627 912 q 632 893 632 904 l 632 873 q 627 858 632 860 q 617 857 623 857 l 547 857 q 541 856 542 857 q 540 847 540 854 l 540 -311 q 538 -323 540 -321 q 522 -325 536 -325 l 400 -325 z "},"":{"ha":204,"x_min":31,"x_max":180,"o":"m 95 401 q 81 401 95 401 q 48 417 66 401 q 31 460 31 433 q 45 507 31 487 q 109 543 74 543 q 180 483 180 543 q 152 425 180 448 q 95 401 124 401 z "},"":{"ha":555,"x_min":158,"x_max":429,"o":"m 158 -272 q 172 -258 158 -258 q 186 -263 175 -258 q 263 -279 223 -279 q 344 -205 344 -279 q 272 -147 344 -147 q 239 -153 256 -147 q 220 -160 222 -160 q 211 -156 217 -160 q 205 -148 205 -152 q 228 -87 205 -145 q 262 0 250 -29 l 294 0 l 261 -92 q 261 -96 260 -96 q 276 -93 262 -97 q 312 -90 289 -90 q 360 -99 336 -90 q 398 -123 384 -108 q 429 -183 429 -153 q 418 -236 429 -213 q 389 -278 408 -259 q 278 -321 347 -321 q 208 -309 239 -321 q 158 -272 158 -291 z "},"":{"ha":500,"x_min":128,"x_max":392,"o":"z "},"":{"ha":533,"x_min":38,"x_max":496,"o":"z "},"":{"ha":567,"x_min":78,"x_max":501,"o":"m 310 81 q 309 81 310 81 q 297 90 308 81 q 286 103 286 99 q 330 184 286 106 q 373 268 373 261 q 330 352 373 275 q 286 433 286 428 q 297 447 286 438 q 310 455 307 455 q 329 440 313 455 q 374 395 345 424 q 417 353 402 367 q 446 327 432 340 q 468 307 460 314 q 485 291 476 300 q 501 269 501 274 q 492 253 501 263 q 459 221 483 243 q 418 184 435 200 q 373 141 402 169 q 310 81 313 81 m 102 81 q 101 81 102 81 q 89 90 99 81 q 78 103 78 99 q 121 184 78 106 q 165 268 165 261 q 121 352 165 275 q 78 433 78 428 q 88 447 78 438 q 102 455 99 455 q 121 440 104 455 q 165 395 137 424 q 209 353 194 367 q 238 327 223 340 q 260 307 252 314 q 276 291 268 300 q 293 269 293 274 q 284 253 293 263 q 251 221 275 243 q 210 184 227 200 q 165 141 194 169 q 102 81 104 81 z "},"":{"ha":1075,"x_min":128,"x_max":1039,"o":"m 950 3 q 938 -13 950 -13 l 878 -18 q 865 -3 865 -18 l 869 171 q 868 177 869 176 q 860 178 867 178 l 647 178 q 620 192 620 178 q 641 258 620 221 q 724 373 663 296 q 881 543 834 511 q 899 560 888 550 q 927 579 917 579 q 943 568 937 579 q 949 545 949 557 l 949 250 q 949 245 949 246 q 954 244 950 244 l 1025 244 q 1039 227 1039 244 l 1039 196 q 1018 178 1039 178 l 954 178 q 950 174 950 178 l 950 3 m 864 244 q 869 251 869 244 l 869 482 q 770 364 836 446 q 683 244 705 282 l 864 244 m 339 -4 q 326 -20 331 -17 q 296 -22 321 -22 q 271 -14 271 -22 q 275 -6 271 -13 q 279 3 278 1 l 847 917 q 851 922 848 918 q 854 926 853 926 q 859 929 855 927 q 889 932 864 932 q 914 924 914 932 q 911 918 914 922 q 908 912 909 913 l 339 -4 z "},"":{"ha":1172,"x_min":128,"x_max":1118,"o":"m 760 -4 q 738 13 738 -4 q 765 65 738 22 q 798 113 793 109 q 818 129 803 117 q 840 148 832 141 q 864 170 848 155 q 890 195 880 184 q 916 223 901 206 q 940 254 930 240 q 961 287 950 268 q 978 322 971 305 q 993 393 993 361 q 982 451 993 426 q 948 492 971 475 q 897 508 925 508 q 847 500 869 508 q 808 478 824 491 q 780 453 792 466 q 744 424 750 424 q 731 431 738 424 q 724 445 724 438 q 732 467 724 452 q 759 500 741 481 q 798 535 776 518 q 912 575 850 575 q 1053 496 1007 575 q 1078 417 1078 454 q 1068 350 1078 380 q 1044 294 1058 319 q 1007 242 1029 269 q 966 196 985 215 q 923 156 947 177 q 867 111 890 128 q 826 74 843 94 l 1072 74 q 1080 142 1074 85 q 1099 154 1080 155 q 1118 142 1118 153 q 1110 79 1118 135 q 1100 9 1102 22 q 1079 -4 1099 -4 l 760 -4 m 339 -4 q 326 -20 331 -17 q 296 -22 321 -22 q 271 -14 271 -22 q 275 -6 271 -13 q 279 3 278 1 l 847 917 q 851 922 848 918 q 854 926 853 926 q 859 929 855 927 q 889 932 864 932 q 914 924 914 932 q 911 918 914 922 q 908 912 909 913 l 339 -4 z "},"":{"ha":1075,"x_min":86,"x_max":1039,"o":"m 950 3 q 938 -13 950 -13 l 878 -18 q 865 -3 865 -18 l 869 171 q 868 177 869 176 q 860 178 867 178 l 647 178 q 620 192 620 178 q 641 258 620 221 q 724 373 663 296 q 881 543 834 511 q 899 560 888 550 q 927 579 917 579 q 943 568 937 579 q 949 545 949 557 l 949 250 q 949 245 949 246 q 954 244 950 244 l 1025 244 q 1039 227 1039 244 l 1039 196 q 1018 178 1039 178 l 954 178 q 950 174 950 178 l 950 3 m 864 244 q 869 251 869 244 l 869 482 q 770 364 836 446 q 683 244 705 282 l 864 244 m 339 -4 q 326 -20 331 -17 q 296 -22 321 -22 q 271 -14 271 -22 q 275 -6 271 -13 q 279 3 278 1 l 847 917 q 851 922 848 918 q 854 926 853 926 q 859 929 855 927 q 889 932 864 932 q 914 924 914 932 q 911 918 914 922 q 908 912 909 913 l 339 -4 z "},"":{"ha":505,"x_min":38,"x_max":426,"o":"m 426 13 q 410 -15 426 -15 q 389 10 397 -15 q 383 19 386 19 q 250 50 299 33 q 38 333 38 122 q 94 529 38 469 q 231 579 140 579 q 255 582 250 579 q 261 598 260 585 q 272 721 271 707 q 276 738 272 736 q 296 740 279 740 q 316 737 312 740 q 319 713 319 734 q 318 509 319 535 q 307 478 316 483 q 278 472 299 472 l 194 472 q 87 415 109 472 q 78 348 78 390 q 96 265 78 306 q 153 191 115 224 q 399 99 233 119 q 420 93 417 97 q 426 75 426 85 l 426 13 m 278 785 q 269 790 278 785 q 243 811 259 794 q 228 847 228 828 q 240 887 228 866 q 266 919 252 907 q 300 930 281 930 q 348 906 319 930 q 376 865 376 882 q 366 827 376 848 q 339 792 355 807 q 311 777 324 777 q 278 785 297 777 z "},"":{"ha":969,"x_min":38,"x_max":946,"o":"m 380 1101 q 360 1138 360 1118 q 406 1181 360 1181 q 457 1144 434 1181 l 531 1025 q 533 1022 531 1024 q 536 1013 536 1017 q 524 1008 536 1008 l 494 1008 q 487 1013 493 1008 q 480 1018 482 1017 l 380 1101 m 162 -4 l 57 -8 q 40 -4 43 -8 q 38 18 38 1 q 42 38 38 35 q 62 42 45 42 l 104 42 q 288 460 117 42 q 304 498 303 495 l 451 840 q 475 877 457 854 q 504 923 494 900 q 532 958 520 958 q 549 946 546 958 l 715 478 q 882 42 872 42 l 930 42 q 943 37 940 42 q 946 18 946 33 q 943 -3 946 3 q 930 -8 940 -8 l 801 -4 l 642 -8 q 626 -3 629 -8 q 624 19 624 2 q 627 38 624 35 q 647 42 631 42 l 724 42 q 725 52 725 42 q 690 169 725 61 q 639 324 655 277 q 620 375 623 371 q 607 378 617 378 l 327 378 q 307 374 312 378 q 297 356 303 370 q 185 43 186 75 l 186 42 l 293 42 q 307 37 304 42 q 310 22 310 33 q 309 8 310 12 q 309 1 309 5 q 306 -5 308 -3 q 293 -8 302 -8 l 162 -4 m 592 419 q 604 424 604 419 q 600 439 604 428 l 485 777 q 477 793 480 793 q 468 777 474 793 l 332 443 q 325 423 325 426 q 343 419 325 419 l 592 419 z "},"":{"ha":969,"x_min":38,"x_max":946,"o":"m 503 1008 q 494 1011 494 1008 q 495 1017 494 1014 q 498 1022 496 1019 q 500 1025 500 1024 l 574 1144 q 622 1181 598 1181 q 659 1170 647 1181 q 671 1139 671 1158 q 650 1101 671 1120 l 550 1018 q 546 1014 549 1017 q 536 1008 541 1008 l 503 1008 m 162 -4 l 57 -8 q 40 -4 43 -8 q 38 18 38 1 q 42 38 38 35 q 62 42 45 42 l 104 42 q 288 460 117 42 q 304 498 303 495 l 451 840 q 475 877 457 854 q 504 923 494 900 q 532 958 520 958 q 549 946 546 958 l 715 478 q 882 42 872 42 l 930 42 q 943 37 940 42 q 946 18 946 33 q 943 -3 946 3 q 930 -8 940 -8 l 801 -4 l 642 -8 q 626 -3 629 -8 q 624 19 624 2 q 627 38 624 35 q 647 42 631 42 l 724 42 q 725 52 725 42 q 690 169 725 61 q 639 324 655 277 q 620 375 623 371 q 607 378 617 378 l 327 378 q 307 374 312 378 q 297 356 303 370 q 185 43 186 75 l 186 42 l 293 42 q 307 37 304 42 q 310 22 310 33 q 309 8 310 12 q 309 1 309 5 q 306 -5 308 -3 q 293 -8 302 -8 l 162 -4 m 592 419 q 604 424 604 419 q 600 439 604 428 l 485 777 q 477 793 480 793 q 468 777 474 793 l 332 443 q 325 423 325 426 q 343 419 325 419 l 592 419 z "},"":{"ha":969,"x_min":38,"x_max":946,"o":"m 365 1008 q 356 1012 356 1008 q 357 1018 356 1016 q 361 1023 358 1021 q 364 1026 363 1025 l 474 1150 q 479 1157 476 1153 q 484 1162 483 1161 q 499 1170 492 1170 l 532 1170 q 557 1150 542 1170 l 667 1026 q 675 1013 675 1018 q 665 1008 675 1008 l 649 1008 q 631 1017 644 1008 l 519 1079 q 511 1079 515 1081 l 400 1017 q 382 1008 387 1008 l 365 1008 m 162 -4 l 57 -8 q 40 -4 43 -8 q 38 18 38 1 q 42 38 38 35 q 62 42 45 42 l 104 42 q 288 460 117 42 q 304 498 303 495 l 451 840 q 475 877 457 854 q 504 923 494 900 q 532 958 520 958 q 549 946 546 958 l 715 478 q 882 42 872 42 l 930 42 q 943 37 940 42 q 946 18 946 33 q 943 -3 946 3 q 930 -8 940 -8 l 801 -4 l 642 -8 q 626 -3 629 -8 q 624 19 624 2 q 627 38 624 35 q 647 42 631 42 l 724 42 q 725 52 725 42 q 690 169 725 61 q 639 324 655 277 q 620 375 623 371 q 607 378 617 378 l 327 378 q 307 374 312 378 q 297 356 303 370 q 185 43 186 75 l 186 42 l 293 42 q 307 37 304 42 q 310 22 310 33 q 309 8 310 12 q 309 1 309 5 q 306 -5 308 -3 q 293 -8 302 -8 l 162 -4 m 592 419 q 604 424 604 419 q 600 439 604 428 l 485 777 q 477 793 480 793 q 468 777 474 793 l 332 443 q 325 423 325 426 q 343 419 325 419 l 592 419 z "},"":{"ha":969,"x_min":38,"x_max":946,"o":"m 162 -4 l 57 -8 q 40 -4 43 -8 q 38 18 38 1 q 42 38 38 35 q 62 42 45 42 l 104 42 q 288 460 117 42 q 304 498 303 495 l 451 840 q 475 877 457 854 q 504 923 494 900 q 532 958 520 958 q 549 946 546 958 l 715 478 q 882 42 872 42 l 930 42 q 943 37 940 42 q 946 18 946 33 q 943 -3 946 3 q 930 -8 940 -8 l 801 -4 l 642 -8 q 626 -3 629 -8 q 624 19 624 2 q 627 38 624 35 q 647 42 631 42 l 724 42 q 725 52 725 42 q 690 169 725 61 q 639 324 655 277 q 620 375 623 371 q 607 378 617 378 l 327 378 q 307 374 312 378 q 297 356 303 370 q 185 43 186 75 l 186 42 l 293 42 q 307 37 304 42 q 310 22 310 33 q 309 8 310 12 q 309 1 309 5 q 306 -5 308 -3 q 293 -8 302 -8 l 162 -4 m 592 419 q 604 424 604 419 q 600 439 604 428 l 485 777 q 477 793 480 793 q 468 777 474 793 l 332 443 q 325 423 325 426 q 343 419 325 419 l 592 419 z "},"":{"ha":969,"x_min":38,"x_max":946,"o":"m 162 -4 l 57 -8 q 40 -4 43 -8 q 38 18 38 1 q 42 38 38 35 q 62 42 45 42 l 104 42 q 288 460 117 42 q 304 498 303 495 l 451 840 q 475 877 457 854 q 504 923 494 900 q 532 958 520 958 q 549 946 546 958 l 715 478 q 882 42 872 42 l 930 42 q 943 37 940 42 q 946 18 946 33 q 943 -3 946 3 q 930 -8 940 -8 l 801 -4 l 642 -8 q 626 -3 629 -8 q 624 19 624 2 q 627 38 624 35 q 647 42 631 42 l 724 42 q 725 52 725 42 q 690 169 725 61 q 639 324 655 277 q 620 375 623 371 q 607 378 617 378 l 327 378 q 307 374 312 378 q 297 356 303 370 q 185 43 186 75 l 186 42 l 293 42 q 307 37 304 42 q 310 22 310 33 q 309 8 310 12 q 309 1 309 5 q 306 -5 308 -3 q 293 -8 302 -8 l 162 -4 m 592 419 q 604 424 604 419 q 600 439 604 428 l 485 777 q 477 793 480 793 q 468 777 474 793 l 332 443 q 325 423 325 426 q 343 419 325 419 l 592 419 z "},"":{"ha":969,"x_min":38,"x_max":946,"o":"m 162 -4 l 57 -8 q 40 -4 43 -8 q 38 18 38 1 q 42 38 38 35 q 62 42 45 42 l 104 42 q 288 460 117 42 q 304 498 303 495 l 451 840 q 475 877 457 854 q 504 923 494 900 q 532 958 520 958 q 549 946 546 958 l 715 478 q 882 42 872 42 l 930 42 q 943 37 940 42 q 946 18 946 33 q 943 -3 946 3 q 930 -8 940 -8 l 801 -4 l 642 -8 q 626 -3 629 -8 q 624 19 624 2 q 627 38 624 35 q 647 42 631 42 l 724 42 q 725 52 725 42 q 690 169 725 61 q 639 324 655 277 q 620 375 623 371 q 607 378 617 378 l 327 378 q 307 374 312 378 q 297 356 303 370 q 185 43 186 75 l 186 42 l 293 42 q 307 37 304 42 q 310 22 310 33 q 309 8 310 12 q 309 1 309 5 q 306 -5 308 -3 q 293 -8 302 -8 l 162 -4 m 592 419 q 604 424 604 419 q 600 439 604 428 l 485 777 q 477 793 480 793 q 468 777 474 793 l 332 443 q 325 423 325 426 q 343 419 325 419 l 592 419 z "},"":{"ha":1351,"x_min":24,"x_max":1307,"o":"m 146 -4 l 42 -8 q 27 -3 30 -8 q 24 18 24 2 q 29 38 24 35 q 53 42 35 42 l 92 42 q 153 127 102 42 q 300 371 259 304 l 607 871 q 607 878 609 877 q 600 879 606 879 l 531 879 q 518 884 520 879 q 515 903 515 889 q 518 923 515 918 q 531 928 522 928 q 743 924 531 928 l 1093 928 q 1166 929 1156 928 q 1178 942 1178 930 q 1187 961 1181 960 q 1204 963 1193 963 q 1222 959 1216 963 q 1228 943 1228 956 l 1222 760 q 1217 747 1222 750 q 1196 744 1211 744 q 1171 765 1171 744 l 1175 872 q 1043 879 1175 876 q 804 882 910 882 q 796 766 796 882 q 797 574 796 650 q 800 496 799 498 q 811 493 802 493 l 1043 493 q 1115 511 1115 493 l 1115 583 q 1141 597 1115 597 q 1167 585 1167 597 l 1164 474 l 1167 356 q 1141 343 1167 343 q 1115 357 1115 343 l 1115 426 q 1043 447 1115 447 q 866 447 925 447 q 805 447 807 447 q 802 446 803 447 q 801 444 802 446 q 799 441 800 443 q 799 437 799 439 q 803 243 799 434 q 814 52 807 52 l 1239 56 q 1248 60 1246 56 q 1251 86 1249 63 q 1256 207 1253 108 q 1281 219 1256 219 q 1307 205 1307 219 l 1303 11 q 1275 -8 1303 -8 l 754 -4 l 582 -8 q 565 -4 568 -8 q 563 18 563 1 q 567 38 563 34 q 588 42 571 42 l 675 42 q 681 142 681 42 l 681 361 q 643 378 681 378 l 367 378 q 268 215 359 378 q 176 43 176 53 l 178 42 l 267 42 q 282 37 279 42 q 286 18 286 32 q 282 -3 286 3 q 267 -8 279 -8 l 146 -4 m 681 626 q 669 879 681 879 l 664 879 q 653 868 660 879 l 400 443 q 392 424 392 429 q 410 419 392 419 q 660 419 535 419 q 681 433 681 419 l 681 626 z "},"":{"ha":1015,"x_min":58,"x_max":929,"o":"m 893 308 l 908 307 q 929 292 929 305 q 907 100 929 271 q 874 68 905 88 q 796 26 843 47 q 557 -26 680 -24 l 533 -92 q 534 -96 532 -96 q 548 -93 535 -97 q 585 -90 562 -90 q 632 -99 608 -90 q 671 -123 656 -108 q 701 -183 701 -153 q 691 -236 701 -213 q 661 -278 680 -259 q 550 -321 619 -321 q 480 -309 512 -321 q 431 -272 431 -291 q 445 -258 431 -258 q 459 -263 447 -258 q 536 -279 496 -279 q 617 -205 617 -279 q 545 -147 617 -147 q 512 -153 529 -147 q 492 -160 494 -160 q 484 -156 490 -160 q 478 -147 478 -152 q 524 -26 478 -143 q 293 33 399 -22 q 124 195 188 87 q 58 465 58 306 q 260 863 58 725 q 558 949 386 949 q 835 857 708 949 q 852 845 848 848 q 859 841 855 842 q 864 841 862 839 q 865 849 865 843 l 865 886 q 870 904 865 899 q 891 908 874 908 q 915 904 907 908 q 922 886 922 900 l 917 611 q 911 595 917 598 q 889 592 906 592 q 865 595 871 592 q 860 610 860 599 l 865 738 q 821 789 865 753 q 740 846 777 824 q 549 899 651 899 q 271 724 371 899 q 208 463 208 614 q 238 298 208 376 q 319 162 268 219 q 441 70 370 104 q 572 36 511 36 q 676 44 633 36 q 750 64 719 52 q 806 89 781 76 q 856 126 854 115 l 873 288 q 893 308 877 308 z "},"":{"ha":840,"x_min":52,"x_max":796,"o":"m 304 1101 q 283 1138 283 1118 q 329 1181 283 1181 q 381 1144 357 1181 l 454 1025 q 456 1022 455 1024 q 460 1013 460 1017 q 447 1008 460 1008 l 418 1008 q 411 1013 416 1008 q 404 1018 406 1017 l 304 1101 m 243 -4 l 74 -8 q 55 -3 59 -8 q 52 18 52 2 q 57 38 52 34 q 79 42 62 42 l 164 42 q 170 142 170 42 l 170 275 l 164 683 q 159 829 164 779 q 151 879 154 879 l 86 879 q 67 883 72 879 q 62 908 62 887 q 81 928 62 928 l 142 926 q 232 924 203 924 l 582 928 q 659 930 652 928 q 666 939 666 932 q 667 945 667 941 q 669 952 668 949 q 671 958 669 954 q 690 963 675 963 q 711 959 705 963 q 717 943 717 956 l 711 760 q 706 747 711 750 q 685 744 700 744 q 660 765 660 744 l 664 872 q 531 879 664 876 q 293 882 399 882 q 285 766 285 882 q 286 574 285 650 q 289 496 288 498 q 300 493 291 493 l 532 493 q 604 511 604 493 l 604 583 q 630 597 604 597 q 655 585 655 597 l 653 474 l 655 356 q 630 343 655 343 q 604 357 604 343 l 604 426 q 532 447 604 447 q 355 447 414 447 q 294 447 296 447 q 291 446 292 447 q 290 444 291 446 q 288 441 289 443 q 288 437 288 439 q 292 243 288 434 q 303 52 296 52 l 728 56 q 736 60 735 56 q 740 83 738 64 q 744 207 742 102 q 770 219 744 219 q 796 205 796 219 l 792 11 q 764 -8 792 -8 l 243 -4 z "},"":{"ha":840,"x_min":52,"x_max":796,"o":"m 427 1008 q 418 1011 418 1008 q 419 1017 418 1014 q 422 1022 420 1019 q 424 1025 424 1024 l 497 1144 q 546 1181 522 1181 q 583 1170 570 1181 q 595 1139 595 1158 q 574 1101 595 1120 l 474 1018 q 470 1014 472 1017 q 460 1008 465 1008 l 427 1008 m 243 -4 l 74 -8 q 55 -3 59 -8 q 52 18 52 2 q 57 38 52 34 q 79 42 62 42 l 164 42 q 170 142 170 42 l 170 275 l 164 683 q 159 829 164 779 q 151 879 154 879 l 86 879 q 67 883 72 879 q 62 908 62 887 q 81 928 62 928 l 142 926 q 232 924 203 924 l 582 928 q 659 930 652 928 q 666 939 666 932 q 667 945 667 941 q 669 952 668 949 q 671 958 669 954 q 690 963 675 963 q 711 959 705 963 q 717 943 717 956 l 711 760 q 706 747 711 750 q 685 744 700 744 q 660 765 660 744 l 664 872 q 531 879 664 876 q 293 882 399 882 q 285 766 285 882 q 286 574 285 650 q 289 496 288 498 q 300 493 291 493 l 532 493 q 604 511 604 493 l 604 583 q 630 597 604 597 q 655 585 655 597 l 653 474 l 655 356 q 630 343 655 343 q 604 357 604 343 l 604 426 q 532 447 604 447 q 355 447 414 447 q 294 447 296 447 q 291 446 292 447 q 290 444 291 446 q 288 441 289 443 q 288 437 288 439 q 292 243 288 434 q 303 52 296 52 l 728 56 q 736 60 735 56 q 740 83 738 64 q 744 207 742 102 q 770 219 744 219 q 796 205 796 219 l 792 11 q 764 -8 792 -8 l 243 -4 z "},"":{"ha":840,"x_min":52,"x_max":796,"o":"m 289 1008 q 279 1012 279 1008 q 281 1018 279 1016 q 284 1023 282 1021 q 288 1026 287 1025 l 397 1150 q 403 1157 400 1153 q 408 1162 407 1161 q 422 1170 415 1170 l 456 1170 q 481 1150 466 1170 l 590 1026 q 599 1013 599 1018 q 589 1008 599 1008 l 572 1008 q 554 1017 568 1008 l 443 1079 q 435 1079 439 1081 l 324 1017 q 306 1008 310 1008 l 289 1008 m 243 -4 l 74 -8 q 55 -3 59 -8 q 52 18 52 2 q 57 38 52 34 q 79 42 62 42 l 164 42 q 170 142 170 42 l 170 275 l 164 683 q 159 829 164 779 q 151 879 154 879 l 86 879 q 67 883 72 879 q 62 908 62 887 q 81 928 62 928 l 142 926 q 232 924 203 924 l 582 928 q 659 930 652 928 q 666 939 666 932 q 667 945 667 941 q 669 952 668 949 q 671 958 669 954 q 690 963 675 963 q 711 959 705 963 q 717 943 717 956 l 711 760 q 706 747 711 750 q 685 744 700 744 q 660 765 660 744 l 664 872 q 531 879 664 876 q 293 882 399 882 q 285 766 285 882 q 286 574 285 650 q 289 496 288 498 q 300 493 291 493 l 532 493 q 604 511 604 493 l 604 583 q 630 597 604 597 q 655 585 655 597 l 653 474 l 655 356 q 630 343 655 343 q 604 357 604 343 l 604 426 q 532 447 604 447 q 355 447 414 447 q 294 447 296 447 q 291 446 292 447 q 290 444 291 446 q 288 441 289 443 q 288 437 288 439 q 292 243 288 434 q 303 52 296 52 l 728 56 q 736 60 735 56 q 740 83 738 64 q 744 207 742 102 q 770 219 744 219 q 796 205 796 219 l 792 11 q 764 -8 792 -8 l 243 -4 z "},"":{"ha":840,"x_min":52,"x_max":796,"o":"m 243 -4 l 74 -8 q 55 -3 59 -8 q 52 18 52 2 q 57 38 52 34 q 79 42 62 42 l 164 42 q 170 142 170 42 l 170 275 l 164 683 q 159 829 164 779 q 151 879 154 879 l 86 879 q 67 883 72 879 q 62 908 62 887 q 81 928 62 928 l 142 926 q 232 924 203 924 l 582 928 q 659 930 652 928 q 666 939 666 932 q 667 945 667 941 q 669 952 668 949 q 671 958 669 954 q 690 963 675 963 q 711 959 705 963 q 717 943 717 956 l 711 760 q 706 747 711 750 q 685 744 700 744 q 660 765 660 744 l 664 872 q 531 879 664 876 q 293 882 399 882 q 285 766 285 882 q 286 574 285 650 q 289 496 288 498 q 300 493 291 493 l 532 493 q 604 511 604 493 l 604 583 q 630 597 604 597 q 655 585 655 597 l 653 474 l 655 356 q 630 343 655 343 q 604 357 604 343 l 604 426 q 532 447 604 447 q 355 447 414 447 q 294 447 296 447 q 291 446 292 447 q 290 444 291 446 q 288 441 289 443 q 288 437 288 439 q 292 243 288 434 q 303 52 296 52 l 728 56 q 736 60 735 56 q 740 83 738 64 q 744 207 742 102 q 770 219 744 219 q 796 205 796 219 l 792 11 q 764 -8 792 -8 l 243 -4 z "},"":{"ha":462,"x_min":38,"x_max":425,"o":"m 98 1101 q 78 1138 78 1118 q 123 1181 78 1181 q 175 1144 152 1181 l 249 1025 q 251 1022 249 1024 q 254 1013 254 1017 q 241 1008 254 1008 l 212 1008 q 205 1013 211 1008 q 198 1018 200 1017 l 98 1101 m 239 -4 l 61 -8 q 42 -3 46 -8 q 38 19 38 3 q 43 38 38 35 q 67 42 49 42 l 158 42 q 171 547 171 42 l 171 683 q 166 832 171 781 q 160 883 162 883 l 68 883 q 48 888 54 883 q 43 908 43 892 q 48 929 43 925 q 68 933 53 933 l 242 929 q 406 933 242 929 q 421 928 418 933 q 425 906 425 922 q 421 887 425 890 q 400 883 417 883 l 310 883 q 297 668 297 883 l 297 480 q 310 42 297 42 l 406 42 q 421 37 417 42 q 425 18 425 32 q 421 -3 425 3 q 406 -8 417 -8 l 239 -4 z "},"":{"ha":462,"x_min":38,"x_max":425,"o":"m 221 1008 q 212 1011 212 1008 q 213 1017 212 1014 q 216 1022 214 1019 q 218 1025 218 1024 l 292 1144 q 340 1181 316 1181 q 377 1170 365 1181 q 389 1139 389 1158 q 368 1101 389 1120 l 268 1018 q 264 1014 267 1017 q 254 1008 259 1008 l 221 1008 m 239 -4 l 61 -8 q 42 -3 46 -8 q 38 19 38 3 q 43 38 38 35 q 67 42 49 42 l 158 42 q 171 547 171 42 l 171 683 q 166 832 171 781 q 160 883 162 883 l 68 883 q 48 888 54 883 q 43 908 43 892 q 48 929 43 925 q 68 933 53 933 l 242 929 q 406 933 242 929 q 421 928 418 933 q 425 906 425 922 q 421 887 425 890 q 400 883 417 883 l 310 883 q 297 668 297 883 l 297 480 q 310 42 297 42 l 406 42 q 421 37 417 42 q 425 18 425 32 q 421 -3 425 3 q 406 -8 417 -8 l 239 -4 z "},"":{"ha":462,"x_min":38,"x_max":425,"o":"m 83 1008 q 74 1012 74 1008 q 75 1018 74 1016 q 78 1023 76 1021 q 82 1026 81 1025 l 192 1150 q 197 1157 194 1153 q 202 1162 201 1161 q 217 1170 210 1170 l 250 1170 q 275 1150 260 1170 l 385 1026 q 393 1013 393 1018 q 383 1008 393 1008 l 367 1008 q 349 1017 362 1008 l 237 1079 q 229 1079 233 1081 l 118 1017 q 100 1008 104 1008 l 83 1008 m 239 -4 l 61 -8 q 42 -3 46 -8 q 38 19 38 3 q 43 38 38 35 q 67 42 49 42 l 158 42 q 171 547 171 42 l 171 683 q 166 832 171 781 q 160 883 162 883 l 68 883 q 48 888 54 883 q 43 908 43 892 q 48 929 43 925 q 68 933 53 933 l 242 929 q 406 933 242 929 q 421 928 418 933 q 425 906 425 922 q 421 887 425 890 q 400 883 417 883 l 310 883 q 297 668 297 883 l 297 480 q 310 42 297 42 l 406 42 q 421 37 417 42 q 425 18 425 32 q 421 -3 425 3 q 406 -8 417 -8 l 239 -4 z "},"":{"ha":462,"x_min":38,"x_max":425,"o":"m 239 -4 l 61 -8 q 42 -3 46 -8 q 38 19 38 3 q 43 38 38 35 q 67 42 49 42 l 158 42 q 171 547 171 42 l 171 683 q 166 832 171 781 q 160 883 162 883 l 68 883 q 48 888 54 883 q 43 908 43 892 q 48 929 43 925 q 68 933 53 933 l 242 929 q 406 933 242 929 q 421 928 418 933 q 425 906 425 922 q 421 887 425 890 q 400 883 417 883 l 310 883 q 297 668 297 883 l 297 480 q 310 42 297 42 l 406 42 q 421 37 417 42 q 425 18 425 32 q 421 -3 425 3 q 406 -8 417 -8 l 239 -4 z "},"":{"ha":1053,"x_min":44,"x_max":995,"o":"m 240 -4 l 64 -10 q 48 -5 51 -10 q 44 15 44 0 q 51 35 44 30 q 72 39 57 39 l 161 39 q 175 449 166 39 q 164 455 175 455 l 58 455 q 52 476 52 455 q 58 497 52 497 l 165 497 q 174 498 172 497 q 178 695 178 503 q 175 886 178 886 l 79 883 q 64 887 68 883 q 60 904 60 890 q 63 924 60 918 q 79 930 66 930 l 178 929 q 337 937 235 929 q 495 946 439 946 q 632 925 551 946 q 779 863 713 904 q 893 764 845 822 q 995 465 995 644 q 880 146 995 274 q 606 0 777 31 q 497 -10 553 -10 l 240 -4 m 313 455 q 300 446 300 455 l 300 119 q 301 39 300 40 q 393 35 312 35 q 549 54 473 35 q 674 101 626 73 q 756 174 722 130 q 808 255 791 218 q 834 342 825 292 q 846 470 846 408 q 832 582 846 532 q 795 679 819 632 q 734 766 771 725 q 652 837 697 806 q 432 901 556 901 q 310 893 345 901 q 304 818 307 892 q 301 694 301 744 l 300 507 q 301 498 300 499 q 311 497 303 497 l 602 497 q 608 476 608 497 q 602 455 608 455 l 313 455 z "},"":{"ha":1131,"x_min":52,"x_max":1079,"o":"m 189 -4 l 72 -8 q 55 -3 58 -8 q 52 18 52 2 q 56 38 52 35 q 78 42 60 42 l 142 42 q 152 102 151 42 q 156 243 154 163 q 165 883 165 543 l 75 883 q 59 888 63 883 q 56 907 56 893 q 59 928 56 922 q 75 933 63 933 q 231 929 75 933 l 307 933 q 316 933 313 933 q 320 931 318 932 q 323 930 321 931 q 326 928 325 928 q 328 925 327 927 q 331 922 330 923 q 334 918 332 921 q 337 914 336 915 l 901 221 q 921 204 918 200 q 925 229 925 208 l 925 288 l 922 810 q 921 883 922 883 l 792 883 q 778 888 780 883 q 775 903 775 892 q 775 917 775 913 q 776 924 775 920 q 779 930 777 928 q 792 933 783 933 l 942 929 l 1060 933 q 1076 928 1074 933 q 1079 907 1079 923 q 1074 887 1079 890 q 1052 883 1069 883 l 989 883 q 983 797 983 883 q 978 515 983 711 q 970 163 974 319 q 965 5 965 8 q 947 -29 965 -29 q 930 -18 938 -29 q 920 -5 921 -7 q 229 833 236 825 q 219 840 222 842 q 215 655 215 838 l 214 179 q 219 42 214 42 l 339 42 q 353 37 350 42 q 356 20 356 33 q 355 2 356 7 q 339 -8 353 -8 l 189 -4 z "},"":{"ha":1044,"x_min":58,"x_max":986,"o":"m 386 1101 q 365 1138 365 1118 q 411 1181 365 1181 q 463 1144 439 1181 l 536 1025 q 538 1022 536 1024 q 542 1013 542 1017 q 529 1008 542 1008 l 500 1008 q 493 1013 498 1008 q 486 1018 487 1017 l 386 1101 m 127 189 q 111 214 127 189 q 76 304 95 239 q 58 442 58 369 q 76 584 58 516 q 124 706 93 652 q 200 805 156 761 q 296 880 244 850 q 535 942 406 942 q 865 798 736 942 q 986 450 986 660 q 951 259 986 346 q 854 110 916 171 q 704 15 792 49 q 537 -19 616 -19 q 403 -6 458 -19 q 297 33 348 8 q 202 99 246 59 q 127 189 159 139 m 197 473 q 211 337 197 405 q 253 213 225 269 q 318 115 280 157 q 515 28 398 28 q 767 165 672 28 q 850 463 850 286 q 814 668 850 570 q 705 829 779 766 q 521 895 629 895 q 255 717 352 895 q 197 473 197 611 z "},"":{"ha":1044,"x_min":58,"x_max":986,"o":"m 508 1008 q 500 1011 500 1008 q 501 1017 500 1014 q 504 1022 502 1019 q 506 1025 505 1024 l 579 1144 q 628 1181 603 1181 q 664 1170 652 1181 q 676 1139 676 1158 q 655 1101 676 1120 l 555 1018 q 552 1014 554 1017 q 542 1008 546 1008 l 508 1008 m 127 189 q 111 214 127 189 q 76 304 95 239 q 58 442 58 369 q 76 584 58 516 q 124 706 93 652 q 200 805 156 761 q 296 880 244 850 q 535 942 406 942 q 865 798 736 942 q 986 450 986 660 q 951 259 986 346 q 854 110 916 171 q 704 15 792 49 q 537 -19 616 -19 q 403 -6 458 -19 q 297 33 348 8 q 202 99 246 59 q 127 189 159 139 m 197 473 q 211 337 197 405 q 253 213 225 269 q 318 115 280 157 q 515 28 398 28 q 767 165 672 28 q 850 463 850 286 q 814 668 850 570 q 705 829 779 766 q 521 895 629 895 q 255 717 352 895 q 197 473 197 611 z "},"":{"ha":1044,"x_min":58,"x_max":986,"o":"m 371 1008 q 361 1012 361 1008 q 362 1018 361 1016 q 366 1023 364 1021 q 369 1026 368 1025 l 479 1150 q 485 1157 481 1153 q 490 1162 488 1161 q 504 1170 497 1170 l 537 1170 q 563 1150 547 1170 l 672 1026 q 681 1013 681 1018 q 671 1008 681 1008 l 654 1008 q 636 1017 650 1008 l 525 1079 q 517 1079 521 1081 l 406 1017 q 388 1008 392 1008 l 371 1008 m 127 189 q 111 214 127 189 q 76 304 95 239 q 58 442 58 369 q 76 584 58 516 q 124 706 93 652 q 200 805 156 761 q 296 880 244 850 q 535 942 406 942 q 865 798 736 942 q 986 450 986 660 q 951 259 986 346 q 854 110 916 171 q 704 15 792 49 q 537 -19 616 -19 q 403 -6 458 -19 q 297 33 348 8 q 202 99 246 59 q 127 189 159 139 m 197 473 q 211 337 197 405 q 253 213 225 269 q 318 115 280 157 q 515 28 398 28 q 767 165 672 28 q 850 463 850 286 q 814 668 850 570 q 705 829 779 766 q 521 895 629 895 q 255 717 352 895 q 197 473 197 611 z "},"":{"ha":1044,"x_min":58,"x_max":986,"o":"m 127 189 q 111 214 127 189 q 76 304 95 239 q 58 442 58 369 q 76 584 58 516 q 124 706 93 652 q 200 805 156 761 q 296 880 244 850 q 535 942 406 942 q 865 798 736 942 q 986 450 986 660 q 951 259 986 346 q 854 110 916 171 q 704 15 792 49 q 537 -19 616 -19 q 403 -6 458 -19 q 297 33 348 8 q 202 99 246 59 q 127 189 159 139 m 197 473 q 211 337 197 405 q 253 213 225 269 q 318 115 280 157 q 515 28 398 28 q 767 165 672 28 q 850 463 850 286 q 814 668 850 570 q 705 829 779 766 q 521 895 629 895 q 255 717 352 895 q 197 473 197 611 z "},"":{"ha":1044,"x_min":58,"x_max":986,"o":"m 127 189 q 111 214 127 189 q 76 304 95 239 q 58 442 58 369 q 76 584 58 516 q 124 706 93 652 q 200 805 156 761 q 296 880 244 850 q 535 942 406 942 q 865 798 736 942 q 986 450 986 660 q 951 259 986 346 q 854 110 916 171 q 704 15 792 49 q 537 -19 616 -19 q 403 -6 458 -19 q 297 33 348 8 q 202 99 246 59 q 127 189 159 139 m 197 473 q 211 337 197 405 q 253 213 225 269 q 318 115 280 157 q 515 28 398 28 q 767 165 672 28 q 850 463 850 286 q 814 668 850 570 q 705 829 779 766 q 521 895 629 895 q 255 717 352 895 q 197 473 197 611 z "},"":{"ha":732,"x_min":118,"x_max":612,"o":"m 129 479 q 118 499 118 490 q 134 522 118 507 q 160 537 150 537 q 183 525 171 537 l 345 365 q 369 350 361 348 q 380 356 376 351 l 554 529 q 573 539 564 539 q 598 524 583 539 q 612 499 612 509 q 598 475 612 489 l 431 307 q 421 292 420 296 q 431 278 421 288 l 603 105 q 612 86 612 96 q 597 60 612 76 q 572 44 582 44 q 551 56 563 44 l 380 228 q 362 237 368 241 q 346 222 356 232 l 179 56 q 159 44 168 44 q 135 60 150 44 q 119 84 119 75 q 132 105 119 93 l 299 274 q 310 291 309 284 q 301 307 311 297 l 129 479 z "},"":{"ha":1044,"x_min":58,"x_max":986,"o":"m 807 1007 l 812 1008 q 829 1001 820 1008 q 842 983 846 993 l 781 881 q 782 869 775 872 q 932 694 879 804 q 986 465 986 583 q 951 259 986 346 q 854 110 916 171 q 704 15 792 49 q 508 -19 616 -19 q 301 31 399 -19 q 290 31 293 36 l 231 -71 q 216 -80 224 -81 q 199 -72 209 -79 q 190 -58 190 -65 l 254 52 q 250 61 257 56 q 110 218 161 121 q 58 442 58 315 q 200 805 58 662 q 410 926 287 893 q 535 942 471 942 q 733 899 645 942 q 736 898 734 898 q 738 897 737 897 q 739 896 738 896 q 740 895 740 896 q 741 895 741 895 q 742 896 742 895 q 743 896 743 896 q 744 897 744 897 q 745 899 744 898 q 746 901 745 900 l 806 1006 l 807 1007 m 197 462 q 221 296 197 382 q 290 149 245 210 q 300 140 296 140 q 308 147 304 140 l 701 825 q 697 838 707 831 q 521 895 624 895 q 255 717 352 895 q 197 462 197 611 m 335 108 q 333 103 333 107 q 336 97 333 100 q 515 28 414 28 q 767 165 672 28 q 850 463 850 286 q 822 647 850 557 q 740 797 794 736 q 733 797 737 801 l 335 108 z "},"":{"ha":1048,"x_min":52,"x_max":997,"o":"m 398 1101 q 378 1138 378 1118 q 424 1181 378 1181 q 475 1144 452 1181 l 549 1025 q 551 1022 549 1024 q 554 1013 554 1017 q 542 1008 554 1008 l 512 1008 q 505 1013 511 1008 q 498 1018 500 1017 l 398 1101 m 135 799 q 129 877 135 877 l 76 877 q 57 881 62 877 q 52 901 52 885 q 56 922 52 918 q 76 926 61 926 l 208 922 l 370 926 q 387 921 384 926 q 390 899 390 916 q 386 880 390 883 q 364 877 381 877 l 274 877 q 261 645 267 877 q 256 317 256 413 q 321 117 256 183 q 522 52 386 52 q 767 125 658 52 q 789 144 783 136 q 798 187 796 153 q 800 343 800 221 l 800 767 q 792 877 800 877 l 722 877 q 697 885 700 877 q 694 905 694 893 q 701 922 694 918 q 722 926 707 926 l 865 922 l 974 926 q 993 921 988 926 q 997 899 997 915 q 992 880 997 883 q 968 877 986 877 l 936 877 q 925 689 928 877 q 921 431 923 502 q 917 262 919 360 q 913 105 914 164 q 911 35 911 47 q 878 -14 911 -14 q 832 37 857 -14 q 793 87 808 87 q 726 58 779 87 q 595 4 674 28 q 449 -19 516 -19 q 336 -9 382 -19 q 257 17 289 1 q 201 59 224 33 q 165 112 178 85 q 145 175 152 138 q 133 315 133 234 l 135 799 z "},"":{"ha":1048,"x_min":52,"x_max":997,"o":"m 521 1008 q 512 1011 512 1008 q 513 1017 512 1014 q 516 1022 514 1019 q 518 1025 518 1024 l 592 1144 q 640 1181 616 1181 q 677 1170 665 1181 q 689 1139 689 1158 q 668 1101 689 1120 l 568 1018 q 564 1014 567 1017 q 554 1008 559 1008 l 521 1008 m 135 799 q 129 877 135 877 l 76 877 q 57 881 62 877 q 52 901 52 885 q 56 922 52 918 q 76 926 61 926 l 208 922 l 370 926 q 387 921 384 926 q 390 899 390 916 q 386 880 390 883 q 364 877 381 877 l 274 877 q 261 645 267 877 q 256 317 256 413 q 321 117 256 183 q 522 52 386 52 q 767 125 658 52 q 789 144 783 136 q 798 187 796 153 q 800 343 800 221 l 800 767 q 792 877 800 877 l 722 877 q 697 885 700 877 q 694 905 694 893 q 701 922 694 918 q 722 926 707 926 l 865 922 l 974 926 q 993 921 988 926 q 997 899 997 915 q 992 880 997 883 q 968 877 986 877 l 936 877 q 925 689 928 877 q 921 431 923 502 q 917 262 919 360 q 913 105 914 164 q 911 35 911 47 q 878 -14 911 -14 q 832 37 857 -14 q 793 87 808 87 q 726 58 779 87 q 595 4 674 28 q 449 -19 516 -19 q 336 -9 382 -19 q 257 17 289 1 q 201 59 224 33 q 165 112 178 85 q 145 175 152 138 q 133 315 133 234 l 135 799 z "},"":{"ha":1048,"x_min":52,"x_max":997,"o":"m 383 1008 q 374 1012 374 1008 q 375 1018 374 1016 q 379 1023 376 1021 q 382 1026 381 1025 l 492 1150 q 497 1157 494 1153 q 502 1162 501 1161 q 517 1170 510 1170 l 550 1170 q 575 1150 560 1170 l 685 1026 q 693 1013 693 1018 q 683 1008 693 1008 l 667 1008 q 649 1017 662 1008 l 537 1079 q 529 1079 533 1081 l 418 1017 q 400 1008 405 1008 l 383 1008 m 135 799 q 129 877 135 877 l 76 877 q 57 881 62 877 q 52 901 52 885 q 56 922 52 918 q 76 926 61 926 l 208 922 l 370 926 q 387 921 384 926 q 390 899 390 916 q 386 880 390 883 q 364 877 381 877 l 274 877 q 261 645 267 877 q 256 317 256 413 q 321 117 256 183 q 522 52 386 52 q 767 125 658 52 q 789 144 783 136 q 798 187 796 153 q 800 343 800 221 l 800 767 q 792 877 800 877 l 722 877 q 697 885 700 877 q 694 905 694 893 q 701 922 694 918 q 722 926 707 926 l 865 922 l 974 926 q 993 921 988 926 q 997 899 997 915 q 992 880 997 883 q 968 877 986 877 l 936 877 q 925 689 928 877 q 921 431 923 502 q 917 262 919 360 q 913 105 914 164 q 911 35 911 47 q 878 -14 911 -14 q 832 37 857 -14 q 793 87 808 87 q 726 58 779 87 q 595 4 674 28 q 449 -19 516 -19 q 336 -9 382 -19 q 257 17 289 1 q 201 59 224 33 q 165 112 178 85 q 145 175 152 138 q 133 315 133 234 l 135 799 z "},"":{"ha":1048,"x_min":52,"x_max":997,"o":"m 135 799 q 129 877 135 877 l 76 877 q 57 881 62 877 q 52 901 52 885 q 56 922 52 918 q 76 926 61 926 l 208 922 l 370 926 q 387 921 384 926 q 390 899 390 916 q 386 880 390 883 q 364 877 381 877 l 274 877 q 261 645 267 877 q 256 317 256 413 q 321 117 256 183 q 522 52 386 52 q 767 125 658 52 q 789 144 783 136 q 798 187 796 153 q 800 343 800 221 l 800 767 q 792 877 800 877 l 722 877 q 697 885 700 877 q 694 905 694 893 q 701 922 694 918 q 722 926 707 926 l 865 922 l 974 926 q 993 921 988 926 q 997 899 997 915 q 992 880 997 883 q 968 877 986 877 l 936 877 q 925 689 928 877 q 921 431 923 502 q 917 262 919 360 q 913 105 914 164 q 911 35 911 47 q 878 -14 911 -14 q 832 37 857 -14 q 793 87 808 87 q 726 58 779 87 q 595 4 674 28 q 449 -19 516 -19 q 336 -9 382 -19 q 257 17 289 1 q 201 59 224 33 q 165 112 178 85 q 145 175 152 138 q 133 315 133 234 l 135 799 z "},"":{"ha":829,"x_min":10,"x_max":820,"o":"m 443 1008 q 435 1011 435 1008 q 436 1017 435 1014 q 438 1022 437 1019 q 440 1025 440 1024 l 514 1144 q 563 1181 538 1181 q 599 1170 587 1181 q 611 1139 611 1158 q 590 1101 611 1120 l 490 1018 q 487 1014 489 1017 q 476 1008 481 1008 l 443 1008 m 347 42 q 361 376 361 42 q 361 383 361 380 q 360 389 360 387 q 358 394 359 391 q 356 398 357 397 q 327 454 354 402 q 191 694 299 505 q 75 883 83 883 l 35 883 q 15 888 20 883 q 10 908 10 892 q 15 929 10 925 q 35 933 20 933 l 182 929 l 346 933 q 361 928 357 933 q 365 906 365 922 q 361 887 365 890 q 340 883 357 883 l 258 883 q 244 881 245 883 q 251 858 242 879 q 299 762 260 837 q 386 599 337 688 q 440 498 434 510 q 448 482 446 487 q 453 474 451 476 q 456 471 454 472 q 498 545 460 471 q 558 660 537 619 q 596 735 579 701 q 628 800 613 768 q 660 875 660 867 q 657 883 660 883 l 585 883 q 561 887 567 883 q 555 906 555 890 q 560 928 555 922 q 579 933 565 933 l 688 929 l 793 933 q 814 929 808 933 q 820 908 820 924 q 814 888 820 892 q 793 883 808 883 l 746 883 q 628 683 742 883 q 501 462 514 482 q 488 435 488 442 q 500 42 488 42 l 596 42 q 612 37 608 42 q 615 18 615 32 q 612 -3 615 3 q 596 -8 608 -8 l 429 -4 l 271 -8 q 253 -3 257 -8 q 250 18 250 2 q 254 38 250 35 q 276 42 259 42 l 347 42 z "},"":{"ha":821,"x_min":38,"x_max":763,"o":"m 239 -4 l 61 -8 q 42 -3 46 -8 q 38 19 38 3 q 43 38 38 35 q 67 42 49 42 l 158 42 q 171 547 171 42 l 171 683 q 167 818 171 753 q 160 883 164 883 l 68 883 q 48 888 54 883 q 43 908 43 892 q 48 929 43 925 q 68 933 53 933 l 242 929 l 406 933 q 421 928 418 933 q 425 906 425 922 q 421 887 425 890 q 400 883 417 883 l 310 883 q 301 834 306 883 q 297 759 297 784 q 299 731 297 734 q 307 728 301 728 l 425 732 q 699 635 608 732 q 763 455 763 567 q 630 238 763 300 q 426 200 549 200 q 362 202 394 200 q 317 204 330 204 q 302 202 304 205 q 299 170 299 198 q 302 93 299 142 q 310 42 306 44 l 406 42 q 421 37 417 42 q 425 17 425 32 q 422 -3 425 3 q 407 -8 419 -8 l 239 -4 m 297 258 q 309 242 297 244 q 359 239 325 239 q 436 247 394 239 q 515 272 477 254 q 578 316 552 289 q 635 474 635 373 q 597 589 635 539 q 346 688 520 688 q 303 684 310 688 q 297 659 297 680 l 297 258 z "},"":{"ha":669,"x_min":38,"x_max":632,"o":"m 168 -4 l 56 -7 q 41 -2 44 -7 q 38 13 38 4 q 38 26 38 23 q 40 33 38 29 q 54 39 42 39 l 108 39 q 115 282 115 63 l 113 668 q 194 890 113 814 q 352 946 253 946 q 506 893 452 946 q 561 749 561 841 q 485 573 561 641 q 404 524 447 540 q 395 517 392 518 q 407 513 398 516 q 433 504 416 510 q 474 485 450 498 q 519 458 498 473 q 561 419 539 443 q 597 370 583 396 q 632 244 632 309 q 618 134 632 179 q 579 56 604 90 q 435 -18 525 -18 q 326 12 369 -18 q 283 95 283 43 q 295 134 283 120 q 325 153 307 147 q 351 158 343 158 q 365 140 365 158 q 366 121 366 134 q 367 100 367 108 q 370 79 368 91 q 374 59 372 67 q 382 42 377 51 q 395 28 387 33 q 435 15 412 15 q 474 33 457 15 q 500 79 490 50 q 521 197 521 139 q 516 292 521 256 q 504 354 511 328 q 483 401 496 380 q 459 437 470 423 q 429 462 447 451 q 399 479 411 473 q 367 490 387 485 q 310 501 323 500 q 294 504 297 501 q 292 522 292 507 q 310 537 292 536 q 349 544 328 537 q 392 568 371 552 q 430 609 414 585 q 465 753 465 663 q 429 877 465 842 q 335 907 397 907 q 224 746 234 907 q 222 683 222 716 l 222 17 q 220 -2 222 2 q 207 -5 217 -5 l 168 -4 z "},"":{"ha":582,"x_min":44,"x_max":560,"o":"m 144 778 q 133 811 133 793 q 148 841 133 828 q 191 854 163 854 q 233 817 219 854 l 301 636 q 304 625 304 630 q 294 620 304 620 l 272 620 q 258 629 265 620 l 144 778 m 465 372 l 457 89 q 476 53 457 62 q 484 52 480 52 q 513 69 489 52 q 540 86 537 86 q 551 75 543 86 q 560 61 560 65 q 551 50 560 57 q 520 27 541 43 q 472 -8 499 12 q 432 -28 445 -28 q 411 -24 420 -28 q 398 -16 403 -21 q 388 -4 393 -12 q 381 9 384 4 q 377 24 379 15 q 372 39 374 33 q 357 40 369 48 q 187 -24 254 -24 q 82 10 120 -24 q 44 99 44 43 q 96 205 44 161 q 201 267 147 248 q 360 308 286 295 q 367 330 367 310 q 366 363 367 350 q 365 398 366 377 q 360 430 363 418 q 351 458 357 443 q 337 483 346 474 q 317 500 329 492 q 261 517 295 517 q 203 507 227 517 q 173 480 180 497 q 167 428 167 462 q 153 385 167 394 q 111 361 140 376 q 76 346 82 346 q 64 376 64 346 q 77 436 64 406 q 113 488 91 467 q 164 526 136 510 q 270 558 220 558 q 353 550 321 558 q 407 525 386 541 q 441 486 428 509 q 465 372 465 442 m 150 138 q 160 95 150 115 q 189 60 169 74 q 235 46 210 46 q 292 54 261 46 q 367 85 367 72 l 367 267 q 363 278 367 278 q 348 275 360 278 q 150 138 150 237 z "},"":{"ha":582,"x_min":44,"x_max":560,"o":"m 264 620 q 254 625 254 620 q 257 636 254 631 l 325 817 q 367 854 338 854 q 410 841 395 854 q 425 811 425 828 q 414 778 425 794 l 300 629 q 286 620 293 620 l 264 620 m 465 372 l 457 89 q 476 53 457 62 q 484 52 480 52 q 513 69 489 52 q 540 86 537 86 q 551 75 543 86 q 560 61 560 65 q 551 50 560 57 q 520 27 541 43 q 472 -8 499 12 q 432 -28 445 -28 q 411 -24 420 -28 q 398 -16 403 -21 q 388 -4 393 -12 q 381 9 384 4 q 377 24 379 15 q 372 39 374 33 q 357 40 369 48 q 187 -24 254 -24 q 82 10 120 -24 q 44 99 44 43 q 96 205 44 161 q 201 267 147 248 q 360 308 286 295 q 367 330 367 310 q 366 363 367 350 q 365 398 366 377 q 360 430 363 418 q 351 458 357 443 q 337 483 346 474 q 317 500 329 492 q 261 517 295 517 q 203 507 227 517 q 173 480 180 497 q 167 428 167 462 q 153 385 167 394 q 111 361 140 376 q 76 346 82 346 q 64 376 64 346 q 77 436 64 406 q 113 488 91 467 q 164 526 136 510 q 270 558 220 558 q 353 550 321 558 q 407 525 386 541 q 441 486 428 509 q 465 372 465 442 m 150 138 q 160 95 150 115 q 189 60 169 74 q 235 46 210 46 q 292 54 261 46 q 367 85 367 72 l 367 267 q 363 278 367 278 q 348 275 360 278 q 150 138 150 237 z "},"":{"ha":582,"x_min":44,"x_max":560,"o":"m 133 633 q 121 637 121 633 q 127 651 121 641 l 237 817 q 250 834 247 831 q 265 836 254 836 l 294 836 q 308 834 304 836 q 321 817 311 831 l 430 651 q 437 637 437 641 q 425 633 437 633 l 408 633 q 401 637 405 633 q 394 643 396 641 l 282 740 q 279 742 280 742 q 276 740 278 742 l 164 643 q 150 633 154 633 l 133 633 m 465 372 l 457 89 q 476 53 457 62 q 484 52 480 52 q 513 69 489 52 q 540 86 537 86 q 551 75 543 86 q 560 61 560 65 q 551 50 560 57 q 520 27 541 43 q 472 -8 499 12 q 432 -28 445 -28 q 411 -24 420 -28 q 398 -16 403 -21 q 388 -4 393 -12 q 381 9 384 4 q 377 24 379 15 q 372 39 374 33 q 357 40 369 48 q 187 -24 254 -24 q 82 10 120 -24 q 44 99 44 43 q 96 205 44 161 q 201 267 147 248 q 360 308 286 295 q 367 330 367 310 q 366 363 367 350 q 365 398 366 377 q 360 430 363 418 q 351 458 357 443 q 337 483 346 474 q 317 500 329 492 q 261 517 295 517 q 203 507 227 517 q 173 480 180 497 q 167 428 167 462 q 153 385 167 394 q 111 361 140 376 q 76 346 82 346 q 64 376 64 346 q 77 436 64 406 q 113 488 91 467 q 164 526 136 510 q 270 558 220 558 q 353 550 321 558 q 407 525 386 541 q 441 486 428 509 q 465 372 465 442 m 150 138 q 160 95 150 115 q 189 60 169 74 q 235 46 210 46 q 292 54 261 46 q 367 85 367 72 l 367 267 q 363 278 367 278 q 348 275 360 278 q 150 138 150 237 z "},"":{"ha":582,"x_min":44,"x_max":560,"o":"m 205 736 q 160 691 172 736 q 158 688 160 688 l 155 686 l 143 685 q 129 692 129 685 q 142 735 129 702 q 179 788 156 767 q 220 808 202 808 q 256 800 237 808 q 288 782 274 792 q 344 755 325 755 q 392 801 378 755 q 396 812 395 811 q 411 814 398 814 q 425 808 425 814 q 413 763 425 795 q 378 707 401 730 q 334 685 355 685 q 299 690 313 685 q 274 703 286 695 q 252 718 263 710 q 205 736 226 736 m 465 372 l 457 89 q 476 53 457 62 q 484 52 480 52 q 513 69 489 52 q 540 86 537 86 q 551 75 543 86 q 560 61 560 65 q 551 50 560 57 q 520 27 541 43 q 472 -8 499 12 q 432 -28 445 -28 q 411 -24 420 -28 q 398 -16 403 -21 q 388 -4 393 -12 q 381 9 384 4 q 377 24 379 15 q 372 39 374 33 q 357 40 369 48 q 187 -24 254 -24 q 82 10 120 -24 q 44 99 44 43 q 96 205 44 161 q 201 267 147 248 q 360 308 286 295 q 367 330 367 310 q 366 363 367 350 q 365 398 366 377 q 360 430 363 418 q 351 458 357 443 q 337 483 346 474 q 317 500 329 492 q 261 517 295 517 q 203 507 227 517 q 173 480 180 497 q 167 428 167 462 q 153 385 167 394 q 111 361 140 376 q 76 346 82 346 q 64 376 64 346 q 77 436 64 406 q 113 488 91 467 q 164 526 136 510 q 270 558 220 558 q 353 550 321 558 q 407 525 386 541 q 441 486 428 509 q 465 372 465 442 m 150 138 q 160 95 150 115 q 189 60 169 74 q 235 46 210 46 q 292 54 261 46 q 367 85 367 72 l 367 267 q 363 278 367 278 q 348 275 360 278 q 150 138 150 237 z "},"":{"ha":582,"x_min":44,"x_max":560,"o":"m 465 372 l 457 89 q 476 53 457 62 q 484 52 480 52 q 513 69 489 52 q 540 86 537 86 q 551 75 543 86 q 560 61 560 65 q 551 50 560 57 q 520 27 541 43 q 472 -8 499 12 q 432 -28 445 -28 q 411 -24 420 -28 q 398 -16 403 -21 q 388 -4 393 -12 q 381 9 384 4 q 377 24 379 15 q 372 39 374 33 q 357 40 369 48 q 187 -24 254 -24 q 82 10 120 -24 q 44 99 44 43 q 96 205 44 161 q 201 267 147 248 q 360 308 286 295 q 367 330 367 310 q 366 363 367 350 q 365 398 366 377 q 360 430 363 418 q 351 458 357 443 q 337 483 346 474 q 317 500 329 492 q 261 517 295 517 q 203 507 227 517 q 173 480 180 497 q 167 428 167 462 q 153 385 167 394 q 111 361 140 376 q 76 346 82 346 q 64 376 64 346 q 77 436 64 406 q 113 488 91 467 q 164 526 136 510 q 270 558 220 558 q 353 550 321 558 q 407 525 386 541 q 441 486 428 509 q 465 372 465 442 m 150 138 q 160 95 150 115 q 189 60 169 74 q 235 46 210 46 q 292 54 261 46 q 367 85 367 72 l 367 267 q 363 278 367 278 q 348 275 360 278 q 150 138 150 237 z "},"":{"ha":582,"x_min":44,"x_max":560,"o":"m 206 670 q 191 685 206 670 q 176 743 176 700 q 206 816 176 786 q 279 846 236 846 q 352 816 322 846 q 382 743 382 786 q 352 670 382 700 q 279 640 322 640 q 206 670 236 640 m 240 782 q 232 774 240 782 q 223 743 223 766 q 240 704 223 720 q 279 688 256 688 q 318 704 302 688 q 335 743 335 720 q 318 782 335 766 q 279 799 302 799 q 240 782 256 799 m 465 372 l 457 89 q 476 53 457 62 q 484 52 480 52 q 513 69 489 52 q 540 86 537 86 q 551 75 543 86 q 560 61 560 65 q 551 50 560 57 q 520 27 541 43 q 472 -8 499 12 q 432 -28 445 -28 q 411 -24 420 -28 q 398 -16 403 -21 q 388 -4 393 -12 q 381 9 384 4 q 377 24 379 15 q 372 39 374 33 q 357 40 369 48 q 187 -24 254 -24 q 82 10 120 -24 q 44 99 44 43 q 96 205 44 161 q 201 267 147 248 q 360 308 286 295 q 367 330 367 310 q 366 363 367 350 q 365 398 366 377 q 360 430 363 418 q 351 458 357 443 q 337 483 346 474 q 317 500 329 492 q 261 517 295 517 q 203 507 227 517 q 173 480 180 497 q 167 428 167 462 q 153 385 167 394 q 111 361 140 376 q 76 346 82 346 q 64 376 64 346 q 77 436 64 406 q 113 488 91 467 q 164 526 136 510 q 270 558 220 558 q 353 550 321 558 q 407 525 386 541 q 441 486 428 509 q 465 372 465 442 m 150 138 q 160 95 150 115 q 189 60 169 74 q 235 46 210 46 q 292 54 261 46 q 367 85 367 72 l 367 267 q 363 278 367 278 q 348 275 360 278 q 150 138 150 237 z "},"":{"ha":901,"x_min":44,"x_max":864,"o":"m 461 315 q 455 266 455 315 q 473 173 455 217 q 519 102 490 130 q 659 44 579 44 q 825 125 745 44 q 839 135 835 135 q 853 125 843 135 q 864 111 864 116 q 852 91 864 105 q 818 57 841 77 q 767 19 796 37 q 620 -25 699 -25 q 421 52 493 -25 q 418 55 419 54 q 416 57 417 56 q 413 58 415 58 l 411 58 q 405 54 410 58 q 375 35 400 51 q 290 -3 350 20 q 175 -25 230 -25 q 82 8 120 -25 q 44 97 44 42 q 96 203 44 160 q 201 265 147 247 q 360 307 286 294 q 367 327 367 308 q 366 358 367 346 q 365 388 366 370 q 362 418 364 407 q 356 444 360 429 q 346 468 352 459 q 331 487 340 477 q 311 502 322 497 q 254 514 284 514 q 203 505 225 514 q 175 480 181 496 q 167 428 168 463 q 153 384 167 393 q 112 360 139 374 q 79 346 85 346 q 64 375 64 346 q 77 435 64 405 q 113 487 91 465 q 164 525 136 509 q 279 557 220 557 q 436 493 392 557 q 446 483 443 484 q 457 490 449 483 q 637 554 536 554 q 796 486 740 554 q 849 329 849 421 q 769 308 849 308 l 461 315 m 150 136 q 160 93 150 114 q 189 58 169 73 q 236 44 210 44 q 294 52 262 44 q 346 69 326 60 q 367 83 367 78 l 367 265 q 363 276 367 276 q 348 274 360 276 q 150 136 150 235 m 463 354 q 471 347 463 347 q 517 348 480 347 q 686 353 630 350 q 744 357 742 355 q 683 497 744 459 q 621 515 653 515 q 560 500 589 515 q 510 460 530 484 q 463 354 467 408 z "},"":{"ha":572,"x_min":44,"x_max":535,"o":"m 44 246 q 138 480 44 390 q 335 558 220 558 q 424 540 380 558 q 495 489 467 522 q 524 421 524 457 q 504 387 524 402 q 463 371 484 371 q 436 389 441 371 q 428 412 433 398 q 421 435 424 427 q 414 456 419 444 q 405 475 409 468 q 393 490 400 482 q 376 502 385 498 q 324 512 355 512 q 263 499 293 512 q 212 462 234 485 q 175 409 191 439 q 143 298 143 350 q 151 212 143 245 q 176 150 159 179 q 218 99 194 121 q 353 52 271 52 q 510 89 430 52 q 524 93 519 93 q 535 78 535 93 q 508 49 535 69 q 457 17 481 30 q 331 -18 401 -13 l 304 -92 q 304 -96 303 -96 q 319 -93 306 -97 q 356 -90 332 -90 q 403 -99 379 -90 q 441 -123 427 -108 q 472 -183 472 -153 q 462 -236 472 -213 q 432 -278 451 -259 q 321 -321 390 -321 q 251 -309 282 -321 q 201 -272 201 -291 q 215 -258 201 -258 q 230 -263 218 -258 q 307 -279 267 -279 q 388 -205 388 -279 q 315 -147 388 -147 q 282 -153 300 -147 q 263 -160 265 -160 q 254 -156 260 -160 q 249 -147 249 -152 q 299 -18 249 -142 q 113 57 181 -14 q 44 246 44 129 z "},"":{"ha":589,"x_min":39,"x_max":553,"o":"m 182 778 q 171 811 171 793 q 186 841 171 828 q 229 854 200 854 q 271 817 257 854 l 339 636 q 342 625 342 630 q 332 620 342 620 l 310 620 q 296 629 303 620 l 182 778 m 457 308 l 147 315 q 143 261 143 305 q 160 174 143 218 q 205 103 177 131 q 342 44 264 44 q 514 125 436 44 q 526 135 523 135 q 540 124 528 135 q 553 111 553 113 q 542 94 553 108 q 508 60 531 80 q 458 20 486 39 q 317 -25 389 -25 q 194 -4 245 -25 q 108 54 142 17 q 57 143 75 92 q 39 257 39 195 q 60 374 39 319 q 118 468 81 428 q 325 554 198 554 q 484 486 428 554 q 536 329 536 421 q 457 308 536 308 m 401 353 q 432 358 432 353 q 370 497 432 458 q 308 515 340 515 q 247 500 276 515 q 197 460 218 484 q 150 354 154 408 q 162 347 150 347 l 401 353 z "},"":{"ha":589,"x_min":39,"x_max":553,"o":"m 301 620 q 292 625 292 620 q 294 636 292 631 l 362 817 q 404 854 376 854 q 448 841 433 854 q 463 811 463 828 q 451 778 463 794 l 337 629 q 323 620 330 620 l 301 620 m 457 308 l 147 315 q 143 261 143 305 q 160 174 143 218 q 205 103 177 131 q 342 44 264 44 q 514 125 436 44 q 526 135 523 135 q 540 124 528 135 q 553 111 553 113 q 542 94 553 108 q 508 60 531 80 q 458 20 486 39 q 317 -25 389 -25 q 194 -4 245 -25 q 108 54 142 17 q 57 143 75 92 q 39 257 39 195 q 60 374 39 319 q 118 468 81 428 q 325 554 198 554 q 484 486 428 554 q 536 329 536 421 q 457 308 536 308 m 401 353 q 432 358 432 353 q 370 497 432 458 q 308 515 340 515 q 247 500 276 515 q 197 460 218 484 q 150 354 154 408 q 162 347 150 347 l 401 353 z "},"":{"ha":589,"x_min":39,"x_max":553,"o":"m 171 633 q 158 637 158 633 q 165 651 158 641 l 275 817 q 288 834 284 831 q 303 836 292 836 l 332 836 q 346 834 342 836 q 358 817 349 831 l 468 651 q 475 637 475 641 q 463 633 475 633 l 446 633 q 438 637 443 633 q 432 643 434 641 l 319 740 q 317 742 318 742 q 314 740 315 742 l 201 643 q 188 633 192 633 l 171 633 m 457 308 l 147 315 q 143 261 143 305 q 160 174 143 218 q 205 103 177 131 q 342 44 264 44 q 514 125 436 44 q 526 135 523 135 q 540 124 528 135 q 553 111 553 113 q 542 94 553 108 q 508 60 531 80 q 458 20 486 39 q 317 -25 389 -25 q 194 -4 245 -25 q 108 54 142 17 q 57 143 75 92 q 39 257 39 195 q 60 374 39 319 q 118 468 81 428 q 325 554 198 554 q 484 486 428 554 q 536 329 536 421 q 457 308 536 308 m 401 353 q 432 358 432 353 q 370 497 432 458 q 308 515 340 515 q 247 500 276 515 q 197 460 218 484 q 150 354 154 408 q 162 347 150 347 l 401 353 z "},"":{"ha":589,"x_min":39,"x_max":553,"o":"m 457 308 l 147 315 q 143 261 143 305 q 160 174 143 218 q 205 103 177 131 q 342 44 264 44 q 514 125 436 44 q 526 135 523 135 q 540 124 528 135 q 553 111 553 113 q 542 94 553 108 q 508 60 531 80 q 458 20 486 39 q 317 -25 389 -25 q 194 -4 245 -25 q 108 54 142 17 q 57 143 75 92 q 39 257 39 195 q 60 374 39 319 q 118 468 81 428 q 325 554 198 554 q 484 486 428 554 q 536 329 536 421 q 457 308 536 308 m 401 353 q 432 358 432 353 q 370 497 432 458 q 308 515 340 515 q 247 500 276 515 q 197 460 218 484 q 150 354 154 408 q 162 347 150 347 l 401 353 z "},"":{"ha":346,"x_min":14,"x_max":315,"o":"m 25 778 q 14 811 14 793 q 29 841 14 828 q 72 854 43 854 q 114 817 100 854 l 182 636 q 185 625 185 630 q 175 620 185 620 l 153 620 q 139 629 146 620 l 25 778 m 107 489 l 40 486 q 28 492 28 486 q 33 511 28 497 q 43 527 38 525 q 61 529 47 529 l 218 536 q 230 534 228 536 q 232 524 232 531 l 232 288 q 239 39 232 39 l 299 39 q 313 34 310 39 q 315 17 315 30 q 312 -1 315 4 q 299 -7 309 -7 l 179 -4 l 52 -7 q 37 -2 40 -7 q 35 16 35 3 q 38 34 35 28 q 56 39 42 39 l 125 39 q 129 187 129 39 q 126 407 129 336 q 122 481 123 477 q 119 487 121 485 q 112 489 116 489 l 107 489 z "},"":{"ha":346,"x_min":28,"x_max":315,"o":"m 144 620 q 135 625 135 620 q 137 636 135 631 l 205 817 q 247 854 219 854 q 291 841 276 854 q 306 811 306 828 q 294 778 306 794 l 180 629 q 166 620 173 620 l 144 620 m 107 489 l 40 486 q 28 492 28 486 q 33 511 28 497 q 43 527 38 525 q 61 529 47 529 l 218 536 q 230 534 228 536 q 232 524 232 531 l 232 288 q 239 39 232 39 l 299 39 q 313 34 310 39 q 315 17 315 30 q 312 -1 315 4 q 299 -7 309 -7 l 179 -4 l 52 -7 q 37 -2 40 -7 q 35 16 35 3 q 38 34 35 28 q 56 39 42 39 l 125 39 q 129 187 129 39 q 126 407 129 336 q 122 481 123 477 q 119 487 121 485 q 112 489 116 489 l 107 489 z "},"":{"ha":346,"x_min":1,"x_max":318,"o":"m 14 633 q 1 637 1 633 q 8 651 1 641 l 118 817 q 131 834 127 831 q 146 836 135 836 l 175 836 q 189 834 185 836 q 201 817 192 831 l 311 651 q 318 637 318 641 q 306 633 318 633 l 289 633 q 281 637 286 633 q 275 643 277 641 l 162 740 q 160 742 161 742 q 157 740 158 742 l 44 643 q 31 633 35 633 l 14 633 m 107 489 l 40 486 q 28 492 28 486 q 33 511 28 497 q 43 527 38 525 q 61 529 47 529 l 218 536 q 230 534 228 536 q 232 524 232 531 l 232 288 q 239 39 232 39 l 299 39 q 313 34 310 39 q 315 17 315 30 q 312 -1 315 4 q 299 -7 309 -7 l 179 -4 l 52 -7 q 37 -2 40 -7 q 35 16 35 3 q 38 34 35 28 q 56 39 42 39 l 125 39 q 129 187 129 39 q 126 407 129 336 q 122 481 123 477 q 119 487 121 485 q 112 489 116 489 l 107 489 z "},"":{"ha":346,"x_min":-13,"x_max":332,"o":"m 107 489 l 40 486 q 28 492 28 486 q 33 511 28 497 q 43 527 38 525 q 61 529 47 529 l 218 536 q 230 534 228 536 q 232 524 232 531 l 232 288 q 239 39 232 39 l 299 39 q 313 34 310 39 q 315 17 315 30 q 312 -1 315 4 q 299 -7 309 -7 l 179 -4 l 52 -7 q 37 -2 40 -7 q 35 16 35 3 q 38 34 35 28 q 56 39 42 39 l 125 39 q 129 187 129 39 q 126 407 129 336 q 122 481 123 477 q 119 487 121 485 q 112 489 116 489 l 107 489 z "},"":{"ha":608,"x_min":38,"x_max":571,"o":"m 170 11 q 139 29 170 11 q 73 112 108 47 q 38 259 38 176 q 71 410 38 342 q 165 515 105 478 q 294 553 226 553 q 407 529 362 553 q 421 526 421 522 q 411 554 421 530 q 394 594 401 577 q 342 687 365 655 q 317 720 319 719 q 301 717 315 720 q 248 703 288 713 q 149 678 153 678 q 139 693 145 678 q 132 714 132 708 q 202 735 132 717 q 277 755 273 754 q 283 757 281 756 q 286 759 286 758 q 287 760 287 759 q 286 761 287 760 q 226 831 269 787 q 142 907 183 876 q 129 918 129 912 q 144 925 129 925 l 205 925 q 353 787 237 925 q 361 778 360 779 q 432 797 362 778 q 507 815 502 815 q 520 801 512 815 q 529 782 529 787 q 499 771 529 780 q 452 759 469 763 q 417 750 436 754 q 393 744 398 745 q 393 736 389 743 q 555 399 513 572 q 571 271 571 333 q 552 154 571 210 q 498 60 533 99 q 306 -25 426 -25 q 170 11 231 -25 m 222 479 q 204 463 222 479 q 166 393 185 448 q 147 284 147 338 q 153 195 147 230 q 172 128 159 160 q 204 72 185 96 q 313 19 246 19 q 469 268 469 19 q 418 459 469 393 q 319 510 379 510 q 222 479 260 510 z "},"":{"ha":714,"x_min":28,"x_max":683,"o":"m 304 736 q 258 691 271 736 q 257 688 258 688 l 254 686 l 241 685 q 228 692 228 685 q 241 735 228 702 q 278 788 255 767 q 318 808 300 808 q 354 800 336 808 q 387 782 373 792 q 443 755 424 755 q 490 801 477 755 q 495 812 493 811 q 510 814 496 814 q 524 808 524 814 q 512 763 524 795 q 477 707 499 730 q 433 685 454 685 q 398 690 412 685 q 373 703 384 695 q 351 718 361 710 q 304 736 325 736 m 120 482 l 35 476 q 28 483 28 476 q 34 504 28 489 q 42 521 39 519 q 56 523 45 523 q 129 528 67 524 q 203 533 191 532 q 218 534 216 534 q 222 533 220 533 q 225 532 224 533 q 228 531 227 531 q 229 529 229 531 q 230 527 230 528 q 231 525 231 527 l 231 467 q 232 458 231 458 q 236 459 234 458 q 238 461 237 460 q 247 467 242 465 q 267 481 252 470 q 292 497 283 491 q 318 512 301 503 q 350 525 335 520 q 423 537 387 537 q 487 530 459 537 q 534 512 514 524 q 568 482 553 500 q 591 443 582 463 q 605 396 600 423 q 614 288 614 350 l 607 52 q 608 41 607 42 q 618 39 610 39 l 660 39 q 678 34 673 39 q 683 17 683 30 q 680 -1 683 5 q 663 -7 676 -7 l 558 -4 l 437 -7 q 420 -3 423 -7 q 417 15 417 1 q 439 39 417 39 l 498 39 q 507 183 507 39 q 504 351 507 326 q 491 399 500 376 q 468 438 483 422 q 378 471 437 471 q 270 439 332 471 q 237 419 241 425 q 233 404 233 413 l 232 61 q 234 42 232 45 q 246 39 236 39 l 299 39 q 315 34 312 39 q 318 20 318 29 q 318 7 318 11 q 316 1 317 4 q 300 -7 313 -7 l 183 -4 l 57 -7 q 42 -2 44 -7 q 39 17 39 5 q 42 34 39 28 q 57 39 45 39 l 119 39 q 131 231 131 39 q 129 447 131 424 q 127 474 127 471 q 125 479 126 477 q 120 482 124 482 z "},"":{"ha":619,"x_min":38,"x_max":582,"o":"m 184 778 q 174 811 174 793 q 188 841 174 828 q 231 854 203 854 q 274 817 259 854 l 341 636 q 345 625 345 630 q 335 620 345 620 l 312 620 q 298 629 306 620 l 184 778 m 38 257 q 59 371 38 316 q 117 466 80 426 q 327 554 197 554 q 512 472 441 554 q 582 274 582 391 q 509 60 582 142 q 304 -25 434 -25 q 114 57 191 -25 q 38 257 38 139 m 144 235 q 203 66 144 132 q 304 19 243 19 q 474 283 474 19 q 402 473 474 405 q 310 510 364 510 q 144 235 144 510 z "},"":{"ha":619,"x_min":38,"x_max":582,"o":"m 304 620 q 294 625 294 620 q 297 636 294 631 l 365 817 q 407 854 379 854 q 450 841 435 854 q 465 811 465 828 q 454 778 465 794 l 340 629 q 326 620 333 620 l 304 620 m 38 257 q 59 371 38 316 q 117 466 80 426 q 327 554 197 554 q 512 472 441 554 q 582 274 582 391 q 509 60 582 142 q 304 -25 434 -25 q 114 57 191 -25 q 38 257 38 139 m 144 235 q 203 66 144 132 q 304 19 243 19 q 474 283 474 19 q 402 473 474 405 q 310 510 364 510 q 144 235 144 510 z "},"":{"ha":619,"x_min":38,"x_max":582,"o":"m 174 633 q 161 637 161 633 q 168 651 161 641 l 278 817 q 291 834 287 831 q 306 836 294 836 l 335 836 q 348 834 345 836 q 361 817 352 831 l 471 651 q 478 637 478 641 q 465 633 478 633 l 449 633 q 441 637 445 633 q 435 643 437 641 l 322 740 q 319 742 321 742 q 317 740 318 742 l 204 643 q 190 633 195 633 l 174 633 m 38 257 q 59 371 38 316 q 117 466 80 426 q 327 554 197 554 q 512 472 441 554 q 582 274 582 391 q 509 60 582 142 q 304 -25 434 -25 q 114 57 191 -25 q 38 257 38 139 m 144 235 q 203 66 144 132 q 304 19 243 19 q 474 283 474 19 q 402 473 474 405 q 310 510 364 510 q 144 235 144 510 z "},"":{"ha":619,"x_min":38,"x_max":582,"o":"m 246 736 q 200 691 213 736 q 199 688 200 688 l 196 686 l 183 685 q 169 692 169 685 q 183 735 169 702 q 219 788 196 767 q 260 808 242 808 q 296 800 278 808 q 328 782 314 792 q 385 755 366 755 q 432 801 419 755 q 437 812 435 811 q 452 814 438 814 q 465 808 465 814 q 453 763 465 795 q 418 707 441 730 q 375 685 396 685 q 340 690 354 685 q 315 703 326 695 q 292 718 303 710 q 246 736 267 736 m 38 257 q 59 371 38 316 q 117 466 80 426 q 327 554 197 554 q 512 472 441 554 q 582 274 582 391 q 509 60 582 142 q 304 -25 434 -25 q 114 57 191 -25 q 38 257 38 139 m 144 235 q 203 66 144 132 q 304 19 243 19 q 474 283 474 19 q 402 473 474 405 q 310 510 364 510 q 144 235 144 510 z "},"":{"ha":619,"x_min":38,"x_max":582,"o":"m 38 257 q 59 371 38 316 q 117 466 80 426 q 327 554 197 554 q 512 472 441 554 q 582 274 582 391 q 509 60 582 142 q 304 -25 434 -25 q 114 57 191 -25 q 38 257 38 139 m 144 235 q 203 66 144 132 q 304 19 243 19 q 474 283 474 19 q 402 473 474 405 q 310 510 364 510 q 144 235 144 510 z "},"":{"ha":732,"x_min":39,"x_max":693,"o":"m 308 402 q 299 411 308 402 q 290 445 290 420 q 309 487 290 469 q 353 506 328 506 q 395 488 378 506 q 413 446 413 471 q 395 403 413 421 q 351 385 376 385 q 308 402 326 385 m 360 79 q 347 79 360 79 q 316 97 335 79 q 297 140 297 115 q 315 183 297 165 q 358 200 333 200 q 401 182 383 200 q 419 139 419 164 q 402 96 419 114 q 360 79 385 79 m 39 281 q 39 294 39 285 q 40 307 39 302 q 43 317 40 312 q 68 327 48 327 l 667 327 q 688 319 684 327 q 693 292 693 311 q 687 265 693 273 q 660 257 682 257 l 67 257 q 39 281 40 257 z "},"":{"ha":619,"x_min":38,"x_max":582,"o":"m 135 38 q 63 133 89 77 q 38 253 38 189 q 59 371 38 316 q 117 466 80 426 q 327 554 197 554 q 397 545 370 554 q 426 535 424 535 q 429 534 428 534 q 431 535 431 534 q 432 536 432 535 q 433 537 433 536 q 433 539 433 538 l 488 632 q 495 636 490 636 q 508 632 501 636 q 518 625 515 627 q 521 623 520 624 q 524 620 523 622 q 525 616 525 618 q 524 611 525 614 l 471 519 q 469 510 466 513 q 552 410 523 472 q 582 279 582 349 q 563 154 582 209 q 509 60 544 99 q 304 -25 434 -25 q 180 5 237 -25 q 172 1 176 8 l 121 -87 q 119 -90 120 -88 q 114 -93 117 -93 q 97 -85 110 -93 q 83 -74 83 -77 l 86 -65 l 139 26 q 135 38 142 32 m 144 235 q 176 104 144 164 q 181 100 180 98 q 183 104 182 101 l 396 472 q 397 478 397 474 q 392 483 397 481 q 310 510 352 510 q 144 235 144 510 m 211 57 q 298 19 253 19 q 373 35 343 19 q 422 76 403 51 q 452 137 440 101 q 472 284 472 199 q 433 436 472 369 q 427 441 428 444 q 424 436 425 439 l 211 68 q 211 57 208 61 z "},"":{"ha":708,"x_min":15,"x_max":679,"o":"m 198 778 q 188 811 188 793 q 202 841 188 828 q 245 854 217 854 q 288 817 273 854 l 355 636 q 358 625 358 630 q 349 620 358 620 l 326 620 q 312 629 319 620 l 198 778 m 95 490 l 26 489 q 15 496 15 489 q 32 531 15 529 q 35 531 34 531 q 105 535 41 532 q 189 537 168 537 q 211 535 210 537 q 213 525 213 532 l 213 147 q 362 58 213 58 q 443 64 401 58 q 485 76 485 70 l 485 240 q 474 494 485 494 l 404 492 q 393 496 393 492 q 399 530 393 526 q 414 533 405 533 l 575 540 q 589 533 589 540 l 589 528 q 588 135 588 196 q 589 58 588 74 q 596 37 591 42 q 610 32 600 32 l 671 40 q 679 23 679 40 q 677 3 679 6 q 585 -14 674 -1 q 494 -26 496 -26 q 489 9 491 -26 q 487 44 488 44 q 472 38 486 44 q 436 22 458 31 q 385 3 413 13 q 204 -12 278 -33 q 107 170 107 16 l 107 388 q 95 490 107 490 z "},"":{"ha":708,"x_min":15,"x_max":679,"o":"m 318 620 q 308 625 308 620 q 311 636 308 631 l 379 817 q 421 854 393 854 q 464 841 449 854 q 479 811 479 828 q 468 778 479 794 l 354 629 q 340 620 347 620 l 318 620 m 95 490 l 26 489 q 15 496 15 489 q 32 531 15 529 q 35 531 34 531 q 105 535 41 532 q 189 537 168 537 q 211 535 210 537 q 213 525 213 532 l 213 147 q 362 58 213 58 q 443 64 401 58 q 485 76 485 70 l 485 240 q 474 494 485 494 l 404 492 q 393 496 393 492 q 399 530 393 526 q 414 533 405 533 l 575 540 q 589 533 589 540 l 589 528 q 588 135 588 196 q 589 58 588 74 q 596 37 591 42 q 610 32 600 32 l 671 40 q 679 23 679 40 q 677 3 679 6 q 585 -14 674 -1 q 494 -26 496 -26 q 489 9 491 -26 q 487 44 488 44 q 472 38 486 44 q 436 22 458 31 q 385 3 413 13 q 204 -12 278 -33 q 107 170 107 16 l 107 388 q 95 490 107 490 z "},"":{"ha":708,"x_min":15,"x_max":679,"o":"m 188 633 q 175 637 175 633 q 182 651 175 641 l 292 817 q 305 834 301 831 q 319 836 308 836 l 349 836 q 362 834 359 836 q 375 817 366 831 l 485 651 q 492 637 492 641 q 479 633 492 633 l 463 633 q 455 637 459 633 q 449 643 451 641 l 336 740 q 333 742 335 742 q 331 740 332 742 l 218 643 q 204 633 209 633 l 188 633 m 95 490 l 26 489 q 15 496 15 489 q 32 531 15 529 q 35 531 34 531 q 105 535 41 532 q 189 537 168 537 q 211 535 210 537 q 213 525 213 532 l 213 147 q 362 58 213 58 q 443 64 401 58 q 485 76 485 70 l 485 240 q 474 494 485 494 l 404 492 q 393 496 393 492 q 399 530 393 526 q 414 533 405 533 l 575 540 q 589 533 589 540 l 589 528 q 588 135 588 196 q 589 58 588 74 q 596 37 591 42 q 610 32 600 32 l 671 40 q 679 23 679 40 q 677 3 679 6 q 585 -14 674 -1 q 494 -26 496 -26 q 489 9 491 -26 q 487 44 488 44 q 472 38 486 44 q 436 22 458 31 q 385 3 413 13 q 204 -12 278 -33 q 107 170 107 16 l 107 388 q 95 490 107 490 z "},"":{"ha":708,"x_min":15,"x_max":679,"o":"m 95 490 l 26 489 q 15 496 15 489 q 32 531 15 529 q 35 531 34 531 q 105 535 41 532 q 189 537 168 537 q 211 535 210 537 q 213 525 213 532 l 213 147 q 362 58 213 58 q 443 64 401 58 q 485 76 485 70 l 485 240 q 474 494 485 494 l 404 492 q 393 496 393 492 q 399 530 393 526 q 414 533 405 533 l 575 540 q 589 533 589 540 l 589 528 q 588 135 588 196 q 589 58 588 74 q 596 37 591 42 q 610 32 600 32 l 671 40 q 679 23 679 40 q 677 3 679 6 q 585 -14 674 -1 q 494 -26 496 -26 q 489 9 491 -26 q 487 44 488 44 q 472 38 486 44 q 436 22 458 31 q 385 3 413 13 q 204 -12 278 -33 q 107 170 107 16 l 107 388 q 95 490 107 490 z "},"":{"ha":648,"x_min":31,"x_max":618,"o":"m 333 620 q 323 625 323 620 q 326 636 323 631 l 394 817 q 436 854 408 854 q 479 841 465 854 q 494 811 494 828 q 483 778 494 794 l 369 629 q 355 620 362 620 l 333 620 m 87 -414 q 58 -382 58 -414 q 86 -321 58 -359 q 116 -298 98 -303 q 147 -287 133 -292 q 172 -279 162 -282 q 195 -269 182 -275 q 219 -258 209 -263 q 249 -227 241 -244 q 310 -64 310 -77 q 270 46 310 -51 q 170 287 231 142 q 98 458 109 431 q 85 487 87 484 q 76 489 83 489 l 48 489 q 31 502 32 489 q 31 511 31 505 q 48 535 31 535 l 156 532 l 278 535 q 296 529 291 535 q 300 511 300 524 q 279 489 300 489 l 253 489 q 221 479 221 489 q 264 344 221 464 q 328 176 308 224 q 351 121 347 129 q 356 108 354 113 q 360 99 358 103 q 367 90 365 90 q 386 135 370 90 q 498 480 498 464 q 474 489 498 489 l 425 489 q 407 502 409 489 q 407 511 407 505 q 407 521 407 517 q 410 528 408 524 q 426 535 413 535 l 519 532 l 600 535 q 614 529 611 535 q 618 514 618 524 q 618 502 618 505 q 616 495 617 498 q 602 489 614 489 l 581 489 q 564 478 568 489 q 471 236 549 438 q 385 17 392 35 q 370 -24 377 -1 q 333 -131 345 -98 q 317 -179 322 -164 q 310 -198 311 -195 q 304 -213 309 -201 q 298 -229 300 -225 q 291 -242 296 -232 q 283 -258 287 -253 q 274 -272 280 -263 q 263 -290 269 -282 q 242 -317 252 -304 q 227 -336 232 -330 q 221 -343 222 -342 q 217 -349 220 -345 q 212 -354 213 -353 q 207 -359 210 -355 q 201 -363 203 -362 q 194 -368 198 -365 q 143 -393 187 -372 q 87 -414 99 -414 z "},"":{"ha":691,"x_min":22,"x_max":647,"o":"m 29 887 q 22 897 22 887 q 25 915 22 906 q 28 926 27 924 q 29 929 28 927 q 31 931 30 930 q 33 932 31 931 q 35 932 35 932 q 124 940 39 933 q 217 946 210 946 q 229 921 229 946 q 231 508 231 741 l 231 480 q 232 473 231 475 q 236 473 233 471 q 247 478 244 476 q 250 481 249 481 q 251 482 251 482 q 267 494 252 483 q 323 520 282 504 q 415 536 365 536 q 512 515 465 536 q 587 458 558 495 q 647 270 647 384 q 597 108 647 181 q 353 -17 511 -17 q 252 1 304 -17 l 235 7 q 232 -11 232 7 l 236 -260 q 243 -349 239 -349 l 340 -349 q 357 -353 354 -349 q 360 -371 360 -358 q 340 -394 360 -394 l 190 -392 l 52 -394 q 37 -389 40 -394 q 33 -371 33 -384 q 37 -354 33 -359 q 52 -349 40 -349 l 126 -349 q 131 -131 131 -349 l 129 153 q 115 879 129 821 q 114 885 115 883 q 112 889 114 887 q 111 891 111 890 q 107 893 110 893 l 101 893 l 29 887 m 232 68 q 252 45 232 57 q 341 18 297 18 q 417 33 385 18 q 470 71 448 47 q 508 127 492 96 q 539 249 539 189 q 525 351 539 309 q 488 420 512 392 q 362 479 438 479 q 245 443 288 479 q 232 425 232 431 l 232 68 z "},"":{"ha":648,"x_min":31,"x_max":618,"o":"m 87 -414 q 58 -382 58 -414 q 86 -321 58 -359 q 116 -298 98 -303 q 147 -287 133 -292 q 172 -279 162 -282 q 195 -269 182 -275 q 219 -258 209 -263 q 249 -227 241 -244 q 310 -64 310 -77 q 270 46 310 -51 q 170 287 231 142 q 98 458 109 431 q 85 487 87 484 q 76 489 83 489 l 48 489 q 31 502 32 489 q 31 511 31 505 q 48 535 31 535 l 156 532 l 278 535 q 296 529 291 535 q 300 511 300 524 q 279 489 300 489 l 253 489 q 221 479 221 489 q 264 344 221 464 q 328 176 308 224 q 351 121 347 129 q 356 108 354 113 q 360 99 358 103 q 367 90 365 90 q 386 135 370 90 q 498 480 498 464 q 474 489 498 489 l 425 489 q 407 502 409 489 q 407 511 407 505 q 407 521 407 517 q 410 528 408 524 q 426 535 413 535 l 519 532 l 600 535 q 614 529 611 535 q 618 514 618 524 q 618 502 618 505 q 616 495 617 498 q 602 489 614 489 l 581 489 q 564 478 568 489 q 471 236 549 438 q 385 17 392 35 q 370 -24 377 -1 q 333 -131 345 -98 q 317 -179 322 -164 q 310 -198 311 -195 q 304 -213 309 -201 q 298 -229 300 -225 q 291 -242 296 -232 q 283 -258 287 -253 q 274 -272 280 -263 q 263 -290 269 -282 q 242 -317 252 -304 q 227 -336 232 -330 q 221 -343 222 -342 q 217 -349 220 -345 q 212 -354 213 -353 q 207 -359 210 -355 q 201 -363 203 -362 q 194 -368 198 -365 q 143 -393 187 -372 q 87 -414 99 -414 z "},"":{"ha":969,"x_min":38,"x_max":946,"o":"m 370 1095 l 370 1126 q 372 1139 370 1136 q 384 1142 375 1142 l 649 1142 q 659 1139 656 1142 q 661 1128 661 1136 l 661 1093 q 659 1080 661 1083 q 649 1078 657 1078 l 384 1078 q 372 1081 374 1078 q 370 1095 370 1083 m 162 -4 l 57 -8 q 40 -4 43 -8 q 38 18 38 1 q 42 38 38 35 q 62 42 45 42 l 104 42 q 288 460 117 42 q 304 498 303 495 l 451 840 q 475 877 457 854 q 504 923 494 900 q 532 958 520 958 q 549 946 546 958 l 715 478 q 882 42 872 42 l 930 42 q 943 37 940 42 q 946 18 946 33 q 943 -3 946 3 q 930 -8 940 -8 l 801 -4 l 642 -8 q 626 -3 629 -8 q 624 19 624 2 q 627 38 624 35 q 647 42 631 42 l 724 42 q 725 52 725 42 q 690 169 725 61 q 639 324 655 277 q 620 375 623 371 q 607 378 617 378 l 327 378 q 307 374 312 378 q 297 356 303 370 q 185 43 186 75 l 186 42 l 293 42 q 307 37 304 42 q 310 22 310 33 q 309 8 310 12 q 309 1 309 5 q 306 -5 308 -3 q 293 -8 302 -8 l 162 -4 m 592 419 q 604 424 604 419 q 600 439 604 428 l 485 777 q 477 793 480 793 q 468 777 474 793 l 332 443 q 325 423 325 426 q 343 419 325 419 l 592 419 z "},"":{"ha":582,"x_min":44,"x_max":560,"o":"m 133 720 l 133 751 q 136 765 133 763 q 144 767 138 767 l 412 767 q 422 764 420 767 q 425 753 425 761 l 425 718 q 423 705 425 708 q 412 703 421 703 l 144 703 q 135 706 137 703 q 133 720 133 709 m 465 372 l 457 89 q 476 53 457 62 q 484 52 480 52 q 513 69 489 52 q 540 86 537 86 q 551 75 543 86 q 560 61 560 65 q 551 50 560 57 q 520 27 541 43 q 472 -8 499 12 q 432 -28 445 -28 q 411 -24 420 -28 q 398 -16 403 -21 q 388 -4 393 -12 q 381 9 384 4 q 377 24 379 15 q 372 39 374 33 q 357 40 369 48 q 187 -24 254 -24 q 82 10 120 -24 q 44 99 44 43 q 96 205 44 161 q 201 267 147 248 q 360 308 286 295 q 367 330 367 310 q 366 363 367 350 q 365 398 366 377 q 360 430 363 418 q 351 458 357 443 q 337 483 346 474 q 317 500 329 492 q 261 517 295 517 q 203 507 227 517 q 173 480 180 497 q 167 428 167 462 q 153 385 167 394 q 111 361 140 376 q 76 346 82 346 q 64 376 64 346 q 77 436 64 406 q 113 488 91 467 q 164 526 136 510 q 270 558 220 558 q 353 550 321 558 q 407 525 386 541 q 441 486 428 509 q 465 372 465 442 m 150 138 q 160 95 150 115 q 189 60 169 74 q 235 46 210 46 q 292 54 261 46 q 367 85 367 72 l 367 267 q 363 278 367 278 q 348 275 360 278 q 150 138 150 237 z "},"":{"ha":969,"x_min":38,"x_max":946,"o":"m 404 1052 q 395 1062 404 1052 q 377 1098 386 1072 q 368 1146 368 1125 q 370 1168 368 1168 l 400 1168 q 403 1162 401 1168 q 406 1147 404 1156 q 416 1126 409 1137 q 434 1106 423 1116 q 501 1085 459 1085 q 564 1091 543 1085 q 596 1106 585 1097 q 614 1126 607 1116 q 624 1147 622 1137 q 628 1162 626 1156 q 631 1168 629 1168 l 661 1168 q 663 1146 663 1168 q 654 1098 663 1125 q 627 1052 645 1072 q 581 1020 610 1031 q 515 1008 552 1008 q 450 1020 478 1008 q 404 1052 421 1031 m 162 -4 l 57 -8 q 40 -4 43 -8 q 38 18 38 1 q 42 38 38 35 q 62 42 45 42 l 104 42 q 288 460 117 42 q 304 498 303 495 l 451 840 q 475 877 457 854 q 504 923 494 900 q 532 958 520 958 q 549 946 546 958 l 715 478 q 882 42 872 42 l 930 42 q 943 37 940 42 q 946 18 946 33 q 943 -3 946 3 q 930 -8 940 -8 l 801 -4 l 642 -8 q 626 -3 629 -8 q 624 19 624 2 q 627 38 624 35 q 647 42 631 42 l 724 42 q 725 52 725 42 q 690 169 725 61 q 639 324 655 277 q 620 375 623 371 q 607 378 617 378 l 327 378 q 307 374 312 378 q 297 356 303 370 q 185 43 186 75 l 186 42 l 293 42 q 307 37 304 42 q 310 22 310 33 q 309 8 310 12 q 309 1 309 5 q 306 -5 308 -3 q 293 -8 302 -8 l 162 -4 m 592 419 q 604 424 604 419 q 600 439 604 428 l 485 777 q 477 793 480 793 q 468 777 474 793 l 332 443 q 325 423 325 426 q 343 419 325 419 l 592 419 z "},"":{"ha":582,"x_min":44,"x_max":560,"o":"m 135 818 l 164 818 q 166 810 165 818 q 179 769 173 782 q 193 748 186 756 q 212 730 201 739 q 240 718 223 722 q 279 714 257 714 q 318 718 301 714 q 346 730 335 722 q 387 790 376 752 q 397 818 395 818 l 424 818 q 426 800 426 818 q 421 757 426 781 q 404 710 416 733 q 375 671 392 688 q 279 633 338 633 q 154 710 193 633 q 132 785 132 753 q 135 818 132 818 m 465 372 l 457 89 q 476 53 457 62 q 484 52 480 52 q 513 69 489 52 q 540 86 537 86 q 551 75 543 86 q 560 61 560 65 q 551 50 560 57 q 520 27 541 43 q 472 -8 499 12 q 432 -28 445 -28 q 411 -24 420 -28 q 398 -16 403 -21 q 388 -4 393 -12 q 381 9 384 4 q 377 24 379 15 q 372 39 374 33 q 357 40 369 48 q 187 -24 254 -24 q 82 10 120 -24 q 44 99 44 43 q 96 205 44 161 q 201 267 147 248 q 360 308 286 295 q 367 330 367 310 q 366 363 367 350 q 365 398 366 377 q 360 430 363 418 q 351 458 357 443 q 337 483 346 474 q 317 500 329 492 q 261 517 295 517 q 203 507 227 517 q 173 480 180 497 q 167 428 167 462 q 153 385 167 394 q 111 361 140 376 q 76 346 82 346 q 64 376 64 346 q 77 436 64 406 q 113 488 91 467 q 164 526 136 510 q 270 558 220 558 q 353 550 321 558 q 407 525 386 541 q 441 486 428 509 q 465 372 465 442 m 150 138 q 160 95 150 115 q 189 60 169 74 q 235 46 210 46 q 292 54 261 46 q 367 85 367 72 l 367 267 q 363 278 367 278 q 348 275 360 278 q 150 138 150 237 z "},"":{"ha":969,"x_min":38,"x_max":946,"o":"m 162 -4 l 57 -8 q 40 -4 43 -8 q 38 18 38 1 q 42 38 38 35 q 62 42 45 42 l 104 42 q 288 460 117 42 q 304 498 303 495 l 451 840 q 475 877 457 854 q 504 923 494 900 q 532 958 520 958 q 549 946 546 958 l 715 478 q 882 42 872 42 l 930 42 q 943 37 940 42 q 946 18 946 33 q 943 -3 946 3 q 930 -8 940 -8 l 807 -4 q 802 -4 804 -4 q 799 -5 800 -5 q 796 -6 798 -5 q 794 -8 794 -7 q 711 -117 744 -58 q 678 -226 678 -176 q 705 -307 678 -276 q 757 -339 732 -339 q 800 -332 782 -339 q 831 -317 818 -326 q 853 -299 843 -308 q 881 -278 877 -278 q 893 -287 885 -278 q 900 -300 900 -296 q 892 -313 900 -303 q 867 -339 883 -324 q 828 -369 850 -354 q 714 -403 777 -403 q 653 -384 684 -403 q 601 -334 622 -365 q 581 -269 581 -302 q 591 -204 581 -235 q 627 -139 601 -173 q 736 -22 672 -81 q 750 -6 752 -7 q 702 -7 748 -5 q 642 -8 655 -8 q 626 -3 629 -8 q 624 19 624 2 q 627 38 624 35 q 647 42 631 42 l 724 42 q 725 52 725 42 q 690 169 725 61 q 639 324 655 277 q 620 375 623 371 q 607 378 617 378 l 327 378 q 307 374 312 378 q 297 356 303 370 q 185 43 186 75 l 186 42 l 293 42 q 307 37 304 42 q 310 22 310 33 q 309 8 310 12 q 309 1 309 5 q 306 -5 308 -3 q 293 -8 302 -8 l 162 -4 m 592 419 q 604 424 604 419 q 600 439 604 428 l 485 777 q 477 793 480 793 q 468 777 474 793 l 332 443 q 325 423 325 426 q 343 419 325 419 l 592 419 z "},"":{"ha":582,"x_min":44,"x_max":560,"o":"m 465 372 l 457 89 q 463 64 457 76 q 479 52 470 52 q 513 69 489 52 q 540 86 537 86 q 551 75 543 86 q 560 61 560 65 q 556 54 560 58 q 545 45 553 51 q 530 34 538 40 q 511 20 523 29 q 487 2 499 11 q 468 -12 475 -7 q 443 -31 461 -18 q 417 -54 426 -45 q 392 -78 407 -62 q 367 -105 376 -93 q 347 -133 358 -116 q 330 -164 336 -149 q 315 -238 315 -200 q 342 -307 315 -276 q 394 -339 369 -339 q 438 -332 419 -339 q 468 -317 456 -326 q 491 -299 481 -308 q 519 -278 515 -278 q 530 -287 523 -278 q 537 -300 537 -296 q 529 -313 537 -303 q 504 -339 521 -324 q 466 -369 487 -354 q 351 -403 414 -403 q 290 -384 321 -403 q 239 -334 259 -365 q 218 -272 218 -302 q 230 -212 218 -242 q 258 -159 241 -183 q 300 -109 274 -136 q 368 -47 338 -70 q 399 -21 398 -23 q 389 -8 400 -18 q 375 23 379 3 q 370 44 371 42 q 366 45 368 46 q 362 43 365 45 q 186 -24 253 -24 q 82 10 120 -24 q 44 99 44 43 q 96 205 44 161 q 201 267 147 248 q 360 308 286 295 q 367 330 367 310 q 366 363 367 350 q 365 398 366 377 q 360 430 363 418 q 351 458 357 443 q 337 483 346 474 q 317 500 329 492 q 261 517 295 517 q 203 507 227 517 q 173 480 180 497 q 167 428 167 462 q 153 385 167 394 q 111 361 140 376 q 76 346 82 346 q 64 376 64 346 q 77 436 64 406 q 113 488 91 467 q 164 526 136 510 q 270 558 220 558 q 353 550 321 558 q 407 525 386 541 q 441 486 428 509 q 465 372 465 442 m 150 138 q 160 95 150 115 q 189 60 169 74 q 235 46 210 46 q 292 54 261 46 q 367 85 367 72 l 367 267 q 363 278 367 278 q 348 275 360 278 q 150 138 150 237 z "},"":{"ha":1015,"x_min":58,"x_max":929,"o":"m 536 1008 q 528 1011 528 1008 q 529 1017 528 1014 q 531 1022 530 1019 q 533 1025 533 1024 l 607 1144 q 655 1181 631 1181 q 692 1170 680 1181 q 704 1139 704 1158 q 683 1101 704 1120 l 583 1018 q 579 1014 582 1017 q 569 1008 574 1008 l 536 1008 m 893 308 l 908 307 q 929 292 929 305 q 907 100 929 271 q 874 67 905 88 q 794 25 842 46 q 550 -26 675 -26 q 309 26 420 -26 q 129 188 197 78 q 58 465 58 300 q 260 863 58 725 q 558 949 386 949 q 835 857 708 949 q 852 845 848 848 q 859 841 855 842 q 864 841 862 839 q 865 849 865 843 l 865 886 q 870 904 865 899 q 891 908 874 908 q 915 904 907 908 q 922 886 922 900 l 917 611 q 911 595 917 598 q 889 592 906 592 q 865 595 871 592 q 860 610 860 599 l 865 738 q 821 789 865 753 q 740 846 777 824 q 549 899 651 899 q 271 724 371 899 q 208 463 208 614 q 238 298 208 376 q 319 162 268 219 q 441 70 370 104 q 572 36 511 36 q 676 44 633 36 q 750 64 719 52 q 806 89 781 76 q 856 126 854 115 l 873 288 q 893 308 877 308 z "},"":{"ha":572,"x_min":44,"x_max":535,"o":"m 306 620 q 296 625 296 620 q 298 636 296 631 l 367 817 q 408 854 380 854 q 452 841 437 854 q 467 811 467 828 q 455 778 467 794 l 341 629 q 328 620 334 620 l 306 620 m 335 558 q 424 540 380 558 q 495 489 467 522 q 524 421 524 457 q 504 387 524 402 q 463 371 484 371 q 438 385 443 371 q 429 412 433 398 q 422 436 424 427 q 414 456 419 444 q 405 475 410 468 q 393 490 400 482 q 376 503 385 498 q 324 512 355 512 q 263 499 293 512 q 212 462 234 485 q 175 409 191 439 q 143 298 143 350 q 151 212 143 245 q 176 150 159 179 q 218 99 194 121 q 353 52 271 52 q 510 89 430 52 q 524 93 519 93 q 535 78 535 93 q 505 47 535 68 q 450 13 475 26 q 311 -18 388 -18 q 116 54 188 -18 q 44 258 44 125 q 132 474 44 390 q 335 558 220 558 z "},"":{"ha":1015,"x_min":58,"x_max":929,"o":"m 398 1008 q 389 1012 389 1008 q 390 1018 389 1016 q 394 1023 392 1021 q 397 1026 396 1025 l 507 1150 q 513 1157 509 1153 q 517 1162 516 1161 q 532 1170 525 1170 l 565 1170 q 590 1150 575 1170 l 700 1026 q 708 1013 708 1018 q 699 1008 708 1008 l 682 1008 q 664 1017 677 1008 l 553 1079 q 545 1079 549 1081 l 433 1017 q 415 1008 420 1008 l 398 1008 m 893 308 l 908 307 q 929 292 929 305 q 907 100 929 271 q 874 67 905 88 q 794 25 842 46 q 550 -26 675 -26 q 309 26 420 -26 q 129 188 197 78 q 58 465 58 300 q 260 863 58 725 q 558 949 386 949 q 835 857 708 949 q 852 845 848 848 q 859 841 855 842 q 864 841 862 839 q 865 849 865 843 l 865 886 q 870 904 865 899 q 891 908 874 908 q 915 904 907 908 q 922 886 922 900 l 917 611 q 911 595 917 598 q 889 592 906 592 q 865 595 871 592 q 860 610 860 599 l 865 738 q 821 789 865 753 q 740 846 777 824 q 549 899 651 899 q 271 724 371 899 q 208 463 208 614 q 238 298 208 376 q 319 162 268 219 q 441 70 370 104 q 572 36 511 36 q 676 44 633 36 q 750 64 719 52 q 806 89 781 76 q 856 126 854 115 l 873 288 q 893 308 877 308 z "},"":{"ha":572,"x_min":44,"x_max":535,"o":"m 175 633 q 162 637 162 633 q 169 651 162 641 l 279 817 q 292 834 289 831 q 307 836 296 836 l 336 836 q 350 834 346 836 q 362 817 353 831 l 472 651 q 479 637 479 641 q 467 633 479 633 l 450 633 q 442 637 447 633 q 436 643 438 641 l 323 740 q 321 742 322 742 q 318 740 319 742 l 205 643 q 192 633 196 633 l 175 633 m 335 558 q 424 540 380 558 q 495 489 467 522 q 524 421 524 457 q 504 387 524 402 q 463 371 484 371 q 438 385 443 371 q 429 412 433 398 q 422 436 424 427 q 414 456 419 444 q 405 475 410 468 q 393 490 400 482 q 376 503 385 498 q 324 512 355 512 q 263 499 293 512 q 212 462 234 485 q 175 409 191 439 q 143 298 143 350 q 151 212 143 245 q 176 150 159 179 q 218 99 194 121 q 353 52 271 52 q 510 89 430 52 q 524 93 519 93 q 535 78 535 93 q 505 47 535 68 q 450 13 475 26 q 311 -18 388 -18 q 116 54 188 -18 q 44 258 44 125 q 132 474 44 390 q 335 558 220 558 z "},"":{"ha":1015,"x_min":58,"x_max":929,"o":"m 893 308 l 908 307 q 929 292 929 305 q 907 100 929 271 q 874 67 905 88 q 794 25 842 46 q 550 -26 675 -26 q 309 26 420 -26 q 129 188 197 78 q 58 465 58 300 q 260 863 58 725 q 558 949 386 949 q 835 857 708 949 q 852 845 848 848 q 859 841 855 842 q 864 841 862 839 q 865 849 865 843 l 865 886 q 870 904 865 899 q 891 908 874 908 q 915 904 907 908 q 922 886 922 900 l 917 611 q 911 595 917 598 q 889 592 906 592 q 865 595 871 592 q 860 610 860 599 l 865 738 q 821 789 865 753 q 740 846 777 824 q 549 899 651 899 q 271 724 371 899 q 208 463 208 614 q 238 298 208 376 q 319 162 268 219 q 441 70 370 104 q 572 36 511 36 q 676 44 633 36 q 750 64 719 52 q 806 89 781 76 q 856 126 854 115 l 873 288 q 893 308 877 308 z "},"":{"ha":572,"x_min":44,"x_max":535,"o":"m 335 558 q 424 540 380 558 q 495 489 467 522 q 524 421 524 457 q 504 387 524 402 q 463 371 484 371 q 438 385 443 371 q 429 412 433 398 q 422 436 424 427 q 414 456 419 444 q 405 475 410 468 q 393 490 400 482 q 376 503 385 498 q 324 512 355 512 q 263 499 293 512 q 212 462 234 485 q 175 409 191 439 q 143 298 143 350 q 151 212 143 245 q 176 150 159 179 q 218 99 194 121 q 353 52 271 52 q 510 89 430 52 q 524 93 519 93 q 535 78 535 93 q 505 47 535 68 q 450 13 475 26 q 311 -18 388 -18 q 116 54 188 -18 q 44 258 44 125 q 132 474 44 390 q 335 558 220 558 z "},"":{"ha":1015,"x_min":58,"x_max":929,"o":"m 397 1152 q 389 1165 389 1160 q 398 1170 389 1170 l 415 1170 q 433 1161 419 1170 l 545 1099 q 553 1099 549 1097 l 664 1161 q 682 1170 678 1170 l 699 1170 q 708 1166 708 1170 q 707 1159 708 1162 q 703 1155 705 1157 q 700 1152 701 1153 l 590 1028 q 585 1021 588 1025 q 580 1016 581 1017 q 565 1008 572 1008 l 532 1008 q 507 1028 522 1008 l 397 1152 m 893 308 l 908 307 q 929 292 929 305 q 907 100 929 271 q 874 67 905 88 q 794 25 842 46 q 550 -26 675 -26 q 309 26 420 -26 q 129 188 197 78 q 58 465 58 300 q 260 863 58 725 q 558 949 386 949 q 835 857 708 949 q 852 845 848 848 q 859 841 855 842 q 864 841 862 839 q 865 849 865 843 l 865 886 q 870 904 865 899 q 891 908 874 908 q 915 904 907 908 q 922 886 922 900 l 917 611 q 911 595 917 598 q 889 592 906 592 q 865 595 871 592 q 860 610 860 599 l 865 738 q 821 789 865 753 q 740 846 777 824 q 549 899 651 899 q 271 724 371 899 q 208 463 208 614 q 238 298 208 376 q 319 162 268 219 q 441 70 370 104 q 572 36 511 36 q 676 44 633 36 q 750 64 719 52 q 806 89 781 76 q 856 126 854 115 l 873 288 q 893 308 877 308 z "},"":{"ha":572,"x_min":44,"x_max":535,"o":"m 169 818 q 162 832 162 828 q 175 836 162 836 l 192 836 q 199 832 195 836 q 205 826 203 828 l 318 729 q 321 728 319 728 q 323 729 322 728 l 436 826 q 450 836 446 836 l 467 836 q 479 832 479 836 q 472 818 479 829 l 362 653 q 350 636 353 638 q 335 633 346 633 l 306 633 q 292 636 295 633 q 279 653 289 638 l 169 818 m 335 558 q 424 540 380 558 q 495 489 467 522 q 524 421 524 457 q 504 387 524 402 q 463 371 484 371 q 438 385 443 371 q 429 412 433 398 q 422 436 424 427 q 414 456 419 444 q 405 475 410 468 q 393 490 400 482 q 376 503 385 498 q 324 512 355 512 q 263 499 293 512 q 212 462 234 485 q 175 409 191 439 q 143 298 143 350 q 151 212 143 245 q 176 150 159 179 q 218 99 194 121 q 353 52 271 52 q 510 89 430 52 q 524 93 519 93 q 535 78 535 93 q 505 47 535 68 q 450 13 475 26 q 311 -18 388 -18 q 116 54 188 -18 q 44 258 44 125 q 132 474 44 390 q 335 558 220 558 z "},"":{"ha":1053,"x_min":44,"x_max":995,"o":"m 323 1152 q 315 1165 315 1160 q 325 1170 315 1170 l 342 1170 q 360 1161 346 1170 l 471 1099 q 479 1099 475 1097 l 590 1161 q 608 1170 605 1170 l 625 1170 q 635 1166 635 1170 q 633 1159 635 1162 q 630 1155 632 1157 q 626 1152 627 1153 l 517 1028 q 511 1021 514 1025 q 506 1016 508 1017 q 492 1008 499 1008 l 458 1008 q 433 1028 449 1008 l 323 1152 m 240 -4 l 64 -10 q 48 -5 51 -10 q 44 15 44 0 q 51 35 44 30 q 72 39 57 39 l 161 39 q 172 344 166 39 q 178 768 178 650 q 175 886 178 886 l 79 883 q 64 887 68 883 q 60 904 60 890 q 63 924 60 918 q 79 930 66 930 l 178 929 q 337 937 235 929 q 495 946 439 946 q 632 925 551 946 q 779 863 713 904 q 893 764 845 822 q 995 465 995 644 q 880 146 995 274 q 606 0 777 31 q 497 -10 553 -10 l 240 -4 m 310 893 q 300 465 300 889 q 301 39 300 40 q 393 35 312 35 q 549 54 473 35 q 674 101 626 73 q 756 174 722 130 q 808 255 791 218 q 834 342 825 292 q 846 470 846 408 q 832 582 846 532 q 795 679 819 632 q 734 766 771 725 q 652 837 697 806 q 432 901 556 901 q 310 893 345 901 z "},"":{"ha":693,"x_min":38,"x_max":751,"o":"m 640 674 q 632 682 632 674 q 635 720 632 686 q 650 879 642 792 q 703 929 654 929 q 738 917 724 929 q 751 891 751 906 q 747 865 751 877 l 676 693 q 661 674 667 674 l 640 674 m 468 -19 l 469 31 q 454 32 469 41 q 286 -22 367 -22 q 65 109 126 -22 q 38 239 38 167 q 60 362 38 310 q 119 451 82 414 q 323 531 201 531 q 458 499 389 531 q 468 496 466 496 q 471 549 471 496 q 466 745 471 602 q 455 889 461 889 l 362 877 q 355 890 353 877 q 358 907 357 904 q 359 912 358 911 q 359 916 359 913 q 360 919 360 918 q 361 921 361 920 q 363 922 362 922 q 387 925 366 923 q 454 934 408 928 q 528 945 500 941 q 565 949 557 949 q 574 933 574 949 q 572 837 574 918 q 565 388 565 581 q 567 123 565 196 q 575 37 569 51 q 598 24 581 24 q 610 25 600 24 l 631 28 q 649 31 643 30 q 663 23 663 34 q 662 8 663 13 q 661 -2 662 4 q 650 -14 659 -13 q 479 -36 486 -36 q 470 -33 472 -36 q 468 -19 468 -29 m 181 396 q 173 381 181 396 q 156 332 164 367 q 147 255 147 298 q 159 172 147 212 q 195 102 171 132 q 354 38 246 38 q 428 52 385 38 q 471 79 471 65 l 471 426 q 444 458 471 439 q 348 494 391 494 q 275 482 306 494 q 221 447 244 469 q 181 396 198 425 z "},"":{"ha":1053,"x_min":44,"x_max":995,"o":"m 240 -4 l 64 -10 q 48 -5 51 -10 q 44 15 44 0 q 51 35 44 30 q 72 39 57 39 l 161 39 q 175 449 166 39 q 164 455 175 455 l 58 455 q 52 476 52 455 q 58 497 52 497 l 165 497 q 174 498 172 497 q 178 695 178 503 q 175 886 178 886 l 79 883 q 64 887 68 883 q 60 904 60 890 q 63 924 60 918 q 79 930 66 930 l 178 929 q 337 937 235 929 q 495 946 439 946 q 632 925 551 946 q 779 863 713 904 q 893 764 845 822 q 995 465 995 644 q 880 146 995 274 q 606 0 777 31 q 497 -10 553 -10 l 240 -4 m 313 455 q 300 446 300 455 l 300 119 q 301 39 300 40 q 393 35 312 35 q 549 54 473 35 q 674 101 626 73 q 756 174 722 130 q 808 255 791 218 q 834 342 825 292 q 846 470 846 408 q 832 582 846 532 q 795 679 819 632 q 734 766 771 725 q 652 837 697 806 q 432 901 556 901 q 310 893 345 901 q 304 818 307 892 q 301 694 301 744 l 300 507 q 301 498 300 499 q 311 497 303 497 l 602 497 q 608 476 608 497 q 602 455 608 455 l 313 455 z "},"":{"ha":693,"x_min":38,"x_max":663,"o":"m 468 -19 l 469 31 q 454 32 469 41 q 286 -22 367 -22 q 65 109 126 -22 q 38 239 38 167 q 60 362 38 310 q 119 451 82 414 q 323 531 201 531 q 458 499 389 531 q 468 496 466 496 q 471 513 471 496 q 469 604 471 531 q 466 679 468 677 q 454 681 465 681 l 250 681 q 242 701 242 681 q 250 722 242 722 l 453 722 q 465 724 463 722 q 464 807 467 725 q 455 889 461 889 l 362 877 q 355 890 353 877 q 358 907 357 904 q 359 912 358 911 q 359 916 359 913 q 360 919 360 918 q 361 921 361 920 q 363 922 362 922 q 387 925 366 923 q 454 934 408 928 q 528 945 500 941 q 565 949 557 949 q 574 930 574 949 q 572 818 574 910 q 571 724 569 725 q 582 722 572 722 l 654 722 q 663 701 663 722 q 654 681 663 681 l 582 681 q 570 679 572 681 q 565 435 565 675 q 567 123 565 196 q 575 37 569 51 q 598 24 581 24 q 610 25 600 24 l 631 28 q 649 31 643 30 q 663 23 663 34 q 662 8 663 13 q 661 -2 662 4 q 650 -14 659 -13 q 479 -36 486 -36 q 470 -33 472 -36 q 468 -19 468 -29 m 181 396 q 173 381 181 396 q 156 332 164 367 q 147 255 147 298 q 159 172 147 212 q 195 102 171 132 q 354 38 246 38 q 428 52 385 38 q 471 79 471 65 l 471 426 q 444 458 471 439 q 348 494 391 494 q 275 482 306 494 q 221 447 244 469 q 181 396 198 425 z "},"":{"ha":840,"x_min":52,"x_max":796,"o":"m 293 1095 l 293 1126 q 296 1139 293 1136 q 307 1142 299 1142 l 572 1142 q 582 1139 580 1142 q 585 1128 585 1136 l 585 1093 q 583 1080 585 1083 q 572 1078 581 1078 l 307 1078 q 295 1081 297 1078 q 293 1095 293 1083 m 243 -4 l 74 -8 q 55 -3 59 -8 q 52 18 52 2 q 57 38 52 34 q 79 42 62 42 l 164 42 q 170 142 170 42 l 170 275 l 164 683 q 159 829 164 779 q 151 879 154 879 l 86 879 q 67 883 72 879 q 62 908 62 887 q 81 928 62 928 l 142 926 q 232 924 203 924 l 582 928 q 659 930 652 928 q 666 939 666 932 q 667 945 667 941 q 669 952 668 949 q 671 958 669 954 q 690 963 675 963 q 711 959 705 963 q 717 943 717 956 l 711 760 q 706 747 711 750 q 685 744 700 744 q 660 765 660 744 l 664 872 q 531 879 664 876 q 293 882 399 882 q 285 766 285 882 q 286 574 285 650 q 289 496 288 498 q 300 493 291 493 l 532 493 q 604 511 604 493 l 604 583 q 630 597 604 597 q 655 585 655 597 l 653 474 l 655 356 q 630 343 655 343 q 604 357 604 343 l 604 426 q 532 447 604 447 q 355 447 414 447 q 294 447 296 447 q 291 446 292 447 q 290 444 291 446 q 288 441 289 443 q 288 437 288 439 q 292 243 288 434 q 303 52 296 52 l 728 56 q 736 60 735 56 q 740 83 738 64 q 744 207 742 102 q 770 219 744 219 q 796 205 796 219 l 792 11 q 764 -8 792 -8 l 243 -4 z "},"":{"ha":589,"x_min":39,"x_max":553,"o":"m 171 720 l 171 751 q 173 765 171 763 q 182 767 176 767 l 450 767 q 460 764 457 767 q 463 753 463 761 l 463 718 q 461 705 463 708 q 450 703 459 703 l 182 703 q 173 706 175 703 q 171 720 171 709 m 457 308 l 147 315 q 143 261 143 305 q 160 174 143 218 q 205 103 177 131 q 342 44 264 44 q 514 125 436 44 q 526 135 523 135 q 540 124 528 135 q 553 111 553 113 q 542 94 553 108 q 508 60 531 80 q 458 20 486 39 q 317 -25 389 -25 q 194 -4 245 -25 q 108 54 142 17 q 57 143 75 92 q 39 257 39 195 q 60 374 39 319 q 118 468 81 428 q 325 554 198 554 q 484 486 428 554 q 536 329 536 421 q 457 308 536 308 m 401 353 q 432 358 432 353 q 370 497 432 458 q 308 515 340 515 q 247 500 276 515 q 197 460 218 484 q 150 354 154 408 q 162 347 150 347 l 401 353 z "},"":{"ha":840,"x_min":52,"x_max":796,"o":"m 327 1052 q 319 1062 327 1052 q 301 1098 310 1072 q 292 1146 292 1125 q 293 1168 292 1168 l 324 1168 q 327 1162 325 1168 q 330 1147 328 1156 q 339 1126 332 1137 q 357 1106 347 1116 q 425 1085 383 1085 q 488 1091 467 1085 q 519 1106 509 1097 q 538 1126 530 1116 q 548 1147 545 1137 q 552 1162 550 1156 q 554 1168 553 1168 l 585 1168 q 586 1146 586 1168 q 577 1098 586 1125 q 551 1052 568 1072 q 505 1020 533 1031 q 439 1008 476 1008 q 374 1020 402 1008 q 327 1052 345 1031 m 243 -4 l 74 -8 q 55 -3 59 -8 q 52 18 52 2 q 57 38 52 34 q 79 42 62 42 l 164 42 q 170 142 170 42 l 170 275 l 164 683 q 159 829 164 779 q 151 879 154 879 l 86 879 q 67 883 72 879 q 62 908 62 887 q 81 928 62 928 l 142 926 q 232 924 203 924 l 582 928 q 659 930 652 928 q 666 939 666 932 q 667 945 667 941 q 669 952 668 949 q 671 958 669 954 q 690 963 675 963 q 711 959 705 963 q 717 943 717 956 l 711 760 q 706 747 711 750 q 685 744 700 744 q 660 765 660 744 l 664 872 q 531 879 664 876 q 293 882 399 882 q 285 766 285 882 q 286 574 285 650 q 289 496 288 498 q 300 493 291 493 l 532 493 q 604 511 604 493 l 604 583 q 630 597 604 597 q 655 585 655 597 l 653 474 l 655 356 q 630 343 655 343 q 604 357 604 343 l 604 426 q 532 447 604 447 q 355 447 414 447 q 294 447 296 447 q 291 446 292 447 q 290 444 291 446 q 288 441 289 443 q 288 437 288 439 q 292 243 288 434 q 303 52 296 52 l 728 56 q 736 60 735 56 q 740 83 738 64 q 744 207 742 102 q 770 219 744 219 q 796 205 796 219 l 792 11 q 764 -8 792 -8 l 243 -4 z "},"":{"ha":589,"x_min":39,"x_max":553,"o":"m 172 818 l 201 818 q 204 810 202 818 q 217 769 210 782 q 231 748 224 756 q 250 730 238 739 q 278 718 261 722 q 317 714 295 714 q 356 718 339 714 q 384 730 372 722 q 424 790 414 752 q 435 818 432 818 l 461 818 q 464 800 464 818 q 459 757 464 781 q 442 710 453 733 q 413 671 430 688 q 317 633 376 633 q 192 710 231 633 q 170 785 170 753 q 172 818 170 818 m 457 308 l 147 315 q 143 261 143 305 q 160 174 143 218 q 205 103 177 131 q 342 44 264 44 q 514 125 436 44 q 526 135 523 135 q 540 124 528 135 q 553 111 553 113 q 542 94 553 108 q 508 60 531 80 q 458 20 486 39 q 317 -25 389 -25 q 194 -4 245 -25 q 108 54 142 17 q 57 143 75 92 q 39 257 39 195 q 60 374 39 319 q 118 468 81 428 q 325 554 198 554 q 484 486 428 554 q 536 329 536 421 q 457 308 536 308 m 401 353 q 432 358 432 353 q 370 497 432 458 q 308 515 340 515 q 247 500 276 515 q 197 460 218 484 q 150 354 154 408 q 162 347 150 347 l 401 353 z "},"":{"ha":840,"x_min":52,"x_max":796,"o":"m 243 -4 l 74 -8 q 55 -3 59 -8 q 52 18 52 2 q 57 38 52 34 q 79 42 62 42 l 164 42 q 170 142 170 42 l 170 275 l 164 683 q 159 829 164 779 q 151 879 154 879 l 86 879 q 67 883 72 879 q 62 908 62 887 q 81 928 62 928 l 142 926 q 232 924 203 924 l 582 928 q 659 930 652 928 q 666 939 666 932 q 667 945 667 941 q 669 952 668 949 q 671 958 669 954 q 690 963 675 963 q 711 959 705 963 q 717 943 717 956 l 711 760 q 706 747 711 750 q 685 744 700 744 q 660 765 660 744 l 664 872 q 531 879 664 876 q 293 882 399 882 q 285 766 285 882 q 286 574 285 650 q 289 496 288 498 q 300 493 291 493 l 532 493 q 604 511 604 493 l 604 583 q 630 597 604 597 q 655 585 655 597 l 653 474 l 655 356 q 630 343 655 343 q 604 357 604 343 l 604 426 q 532 447 604 447 q 355 447 414 447 q 294 447 296 447 q 291 446 292 447 q 290 444 291 446 q 288 441 289 443 q 288 437 288 439 q 292 243 288 434 q 303 52 296 52 l 728 56 q 736 60 735 56 q 740 83 738 64 q 744 207 742 102 q 770 219 744 219 q 796 205 796 219 l 792 11 q 764 -8 792 -8 l 243 -4 z "},"":{"ha":589,"x_min":39,"x_max":553,"o":"m 457 308 l 147 315 q 143 261 143 305 q 160 174 143 218 q 205 103 177 131 q 342 44 264 44 q 514 125 436 44 q 526 135 523 135 q 540 124 528 135 q 553 111 553 113 q 542 94 553 108 q 508 60 531 80 q 458 20 486 39 q 317 -25 389 -25 q 194 -4 245 -25 q 108 54 142 17 q 57 143 75 92 q 39 257 39 195 q 60 374 39 319 q 118 468 81 428 q 325 554 198 554 q 484 486 428 554 q 536 329 536 421 q 457 308 536 308 m 401 353 q 432 358 432 353 q 370 497 432 458 q 308 515 340 515 q 247 500 276 515 q 197 460 218 484 q 150 354 154 408 q 162 347 150 347 l 401 353 z "},"":{"ha":840,"x_min":52,"x_max":796,"o":"m 243 -4 l 74 -8 q 55 -3 59 -8 q 52 18 52 2 q 57 38 52 34 q 79 42 62 42 l 164 42 q 170 142 170 42 l 170 275 l 164 683 q 159 829 164 779 q 151 879 154 879 l 86 879 q 67 883 72 879 q 62 908 62 887 q 81 928 62 928 l 142 926 q 232 924 203 924 l 582 928 q 659 930 652 928 q 666 939 666 932 q 667 945 667 941 q 669 952 668 949 q 671 958 669 954 q 690 963 675 963 q 711 959 705 963 q 717 943 717 956 l 711 760 q 706 747 711 750 q 685 744 700 744 q 660 765 660 744 l 664 872 q 531 879 664 876 q 293 882 399 882 q 285 766 285 882 q 286 574 285 650 q 289 496 288 498 q 300 493 291 493 l 532 493 q 604 511 604 493 l 604 583 q 630 597 604 597 q 655 585 655 597 l 653 474 l 655 356 q 630 343 655 343 q 604 357 604 343 l 604 426 q 532 447 604 447 q 355 447 414 447 q 294 447 296 447 q 291 446 292 447 q 290 444 291 446 q 288 441 289 443 q 288 437 288 439 q 292 243 288 434 q 303 52 296 52 l 728 56 q 736 60 735 56 q 740 83 738 64 q 744 207 742 102 q 770 219 744 219 q 796 205 796 219 l 792 11 q 764 -8 792 -8 l 668 -8 q 642 -19 652 -8 q 537 -232 537 -131 q 564 -307 537 -276 q 616 -339 591 -339 q 660 -332 642 -339 q 690 -317 678 -326 q 713 -299 703 -308 q 741 -278 737 -278 q 752 -287 745 -278 q 760 -300 760 -296 q 752 -313 760 -303 q 726 -339 743 -324 q 688 -369 710 -354 q 574 -403 636 -403 q 513 -384 544 -403 q 461 -334 481 -365 q 440 -269 440 -302 q 450 -205 440 -235 q 485 -142 459 -175 q 560 -58 520 -97 q 604 -16 600 -20 q 609 -10 609 -12 q 608 -8 610 -8 q 243 -4 596 -4 z "},"":{"ha":589,"x_min":39,"x_max":553,"o":"m 457 308 l 147 315 q 143 261 143 305 q 160 174 143 218 q 205 103 177 131 q 342 44 264 44 q 514 125 436 44 q 526 135 523 135 q 540 124 528 135 q 553 111 553 113 q 545 98 553 109 q 489 42 520 66 q 438 -3 458 18 q 394 -51 417 -23 q 355 -107 372 -79 q 315 -223 315 -171 q 342 -307 315 -276 q 394 -339 369 -339 q 438 -332 419 -339 q 468 -317 456 -326 q 491 -299 481 -308 q 519 -278 515 -278 q 530 -287 523 -278 q 537 -300 537 -296 q 529 -313 537 -303 q 504 -339 521 -324 q 466 -369 487 -354 q 351 -403 414 -403 q 290 -384 321 -403 q 239 -334 259 -365 q 218 -278 218 -302 q 220 -239 218 -254 q 225 -212 222 -224 q 234 -187 228 -200 q 245 -164 240 -174 q 260 -142 250 -154 q 277 -120 270 -129 q 298 -98 284 -112 q 320 -75 311 -84 q 345 -50 329 -66 q 377 -16 378 -17 q 357 -20 375 -16 q 292 -25 339 -25 q 194 -4 245 -25 q 108 54 142 17 q 57 143 75 92 q 39 257 39 195 q 60 374 39 319 q 118 468 81 428 q 325 554 198 554 q 484 486 428 554 q 536 329 536 421 q 457 308 536 308 m 401 353 q 432 358 432 353 q 370 497 432 458 q 308 515 340 515 q 247 500 276 515 q 197 460 218 484 q 150 354 154 408 q 162 347 150 347 l 401 353 z "},"":{"ha":840,"x_min":52,"x_max":796,"o":"m 288 1152 q 279 1165 279 1160 q 289 1170 279 1170 l 306 1170 q 324 1161 310 1170 l 435 1099 q 443 1099 439 1097 l 554 1161 q 572 1170 569 1170 l 589 1170 q 599 1166 599 1170 q 597 1159 599 1162 q 594 1155 596 1157 q 590 1152 591 1153 l 481 1028 q 475 1021 478 1025 q 470 1016 472 1017 q 456 1008 463 1008 l 422 1008 q 397 1028 413 1008 l 288 1152 m 243 -4 l 74 -8 q 55 -3 59 -8 q 52 18 52 2 q 57 38 52 34 q 79 42 62 42 l 164 42 q 170 142 170 42 l 170 275 l 164 683 q 159 829 164 779 q 151 879 154 879 l 86 879 q 67 883 72 879 q 62 908 62 887 q 81 928 62 928 l 142 926 q 232 924 203 924 l 582 928 q 659 930 652 928 q 666 939 666 932 q 667 945 667 941 q 669 952 668 949 q 671 958 669 954 q 690 963 675 963 q 711 959 705 963 q 717 943 717 956 l 711 760 q 706 747 711 750 q 685 744 700 744 q 660 765 660 744 l 664 872 q 531 879 664 876 q 293 882 399 882 q 285 766 285 882 q 286 574 285 650 q 289 496 288 498 q 300 493 291 493 l 532 493 q 604 511 604 493 l 604 583 q 630 597 604 597 q 655 585 655 597 l 653 474 l 655 356 q 630 343 655 343 q 604 357 604 343 l 604 426 q 532 447 604 447 q 355 447 414 447 q 294 447 296 447 q 291 446 292 447 q 290 444 291 446 q 288 441 289 443 q 288 437 288 439 q 292 243 288 434 q 303 52 296 52 l 728 56 q 736 60 735 56 q 740 83 738 64 q 744 207 742 102 q 770 219 744 219 q 796 205 796 219 l 792 11 q 764 -8 792 -8 l 243 -4 z "},"":{"ha":589,"x_min":39,"x_max":553,"o":"m 165 818 q 158 832 158 828 q 171 836 158 836 l 188 836 q 195 832 191 836 q 201 826 199 828 l 314 729 q 317 728 315 728 q 319 729 318 728 l 432 826 q 446 836 442 836 l 463 836 q 475 832 475 836 q 468 818 475 829 l 358 653 q 346 636 349 638 q 331 633 342 633 l 301 633 q 288 636 291 633 q 275 653 284 638 l 165 818 m 457 308 l 147 315 q 143 261 143 305 q 160 174 143 218 q 205 103 177 131 q 342 44 264 44 q 514 125 436 44 q 526 135 523 135 q 540 124 528 135 q 553 111 553 113 q 542 94 553 108 q 508 60 531 80 q 458 20 486 39 q 317 -25 389 -25 q 194 -4 245 -25 q 108 54 142 17 q 57 143 75 92 q 39 257 39 195 q 60 374 39 319 q 118 468 81 428 q 325 554 198 554 q 484 486 428 554 q 536 329 536 421 q 457 308 536 308 m 401 353 q 432 358 432 353 q 370 497 432 458 q 308 515 340 515 q 247 500 276 515 q 197 460 218 484 q 150 354 154 408 q 162 347 150 347 l 401 353 z "},"":{"ha":1061,"x_min":58,"x_max":1010,"o":"m 411 1008 q 401 1012 401 1008 q 403 1018 401 1016 q 406 1023 404 1021 q 410 1026 409 1025 l 519 1150 q 525 1157 522 1153 q 530 1162 529 1161 q 545 1170 537 1170 l 578 1170 q 603 1150 588 1170 l 712 1026 q 721 1013 721 1018 q 711 1008 721 1008 l 694 1008 q 676 1017 690 1008 l 565 1079 q 557 1079 561 1081 l 446 1017 q 428 1008 432 1008 l 411 1008 m 938 225 l 936 101 q 854 42 936 80 q 550 -29 699 -29 q 266 45 386 -29 q 85 281 135 127 q 58 460 58 364 q 84 634 58 556 q 156 768 110 711 q 266 865 202 825 q 567 944 392 944 q 849 861 729 944 q 865 863 865 848 l 865 897 q 870 915 865 910 q 891 920 874 920 q 914 915 907 920 q 921 897 921 911 l 917 640 q 911 623 917 627 q 888 620 906 620 q 865 623 871 620 q 860 637 860 627 l 865 751 q 805 816 865 768 q 561 899 701 899 q 422 865 488 899 q 310 775 357 832 q 236 636 263 717 q 208 474 208 555 q 226 327 208 393 q 278 206 244 261 q 359 109 313 151 q 589 21 457 21 q 777 64 706 21 q 811 95 810 84 q 815 216 815 130 q 806 301 815 301 l 685 301 q 669 326 669 301 q 683 351 669 351 l 869 347 l 995 351 q 1010 326 1010 351 q 995 301 1010 301 l 951 301 q 940 285 943 301 q 938 225 938 268 z "},"":{"ha":590,"x_min":17,"x_max":588,"o":"m 139 633 q 126 637 126 633 q 133 651 126 641 l 243 817 q 256 834 253 831 q 271 836 260 836 l 300 836 q 314 834 310 836 q 327 817 317 831 l 436 651 q 443 637 443 641 q 431 633 443 633 l 414 633 q 406 637 411 633 q 400 643 402 641 l 288 740 q 285 742 286 742 q 282 740 283 742 l 170 643 q 156 633 160 633 l 139 633 m 75 -349 q 33 -302 49 -330 q 17 -244 17 -274 q 28 -191 17 -215 q 57 -151 39 -168 q 98 -120 74 -135 q 173 -85 141 -94 q 205 -76 204 -77 q 202 -75 205 -75 l 185 -75 l 135 -75 q 75 -46 89 -75 q 62 25 62 -15 q 90 71 62 65 q 235 110 235 109 q 222 114 235 112 q 43 342 43 165 q 64 427 43 387 q 120 494 85 467 q 292 553 195 553 q 383 535 350 553 q 430 507 415 517 q 454 489 445 496 q 464 482 463 482 q 482 488 465 482 q 565 508 533 506 q 577 493 572 508 q 582 466 582 478 q 574 453 582 453 q 529 445 560 451 q 497 437 497 439 q 501 422 497 435 q 514 338 514 382 q 503 259 514 294 q 470 199 492 224 q 244 87 415 135 q 177 68 221 80 q 111 50 134 56 q 108 43 108 50 q 112 26 108 35 q 125 4 121 4 q 216 0 165 2 q 303 -4 268 -2 q 365 -10 337 -6 q 422 -19 392 -13 q 476 -33 453 -25 q 521 -55 499 -42 q 557 -84 543 -68 q 588 -182 588 -120 q 548 -297 588 -243 q 278 -407 466 -407 q 75 -349 156 -407 m 105 -173 q 96 -186 105 -173 q 87 -231 87 -199 q 105 -288 87 -262 q 151 -330 123 -314 q 276 -362 209 -362 q 452 -312 388 -362 q 500 -205 500 -273 q 478 -157 500 -179 q 419 -124 455 -136 q 262 -99 346 -99 q 166 -123 208 -99 q 105 -173 123 -147 m 214 488 q 197 477 214 488 q 161 429 181 467 q 140 350 140 391 q 153 274 140 309 q 183 214 165 239 q 222 172 201 190 q 285 136 263 136 q 330 151 307 136 q 373 191 353 165 q 419 334 419 249 q 383 464 419 419 q 285 510 347 510 q 214 488 247 510 z "},"":{"ha":1061,"x_min":58,"x_max":1010,"o":"m 449 1052 q 441 1062 449 1052 q 423 1098 432 1072 q 414 1146 414 1125 q 415 1168 414 1168 l 446 1168 q 449 1162 447 1168 q 452 1147 450 1156 q 461 1126 454 1137 q 479 1106 469 1116 q 547 1085 505 1085 q 610 1091 589 1085 q 642 1106 631 1097 q 660 1126 652 1116 q 670 1147 667 1137 q 674 1162 672 1156 q 676 1168 675 1168 l 707 1168 q 708 1146 708 1168 q 699 1098 708 1125 q 673 1052 690 1072 q 627 1020 655 1031 q 561 1008 598 1008 q 496 1020 524 1008 q 449 1052 467 1031 m 938 225 l 936 101 q 854 42 936 80 q 550 -29 699 -29 q 266 45 386 -29 q 85 281 135 127 q 58 460 58 364 q 84 634 58 556 q 156 768 110 711 q 266 865 202 825 q 567 944 392 944 q 849 861 729 944 q 865 863 865 848 l 865 897 q 870 915 865 910 q 891 920 874 920 q 914 915 907 920 q 921 897 921 911 l 917 640 q 911 623 917 627 q 888 620 906 620 q 865 623 871 620 q 860 637 860 627 l 865 751 q 805 816 865 768 q 561 899 701 899 q 422 865 488 899 q 310 775 357 832 q 236 636 263 717 q 208 474 208 555 q 226 327 208 393 q 278 206 244 261 q 359 109 313 151 q 589 21 457 21 q 777 64 706 21 q 811 95 810 84 q 815 216 815 130 q 806 301 815 301 l 685 301 q 669 326 669 301 q 683 351 669 351 l 869 347 l 995 351 q 1010 326 1010 351 q 995 301 1010 301 l 951 301 q 940 285 943 301 q 938 225 938 268 z "},"":{"ha":590,"x_min":17,"x_max":588,"o":"m 140 818 l 170 818 q 172 810 171 818 q 185 769 178 782 q 199 748 192 756 q 218 730 207 739 q 246 718 229 722 q 285 714 263 714 q 324 718 307 714 q 352 730 340 722 q 392 790 382 752 q 403 818 400 818 l 429 818 q 432 800 432 818 q 427 757 432 781 q 410 710 421 733 q 381 671 398 688 q 285 633 344 633 q 160 710 199 633 q 138 785 138 753 q 140 818 138 818 m 75 -349 q 33 -302 49 -330 q 17 -244 17 -274 q 28 -191 17 -215 q 57 -151 39 -168 q 98 -120 74 -135 q 173 -85 141 -94 q 205 -76 204 -77 q 202 -75 205 -75 l 185 -75 l 135 -75 q 75 -46 89 -75 q 62 25 62 -15 q 90 71 62 65 q 235 110 235 109 q 222 114 235 112 q 43 342 43 165 q 64 427 43 387 q 120 494 85 467 q 292 553 195 553 q 383 535 350 553 q 430 507 415 517 q 454 489 445 496 q 464 482 463 482 q 482 488 465 482 q 565 508 533 506 q 577 493 572 508 q 582 466 582 478 q 574 453 582 453 q 529 445 560 451 q 497 437 497 439 q 501 422 497 435 q 514 338 514 382 q 503 259 514 294 q 470 199 492 224 q 244 87 415 135 q 177 68 221 80 q 111 50 134 56 q 108 43 108 50 q 112 26 108 35 q 125 4 121 4 q 216 0 165 2 q 303 -4 268 -2 q 365 -10 337 -6 q 422 -19 392 -13 q 476 -33 453 -25 q 521 -55 499 -42 q 557 -84 543 -68 q 588 -182 588 -120 q 548 -297 588 -243 q 278 -407 466 -407 q 75 -349 156 -407 m 105 -173 q 96 -186 105 -173 q 87 -231 87 -199 q 105 -288 87 -262 q 151 -330 123 -314 q 276 -362 209 -362 q 452 -312 388 -362 q 500 -205 500 -273 q 478 -157 500 -179 q 419 -124 455 -136 q 262 -99 346 -99 q 166 -123 208 -99 q 105 -173 123 -147 m 214 488 q 197 477 214 488 q 161 429 181 467 q 140 350 140 391 q 153 274 140 309 q 183 214 165 239 q 222 172 201 190 q 285 136 263 136 q 330 151 307 136 q 373 191 353 165 q 419 334 419 249 q 383 464 419 419 q 285 510 347 510 q 214 488 247 510 z "},"":{"ha":1061,"x_min":58,"x_max":1010,"o":"m 938 225 l 936 101 q 854 42 936 80 q 550 -29 699 -29 q 266 45 386 -29 q 85 281 135 127 q 58 460 58 364 q 84 634 58 556 q 156 768 110 711 q 266 865 202 825 q 567 944 392 944 q 849 861 729 944 q 865 863 865 848 l 865 897 q 870 915 865 910 q 891 920 874 920 q 914 915 907 920 q 921 897 921 911 l 917 640 q 911 623 917 627 q 888 620 906 620 q 865 623 871 620 q 860 637 860 627 l 865 751 q 805 816 865 768 q 561 899 701 899 q 422 865 488 899 q 310 775 357 832 q 236 636 263 717 q 208 474 208 555 q 226 327 208 393 q 278 206 244 261 q 359 109 313 151 q 589 21 457 21 q 777 64 706 21 q 811 95 810 84 q 815 216 815 130 q 806 301 815 301 l 685 301 q 669 326 669 301 q 683 351 669 351 l 869 347 l 995 351 q 1010 326 1010 351 q 995 301 1010 301 l 951 301 q 940 285 943 301 q 938 225 938 268 z "},"":{"ha":590,"x_min":17,"x_max":588,"o":"m 75 -349 q 33 -302 49 -330 q 17 -244 17 -274 q 28 -191 17 -215 q 57 -151 39 -168 q 98 -120 74 -135 q 173 -85 141 -94 q 205 -76 204 -77 q 202 -75 205 -75 l 185 -75 l 135 -75 q 75 -46 89 -75 q 62 25 62 -15 q 90 71 62 65 q 235 110 235 109 q 222 114 235 112 q 43 342 43 165 q 64 427 43 387 q 120 494 85 467 q 292 553 195 553 q 383 535 350 553 q 430 507 415 517 q 454 489 445 496 q 464 482 463 482 q 482 488 465 482 q 565 508 533 506 q 577 493 572 508 q 582 466 582 478 q 574 453 582 453 q 529 445 560 451 q 497 437 497 439 q 501 422 497 435 q 514 338 514 382 q 503 259 514 294 q 470 199 492 224 q 244 87 415 135 q 177 68 221 80 q 111 50 134 56 q 108 43 108 50 q 112 26 108 35 q 125 4 121 4 q 216 0 165 2 q 303 -4 268 -2 q 365 -10 337 -6 q 422 -19 392 -13 q 476 -33 453 -25 q 521 -55 499 -42 q 557 -84 543 -68 q 588 -182 588 -120 q 548 -297 588 -243 q 278 -407 466 -407 q 75 -349 156 -407 m 105 -173 q 96 -186 105 -173 q 87 -231 87 -199 q 105 -288 87 -262 q 151 -330 123 -314 q 276 -362 209 -362 q 452 -312 388 -362 q 500 -205 500 -273 q 478 -157 500 -179 q 419 -124 455 -136 q 262 -99 346 -99 q 166 -123 208 -99 q 105 -173 123 -147 m 214 488 q 197 477 214 488 q 161 429 181 467 q 140 350 140 391 q 153 274 140 309 q 183 214 165 239 q 222 172 201 190 q 285 136 263 136 q 330 151 307 136 q 373 191 353 165 q 419 334 419 249 q 383 464 419 419 q 285 510 347 510 q 214 488 247 510 z "},"":{"ha":1061,"x_min":58,"x_max":1010,"o":"m 497 -313 q 510 -301 497 -311 q 539 -281 523 -292 q 581 -222 581 -250 q 554 -175 581 -195 q 532 -160 543 -167 q 506 -135 506 -142 q 533 -99 506 -117 q 571 -81 560 -81 q 603 -93 582 -81 q 644 -125 625 -106 q 663 -165 663 -143 q 649 -215 663 -186 q 615 -265 635 -244 q 573 -304 594 -287 q 515 -340 530 -340 q 505 -329 512 -340 q 497 -313 497 -318 m 938 225 l 936 101 q 854 42 936 80 q 550 -29 699 -29 q 266 45 386 -29 q 85 281 135 127 q 58 460 58 364 q 84 634 58 556 q 156 768 110 711 q 266 865 202 825 q 567 944 392 944 q 849 861 729 944 q 865 863 865 848 l 865 897 q 870 915 865 910 q 891 920 874 920 q 914 915 907 920 q 921 897 921 911 l 917 640 q 911 623 917 627 q 888 620 906 620 q 865 623 871 620 q 860 637 860 627 l 865 751 q 805 816 865 768 q 561 899 701 899 q 422 865 488 899 q 310 775 357 832 q 236 636 263 717 q 208 474 208 555 q 226 327 208 393 q 278 206 244 261 q 359 109 313 151 q 589 21 457 21 q 777 64 706 21 q 811 95 810 84 q 815 216 815 130 q 806 301 815 301 l 685 301 q 669 326 669 301 q 683 351 669 351 l 869 347 l 995 351 q 1010 326 1010 351 q 995 301 1010 301 l 951 301 q 940 285 943 301 q 938 225 938 268 z "},"":{"ha":590,"x_min":17,"x_max":588,"o":"m 260 632 q 250 638 260 632 q 220 663 239 645 q 201 704 201 682 q 215 754 201 725 q 249 804 229 783 q 291 843 269 826 q 349 879 335 879 q 359 868 352 879 q 367 851 367 857 q 353 840 367 849 q 325 819 340 831 q 283 761 283 789 q 310 714 283 734 q 332 699 321 706 q 358 674 358 682 q 331 638 358 656 q 293 620 303 620 q 260 632 282 620 m 75 -349 q 33 -302 49 -330 q 17 -244 17 -274 q 28 -191 17 -215 q 57 -151 39 -168 q 98 -120 74 -135 q 173 -85 141 -94 q 205 -76 204 -77 q 202 -75 205 -75 l 185 -75 l 135 -75 q 75 -46 89 -75 q 62 25 62 -15 q 90 71 62 65 q 235 110 235 109 q 222 114 235 112 q 43 342 43 165 q 64 427 43 387 q 120 494 85 467 q 292 553 195 553 q 383 535 350 553 q 430 507 415 517 q 454 489 445 496 q 464 482 463 482 q 482 488 465 482 q 565 508 533 506 q 577 493 572 508 q 582 466 582 478 q 574 453 582 453 q 529 445 560 451 q 497 437 497 439 q 501 422 497 435 q 514 338 514 382 q 503 259 514 294 q 470 199 492 224 q 244 87 415 135 q 177 68 221 80 q 111 50 134 56 q 108 43 108 50 q 112 26 108 35 q 125 4 121 4 q 216 0 165 2 q 303 -4 268 -2 q 365 -10 337 -6 q 422 -19 392 -13 q 476 -33 453 -25 q 521 -55 499 -42 q 557 -84 543 -68 q 588 -182 588 -120 q 548 -297 588 -243 q 278 -407 466 -407 q 75 -349 156 -407 m 105 -173 q 96 -186 105 -173 q 87 -231 87 -199 q 105 -288 87 -262 q 151 -330 123 -314 q 276 -362 209 -362 q 452 -312 388 -362 q 500 -205 500 -273 q 478 -157 500 -179 q 419 -124 455 -136 q 262 -99 346 -99 q 166 -123 208 -99 q 105 -173 123 -147 m 214 488 q 197 477 214 488 q 161 429 181 467 q 140 350 140 391 q 153 274 140 309 q 183 214 165 239 q 222 172 201 190 q 285 136 263 136 q 330 151 307 136 q 373 191 353 165 q 419 334 419 249 q 383 464 419 419 q 285 510 347 510 q 214 488 247 510 z "},"":{"ha":1098,"x_min":52,"x_max":1047,"o":"m 408 1008 q 399 1012 399 1008 q 400 1018 399 1016 q 404 1023 401 1021 q 407 1026 406 1025 l 517 1150 q 523 1157 519 1153 q 527 1162 526 1161 q 542 1170 535 1170 l 575 1170 q 600 1150 585 1170 l 710 1026 q 718 1013 718 1018 q 708 1008 718 1008 l 692 1008 q 674 1017 687 1008 l 563 1079 q 554 1079 558 1081 l 443 1017 q 425 1008 430 1008 l 408 1008 m 237 -4 l 71 -8 q 54 -4 57 -8 q 52 18 52 1 q 55 38 52 35 q 76 42 59 42 l 157 42 q 165 396 165 42 l 165 537 q 158 883 165 883 l 97 883 q 76 888 82 883 q 70 908 70 892 q 76 929 70 925 q 97 933 82 933 l 227 929 l 376 933 q 394 928 390 933 q 397 906 397 923 q 393 887 397 890 q 371 883 388 883 l 294 883 q 288 701 288 883 l 289 518 q 291 500 289 503 q 306 497 293 497 l 812 497 q 827 499 825 497 q 829 514 829 502 l 829 683 q 826 818 829 753 q 818 883 822 883 l 739 883 q 720 888 725 883 q 715 909 715 892 q 719 929 715 925 q 738 933 723 933 l 886 929 l 1021 933 q 1038 928 1035 933 q 1042 906 1042 923 q 1037 887 1042 890 q 1015 883 1033 883 l 954 883 q 950 463 950 883 q 956 42 950 42 l 1029 42 q 1044 37 1041 42 q 1047 18 1047 33 q 1044 -3 1047 3 q 1029 -8 1041 -8 l 897 -4 l 740 -8 q 723 -3 726 -8 q 720 18 720 2 q 724 38 720 35 q 746 42 729 42 l 822 42 q 829 267 829 42 l 829 439 q 828 453 829 451 q 821 455 826 455 l 301 455 q 290 453 292 455 q 289 436 289 451 q 301 42 289 42 l 393 42 q 407 37 405 42 q 410 22 410 33 q 409 8 410 12 q 409 1 409 5 q 406 -5 408 -3 q 393 -8 402 -8 l 237 -4 z "}}}
